<svg width="91" height="34" viewBox="0 0 91 34" fill="none" xmlns="http://www.w3.org/2000/svg">
<path d="M28.2386 27.9548C38.4269 28.4458 50.8421 29.357 64.3885 30.3468L66.4702 30.4999L61.0972 21.1797C50.4219 23.9055 38.7372 26.2188 28.2386 27.9548Z" fill="#B2E2DF"/>
<path d="M18.3961 26.6901C38.3798 23.819 66.3092 18.1868 81.9961 11.6276C64.4671 12.8177 59.2512 12.1854 57.908 11.9065C54.974 13.5757 52.0048 14.9897 48.9176 16.3251C41.9422 19.3179 34.7428 21.8434 27.4178 23.819C24.4564 24.5417 21.2829 25.3429 18.2626 25.7828C17.422 25.9046 17.1157 24.6791 17.9365 24.4081C20.8312 23.4144 25.1241 22.2479 28.0777 21.2935C31.3533 20.2763 34.9039 19.1333 38.1245 17.9865C43.9256 15.8734 49.7149 13.5247 55.194 10.6732C53.0888 9.51851 49.7267 7.40152 45.9759 3.96484C38.2267 10.6065 20.9294 21.7059 9.05225 27.8998C11.8762 27.5817 15.0183 27.1732 18.3922 26.6901H18.3961Z" fill="#B2E2DF"/>
<path d="M1.4681 31.3484C1.49559 31.3484 1.52308 31.3484 1.5545 31.3484C4.19386 31.1834 7.64624 30.8496 11.6603 30.3625C22.7754 30.064 41.9658 31.4662 64.1844 33.0922L68.8583 33.4339C68.8897 33.4379 68.925 33.4379 68.9565 33.4379C69.4278 33.4379 69.8677 33.1983 70.123 32.7937C70.39 32.3656 70.4018 31.8197 70.1466 31.3798L63.8545 20.461C74.4591 17.6331 83.8304 14.3967 89.6904 10.9129C90.2403 10.5869 90.4916 9.92318 90.2992 9.31439C90.1028 8.70561 89.5136 8.31285 88.8774 8.35998C64.2158 10.3552 58.9724 9.34189 58.4265 9.21227C57.8059 8.94912 52.7707 6.69859 46.9578 1.12137C46.4394 0.622558 45.6185 0.610775 45.0844 1.09387C36.4868 8.87057 11.7388 24.3533 0.953558 28.7012C0.329066 28.9525 -0.0204835 29.6241 0.128766 30.2801C0.270161 30.9085 0.831825 31.3523 1.4681 31.3523V31.3484ZM66.4703 30.5L64.3886 30.3468C50.8423 29.3571 38.427 28.4459 28.2388 27.9549C38.7373 26.2189 50.422 23.9055 61.0973 21.1797L66.4703 30.5ZM45.9759 3.96497C49.7268 7.40164 53.0889 9.51863 55.1941 10.6734C49.715 13.5248 43.9257 15.8735 38.1246 17.9866C34.904 19.1335 31.3534 20.2764 28.0778 21.2936C25.1242 22.2481 20.8313 23.4146 17.9366 24.4083C17.1157 24.6793 17.4221 25.9047 18.2626 25.7829C21.283 25.343 24.4565 24.5418 27.4179 23.8191C34.7429 21.8435 41.9423 19.3181 48.9177 16.3252C52.0048 14.9898 54.9741 13.5759 57.9081 11.9066C59.2513 12.1855 64.4672 12.8178 81.9962 11.6278C66.3092 18.1869 38.3799 23.8191 18.3962 26.6902H18.3922C15.0184 27.1733 11.8763 27.5818 9.05232 27.8999C20.9295 21.7061 38.2267 10.6066 45.9759 3.96497Z" fill="#262626"/>
</svg>
