<svg width="186" height="354" viewBox="0 0 186 354" fill="none" xmlns="http://www.w3.org/2000/svg">
<path d="M33.7619 187.376L6.68481 194.63L38.3061 203.102C36.3894 197.537 34.8852 192.344 33.7619 187.376Z" fill="#FFF1D9"/>
<path d="M78.5484 316.59L78.462 316.131C77.8218 312.494 76.9106 306.335 76.3254 302.624C73.4111 283.818 70.4064 265.021 66.6241 246.404C66.471 246.392 66.3139 246.38 66.1607 246.364C62.618 246.019 59.7312 245.202 57.6299 243.988V337.501L80.1862 331.456C80.2294 327.847 80.5711 323.134 81.8437 319.835C81.0189 319.528 80.2373 319.1 79.5578 318.491C79.0786 318.055 78.6427 317.305 78.5484 316.59Z" fill="#FFF1D9"/>
<path d="M39.4176 206.249L2.74536 196.422V323.532L54.8807 337.502V241.593C54.6686 241.299 54.48 240.996 54.3308 240.678C47.9405 227.423 43.0389 216.221 39.4176 206.249Z" fill="#FFF1D9"/>
<path d="M170.027 64.2445C171.362 63.5572 172.651 62.8109 173.856 61.9351C174.1 61.7426 174.324 61.5502 174.473 61.287C174.948 60.5211 174.783 59.441 173.872 59.3782C173.035 59.335 172.435 59.8063 171.606 60.1794C168.42 61.668 165.121 62.9248 161.685 63.6829C161.363 63.7379 161.052 63.5258 160.993 63.1998C160.946 62.9327 161.084 62.6774 161.315 62.5635C162.195 62.1118 163.11 61.7387 164.022 61.3577C165.604 60.6782 167.191 60.0105 168.762 59.3114C168.409 59.3743 168.055 59.4371 167.702 59.496C166.575 59.6963 165.447 59.8849 164.293 59.9634C163.967 59.983 163.684 59.7356 163.66 59.4096C163.645 59.1347 163.817 58.8872 164.069 58.8048C168.362 57.4772 172.878 56.6053 177.108 55.1796C177.992 54.8732 179.599 54.1859 181.099 55.046C181.625 54.775 182.155 54.4962 182.458 53.9973C183.2 52.5206 182.116 51.8293 180.808 52.3163C177.101 53.6085 173.279 54.5629 169.414 55.2031C168.452 55.372 167.49 55.5291 166.496 55.5802C166.17 55.5998 165.891 55.3484 165.871 55.0185C165.86 54.7475 166.025 54.5119 166.268 54.4255C169.937 53.2157 173.762 52.4341 177.45 51.3187C178.526 51.0163 179.551 50.596 180.624 50.274C180.793 50.2386 180.961 50.2111 181.13 50.1875C181.338 50.0736 181.539 49.9558 181.731 49.838C182.623 49.2881 182.855 48.3612 182.564 47.7838C182.281 47.2183 181.507 47.124 180.49 47.5285C173.876 50.164 161.457 52.336 160.125 52.5638C159.984 52.603 159.846 52.607 159.709 52.5795C159.371 52.5284 159.081 52.3006 158.951 51.9825C158.857 51.7625 158.841 51.5112 158.947 51.2559C158.955 51.2362 158.959 51.2166 158.967 51.2009C158.967 51.193 158.978 51.1852 158.982 51.1734C159.01 51.1223 159.041 51.0673 159.077 51.0202C159.085 51.0123 159.085 51.0084 159.088 51.0006C160.714 48.8482 162.498 46.6566 163.024 44.0447C163.279 42.729 162.816 41.048 161.39 41.0283C160.235 41.0283 159.827 42.3362 159.411 43.2671C158.707 44.6417 157.698 45.8279 156.673 46.9237C154.686 49.0525 152.4 50.7924 150.228 52.6737C146.599 55.9572 145.554 59.9909 145.2 64.704C145.165 65.3207 144.281 65.4778 144.042 64.9044C143.904 64.4841 143.814 64.0521 143.747 63.62L128.575 79.7901C126.882 81.7028 127.22 83.9258 127.801 85.4498C129.03 88.6586 132.31 91.353 135.432 91.7143C137.655 91.9736 139.568 91.0231 140.962 88.9689L153.994 69.5665C154.151 69.3347 154.399 69.1776 154.678 69.1423C157.836 68.722 160.475 68.0975 162.922 67.2766C165.369 66.4597 167.631 65.4464 170.027 64.2445ZM154.371 60.5526C153.637 60.4819 150.946 60.4112 151.437 59.2014C151.543 58.9854 151.752 58.8794 151.972 58.8637C152.737 58.7733 153.547 58.8244 154.316 58.7183C156.001 58.5691 157.643 58.0664 159.077 57.1709C159.56 56.8684 159.984 56.4482 160.483 56.1693C160.982 55.8119 161.653 56.3146 161.418 56.8881C160.188 59.4725 157.097 60.6429 154.371 60.5526Z" fill="#FFE8D9"/>
<path d="M160.483 56.1695C159.984 56.4484 159.56 56.8687 159.077 57.1711C157.643 58.0666 156.001 58.5693 154.316 58.7186C153.547 58.8246 152.738 58.7735 151.972 58.8639C151.752 58.8796 151.544 58.9856 151.437 59.2017C150.947 60.4114 153.637 60.4821 154.371 60.5528C157.097 60.6431 160.188 59.4727 161.418 56.8883C161.653 56.3149 160.982 55.8121 160.483 56.1695Z" fill="#262626"/>
<path d="M121.788 318.912C119.855 320.063 117.546 321.438 114.997 321.438C113.245 321.438 111.384 320.786 109.451 318.975C108.937 320.755 108.587 322.895 109.463 327.208C110.158 328.076 110.818 328.775 111.584 329.458C112.684 329.859 113.956 329.623 115.209 329.71C117.047 329.725 118.995 330.047 120.708 330.813C121.081 330.966 121.603 331.245 121.965 331.442C124.561 332.863 127.283 334.065 130.059 335.09C134.792 336.775 139.737 338.134 144.753 337.997C146.387 337.914 147.977 337.62 149.47 337.023C149.835 336.87 150.259 337.046 150.405 337.416C150.495 337.647 150.46 337.899 150.326 338.087C150.275 338.158 150.212 338.221 150.137 338.272C148.566 339.305 146.713 339.776 144.914 339.968C136.831 340.734 127.86 337.239 120.802 333.563C119.07 332.569 117.208 332.176 115.142 332.129H115.079C115.712 332.573 116.423 333.06 117.224 333.61C117.778 333.995 118.379 334.407 119.031 334.855C119.361 334.694 119.742 334.662 120.095 334.788C121.862 335.42 123.669 336.222 125.578 337.07C132.565 340.173 140.479 343.688 149.599 340.071C150.479 339.721 151.076 339.116 151.449 338.362C152.247 336.767 152.062 334.513 151.493 332.651C151.084 331.32 149.592 330.68 146.524 329.478C143.229 328.182 138.716 326.41 133.414 322.274C130.943 320.346 129.16 318.759 127.895 316.988C125.971 316.426 124.023 317.585 121.788 318.912ZM128.233 319.329C128.728 319.364 129.026 319.941 128.779 320.37C128.551 320.684 128.272 320.963 127.966 321.222C128.378 321.623 128.791 322.027 129.207 322.428C129.494 322.204 129.792 322 130.103 321.823C130.295 321.709 130.488 321.611 130.755 321.583C131.25 321.52 131.654 322.031 131.497 322.498C131.363 322.938 131.057 323.217 130.798 323.563C130.743 323.626 130.684 323.688 130.625 323.751C130.927 324.022 131.234 324.289 131.548 324.545C131.788 324.714 131.945 324.992 131.933 325.271C131.945 325.794 131.905 326.54 131.886 327.07C131.795 327.726 132.031 329.513 130.998 329.348C130.77 329.301 130.598 329.128 130.535 328.92C130.366 328.331 130.295 327.734 130.232 327.133C130.185 326.748 130.13 326.257 130.091 325.817C129.796 325.605 129.51 325.385 129.227 325.153C129.007 325.362 128.787 325.566 128.567 325.77C128.457 325.864 128.131 325.986 127.997 326.061C127.381 326.296 127.094 325.684 127.232 325.161C127.365 324.706 127.577 324.285 127.836 323.893C127.326 323.39 126.839 322.864 126.367 322.322C125.986 322.553 125.613 322.777 125.268 323.005C125.142 323.08 124.796 323.135 124.651 323.178C124.003 323.292 123.842 322.632 124.078 322.149C124.349 321.634 124.718 321.183 125.146 320.798C124.875 320.425 124.616 320.04 124.404 319.612C124.141 319.062 124.816 318.5 125.307 318.854C125.719 319.176 126.12 319.517 126.513 319.867C126.847 319.698 127.196 319.553 127.546 319.435C127.754 319.364 127.966 319.301 128.233 319.329Z" fill="#F2F2F2"/>
<path d="M86.5137 123.799C86.1013 126.878 85.4375 131.902 84.8916 136.002L109.231 131.493C109.392 131.466 109.557 131.474 109.714 131.525C122.385 135.613 134.325 136.438 145.204 133.979C146.461 133.697 147.156 133.155 147.07 132.526C146.995 132.004 146.453 131.47 145.719 131.309C145.463 131.721 145.11 132.071 144.662 132.306C144.053 132.664 143.417 132.829 142.742 132.911C138.358 133.477 133.948 133.606 129.549 133.363C128.453 133.308 127.361 133.237 126.269 133.049C125.943 132.994 125.727 132.687 125.782 132.361C125.829 132.09 126.053 131.894 126.316 131.87C130.558 131.576 135.047 131.627 139.273 131.273C140.566 131.152 141.858 131.073 143.115 130.794C144.521 130.445 144.462 129.105 143.225 128.32C142.553 127.903 141.65 127.766 140.742 127.9H140.739C131.579 129.29 122.632 127.711 120.02 125.366C119.231 124.659 119.089 123.964 119.105 123.504C119.195 121.344 121.336 120.645 123.406 119.966C124.478 119.616 125.586 119.251 126.45 118.701C127.636 117.947 127.801 116.922 127.447 116.286C127.004 115.484 125.857 115.374 124.529 116.007C122.153 117.142 120.012 117.511 117.939 117.872C114.907 118.399 112.043 118.893 108.257 121.651C107.691 122.063 107.016 122.307 106.309 122.354L86.5255 123.721C86.5216 123.744 86.5176 123.772 86.5137 123.799Z" fill="#FFE8D9"/>
<path d="M136.139 94.5074C135.802 94.5074 135.46 94.4877 135.114 94.4484C130.982 93.9653 126.827 90.5954 125.232 86.4361C124.227 83.8085 124.384 81.2791 125.641 79.1739C124.349 79.0364 123.064 79.5274 122.082 80.415C121.049 81.3341 120.35 82.6773 119.855 83.9774C119.698 84.5037 119.584 85.0339 119.345 85.5563C119.054 86.2672 117.97 86.2004 117.762 85.4699C117.181 83.1644 118.017 80.7332 119.588 78.954C118.752 78.4473 117.597 78.0624 116.163 78.3059C115.751 78.3766 115.335 78.2588 115.024 77.9838L100.418 65.1601C99.7812 64.5985 99.0625 64.1311 98.2888 63.7698L88.9253 59.4219C93.3439 63.7776 95.6258 68.2787 96.592 70.5685C97.9706 70.0461 99.5692 69.9283 100.834 70.757C102.354 71.7271 102.986 73.2785 103.296 74.8653C105.7 76.0907 105.826 78.9932 104.781 81.3852C105.001 82.0843 105.139 82.752 105.26 83.4197C105.857 87.0095 105.83 90.6661 105.296 94.256C105.221 95.014 104.915 95.666 104.475 96.1844C105.005 97.1074 105.292 98.1836 105.292 99.3344C105.292 99.9825 105.197 100.619 105.025 101.228C106.446 102.072 109.522 103.812 114.333 106.051C120.778 109.051 127.322 108.14 132.73 103.623C128.551 103.71 124.274 102.253 121.187 99.5151C119.847 98.3132 118.732 96.7343 118.292 94.959C118.182 94.5152 118.453 94.0635 118.897 93.9536C119.282 93.8593 119.667 94.0439 119.84 94.3817C121.984 98.4939 126.713 100.407 131.139 100.815C133.26 100.96 135.593 100.866 137.29 99.6525C137.887 99.1812 138.472 98.6667 139.03 98.1247C141.316 95.8192 144.089 92.3432 144.321 88.9026L143.24 90.509C141.489 93.0895 138.967 94.5074 136.139 94.5074Z" fill="white"/>
<path d="M126.513 319.867C126.12 319.517 125.719 319.176 125.307 318.853C124.816 318.5 124.14 319.062 124.404 319.612C124.616 320.04 124.875 320.425 125.146 320.798C124.718 321.183 124.349 321.634 124.078 322.149C123.842 322.632 124.003 323.292 124.651 323.178C124.796 323.135 125.142 323.08 125.268 323.005C125.613 322.777 125.986 322.553 126.367 322.322C126.839 322.864 127.326 323.39 127.836 323.893C127.577 324.285 127.365 324.706 127.231 325.161C127.094 325.684 127.381 326.296 127.997 326.061C128.131 325.986 128.457 325.864 128.567 325.77C128.787 325.566 129.007 325.362 129.227 325.153C129.509 325.385 129.796 325.605 130.091 325.817C130.13 326.257 130.185 326.748 130.232 327.133C130.295 327.734 130.366 328.331 130.535 328.92C130.597 329.128 130.77 329.301 130.998 329.348C132.031 329.513 131.795 327.726 131.886 327.07C131.905 326.54 131.945 325.794 131.933 325.271C131.945 324.992 131.788 324.713 131.548 324.545C131.234 324.289 130.927 324.022 130.625 323.751C130.684 323.688 130.743 323.626 130.798 323.563C131.057 323.217 131.363 322.938 131.497 322.498C131.654 322.031 131.249 321.52 130.755 321.583C130.487 321.611 130.295 321.709 130.103 321.823C129.792 322 129.494 322.204 129.207 322.428C128.791 322.027 128.378 321.622 127.966 321.222C128.272 320.963 128.551 320.684 128.779 320.37C129.026 319.941 128.728 319.364 128.233 319.329C127.966 319.301 127.754 319.364 127.546 319.435C127.196 319.553 126.847 319.698 126.513 319.867Z" fill="#262626"/>
<path d="M120.916 228.424C119.101 229.987 117.452 230.824 117.373 230.863C117.181 230.961 116.969 231.008 116.757 231.008C116.545 231.008 116.325 230.957 116.124 230.855C115.735 230.651 115.464 230.274 115.398 229.842C112.153 208.534 105.335 194.827 98.1162 180.314C95.791 175.648 93.4187 170.876 91.1682 165.81C87.5508 168.056 80.5715 169.981 74.8253 169.981C74.2715 169.981 73.7295 169.957 73.2032 169.922C74.2244 178.696 76.4082 189.996 78.808 202.384C81.2117 214.803 83.9374 228.883 85.9248 242.76C86.0191 243.431 85.6106 244.075 84.9625 244.272C80.0805 245.756 74.8096 246.546 69.9983 246.546C69.8176 246.546 69.6409 246.546 69.4602 246.538C74.1184 269.444 77.4726 292.585 81.1645 315.629L81.2431 316.061L81.2627 316.171L81.2745 316.222C81.2745 316.222 81.2784 316.253 81.2902 316.273C81.5298 316.76 82.6295 317.243 83.3129 317.416C84.342 317.714 85.4771 317.883 86.6239 317.985C91.6002 318.359 99.1216 317.817 103.415 315.248C103.925 314.883 104.31 314.58 104.412 314.113C104.42 314.062 104.416 313.999 104.412 313.948C103.403 304.251 97.9983 251.99 96.875 241.177C96.0542 231.562 93.238 222.336 90.7597 213.035C88.9373 206.59 86.6946 198.472 85.0215 192.007C84.4009 189.666 83.7803 187.321 83.3129 184.933C83.2265 184.485 83.5172 184.049 83.9649 183.963C84.3655 183.885 84.7544 184.108 84.8958 184.474C88.0889 193.283 90.8618 203.252 93.4069 212.305C95.9206 221.7 98.7878 231.177 99.6126 240.921C100.681 251.212 105.296 295.818 106.832 310.645C107.413 310.982 108.226 311.25 109.208 311.446C109.33 311.454 109.451 311.473 109.565 311.513C114.184 312.326 122.016 311.697 126.454 309.934C126.462 309.93 126.47 309.93 126.474 309.926C126.874 309.769 127.247 309.6 127.585 309.419C128.673 308.85 129.325 308.214 129.282 307.762C129.031 304.985 127.44 289.785 125.755 273.694C123.964 256.604 122.114 238.938 121.709 234.625C121.505 232.473 121.289 230.619 120.916 228.424Z" fill="#808080"/>
<path d="M120.382 316.552C122.208 315.464 124.199 314.281 126.36 314.112C126.226 313.755 126.1 313.39 125.994 313.005C122.695 314.034 118.379 314.623 114.416 314.623C113.045 314.623 111.721 314.552 110.492 314.403C110.461 314.941 110.394 315.428 110.303 315.884C114.023 320.334 116.709 318.735 120.382 316.552Z" fill="white"/>
<path d="M94.7815 153.32C96.7689 149.157 94.4752 145.3 94.377 145.139C94.2081 144.864 94.1374 144.53 94.1885 144.208C94.1963 144.172 94.6991 140.94 95.2332 136.883L88.7919 138.077C88.3049 140.312 87.0402 147.896 90.1352 156.093C93.289 164.451 96.9928 171.894 100.575 179.089C107.35 192.706 114.349 206.771 117.79 227.375C119.989 225.816 123.547 222.556 122.97 218.055C121.47 206.327 115.629 195.589 108.866 183.158C104.345 174.847 99.2197 165.425 94.7501 154.431C94.6048 154.074 94.6166 153.669 94.7815 153.32Z" fill="white"/>
<path d="M118.261 337.667C117.298 336.999 116.438 336.41 115.664 335.876C111.14 332.765 109.372 331.548 107.165 328.724C107.118 328.673 107.079 328.618 107.039 328.559C106.497 327.856 105.924 327.054 105.276 326.1C104.628 325.149 103.901 324.042 103.057 322.738C102.161 321.375 97.2439 323.999 94.8795 325.259C93.8269 325.825 92.8293 326.355 92.0241 326.701C91.6667 326.854 91.215 326.972 90.6769 326.972C89.8953 326.972 88.9252 326.717 87.798 325.939C86.4076 324.977 84.9465 323.256 84.1492 321.552C83.5718 323.37 83.2458 325.684 83.0809 327.993C83.6465 329.352 84.4752 330.542 85.571 331.559C86.9457 332.863 88.5717 333.83 89.9189 335.314C94.2903 341.096 100.826 345.408 108.029 346.488C111.619 347.07 115.24 346.641 118.704 345.53C119.082 345.408 119.486 345.62 119.604 345.997C119.702 346.331 119.549 346.677 119.25 346.834C117.518 347.741 115.606 348.326 113.65 348.625C104.754 350.007 95.8457 345.561 89.9385 339.108C89.3062 338.437 88.7131 337.635 88.1161 336.94C86.7179 335.491 84.4948 334.085 82.9316 332.294V332.49C82.9316 333.877 82.9748 335.106 83.0298 336.021C83.9096 336.924 84.7344 337.557 85.3668 337.977L85.4414 337.792C85.6378 337.302 86.0973 336.968 86.6236 336.928C87.146 336.897 87.6487 337.16 87.9119 337.62C91.2425 343.464 103.721 354.398 119.097 348.829C120.346 348.377 121.199 347.07 121.438 345.243C121.748 342.875 120.884 339.493 118.261 337.667ZM107.193 331.909C106.541 331.764 105.975 331.304 105.484 330.88C104.836 330.299 104.282 329.627 103.768 328.932C103.124 329.179 102.479 329.442 101.859 329.737C102.307 330.369 102.778 330.982 103.296 331.559C103.497 331.764 103.599 332.05 103.556 332.317C103.324 333.939 103.179 335.566 102.715 337.148C102.613 337.467 102.271 337.635 101.953 337.533C101.725 337.459 101.572 337.258 101.545 337.038C101.399 335.546 101.517 334.069 101.592 332.584C101.172 332.125 100.763 331.654 100.398 331.159C100.296 331.021 100.205 330.876 100.111 330.735C99.8636 330.911 99.624 331.092 99.3648 331.269C99.0349 331.5 98.5989 331.5 98.3829 331.119C98.3161 330.99 98.2965 330.845 98.3279 330.711C98.4379 330.145 98.7953 329.674 99.1881 329.262C98.866 328.688 98.5793 328.095 98.324 327.49C97.9823 327.679 97.6524 327.883 97.295 328.083C96.9454 328.284 96.5094 328.244 96.3327 327.844C96.2777 327.71 96.2738 327.565 96.3131 327.435C96.4152 327.082 96.6194 326.772 96.8629 326.497C97.1064 326.222 97.3971 325.982 97.6759 325.758C97.4992 325.118 97.4796 324.513 98.0844 324.407C98.324 324.38 98.54 324.494 98.6657 324.678C98.7443 324.804 98.8189 324.93 98.8974 325.051C99.6908 324.682 100.539 324.439 101.411 324.344H101.423C101.403 324.01 101.517 323.724 101.945 323.633C102.138 323.606 102.318 323.669 102.452 323.787C102.637 323.987 102.809 324.195 102.982 324.403C103.54 324.529 103.956 324.808 103.756 325.389C104.176 325.962 104.577 326.548 104.97 327.141C105.394 327.255 105.677 327.506 105.551 328.005C106.219 328.995 106.906 329.969 107.711 330.848L107.829 331.021C108.131 331.449 107.684 332.058 107.193 331.909Z" fill="#F2F2F2"/>
<path d="M107.711 330.848C106.906 329.969 106.219 328.995 105.551 328.005C105.677 327.506 105.394 327.255 104.97 327.141C104.577 326.548 104.176 325.962 103.756 325.389C103.956 324.808 103.54 324.529 102.982 324.403C102.809 324.195 102.637 323.987 102.452 323.787C102.319 323.669 102.138 323.606 101.945 323.633C101.517 323.724 101.403 324.01 101.423 324.344H101.411C100.539 324.439 99.691 324.682 98.8976 325.051C98.819 324.929 98.7444 324.804 98.6658 324.678C98.5402 324.494 98.3241 324.38 98.0846 324.407C97.4797 324.513 97.4993 325.118 97.6761 325.758C97.3972 325.982 97.1066 326.222 96.8631 326.497C96.6196 326.772 96.4153 327.082 96.3132 327.435C96.2739 327.565 96.2778 327.71 96.3328 327.844C96.5096 328.244 96.9455 328.284 97.2951 328.083C97.6525 327.883 97.9824 327.679 98.3241 327.49C98.5794 328.095 98.8662 328.688 99.1882 329.262C98.7955 329.674 98.438 330.145 98.3281 330.711C98.2966 330.844 98.3163 330.99 98.3831 331.119C98.5991 331.5 99.035 331.5 99.365 331.269C99.6242 331.092 99.8638 330.911 100.111 330.735C100.205 330.876 100.296 331.021 100.398 331.159C100.763 331.654 101.172 332.125 101.592 332.584C101.517 334.069 101.399 335.546 101.545 337.038C101.572 337.258 101.725 337.459 101.953 337.533C102.271 337.635 102.613 337.466 102.715 337.148C103.179 335.565 103.324 333.939 103.556 332.317C103.599 332.05 103.497 331.764 103.297 331.559C102.778 330.982 102.307 330.369 101.859 329.737C102.48 329.442 103.124 329.179 103.768 328.932C104.282 329.627 104.836 330.299 105.484 330.88C105.975 331.304 106.541 331.764 107.193 331.909C107.684 332.058 108.131 331.449 107.829 331.021L107.711 330.848ZM100.744 328.068C100.473 327.64 100.209 327.207 99.9462 326.775C100.641 326.52 101.356 326.304 102.071 326.108C102.26 326.504 102.468 326.893 102.688 327.274C102.008 327.451 101.352 327.718 100.744 328.068Z" fill="#262626"/>
<path d="M101.902 81.805C101.698 81.2748 101.863 80.8153 102.107 80.3518C102.382 79.743 102.625 78.9104 102.57 78.2977C102.495 77.6143 102.256 77.4571 101.608 77.2215C101.062 77.0408 100.693 76.5656 100.626 76.0275C100.347 73.6159 99.369 72.2609 97.2599 73.3056C96.765 74.7628 96.5765 76.2946 96.7375 77.8224C96.7571 78.3684 96.8907 78.9339 96.8357 79.4799C96.8082 79.8962 96.2426 80.069 95.9834 79.7509C94.8719 78.1523 94.9151 75.8979 95.406 73.9694C95.3275 73.9891 95.2568 74.0165 95.19 74.0558C95.0054 74.1697 94.8248 74.3425 94.6716 74.5939C93.9764 75.8115 94.1767 77.5946 94.5577 79.0007C94.7816 79.8098 95.2018 80.5364 95.5239 81.3966C95.8734 82.1899 94.9269 82.9362 94.2395 82.4295C94.0471 82.2763 93.8625 82.1035 93.6897 81.9268C93.1673 83.0462 92.9277 84.2402 93.6583 85.3242C93.7957 85.5716 94.1846 85.9015 94.4241 85.9369L94.648 85.9762C95.2804 86.0979 95.7242 86.6399 95.7517 87.2566L95.8381 89.2007C95.8656 89.8056 95.5042 90.3319 94.974 90.544C93.67 91.086 93.7211 93.5486 95.0643 93.9335C96.1248 94.1535 97.1499 93.5565 98.1515 92.8966C98.7327 92.4921 99.5104 92.5824 99.9857 93.0812L100.021 93.1166L100.826 93.961L101.227 94.3813C101.27 94.4284 101.27 94.4166 101.29 94.4323C101.325 94.4716 101.372 94.4991 101.411 94.5266C101.73 94.7269 102.275 94.5345 102.393 94.1496C102.421 94.126 102.488 93.6075 102.539 93.2462C102.912 90.1591 102.916 86.9777 102.429 83.9102C102.299 83.1561 102.13 82.406 101.902 81.805ZM98.937 79.2364C98.5128 79.3424 98.065 79.0164 97.9394 78.5097C97.8137 78.0031 98.0572 77.5082 98.4814 77.4022C98.9056 77.2961 99.3533 77.6221 99.479 78.1288C99.6047 78.6354 99.3612 79.1303 98.937 79.2364Z" fill="#ECB8A4"/>
<path d="M99.9463 326.775C100.209 327.207 100.473 327.639 100.744 328.067C101.352 327.718 102.008 327.451 102.688 327.274C102.468 326.893 102.26 326.504 102.071 326.107C101.356 326.304 100.641 326.52 99.9463 326.775Z" fill="#F2F2F2"/>
<path d="M99.2275 96.4047C99.1685 96.3419 99.0821 96.2515 98.9879 96.1494C97.1105 96.499 95.563 98.4196 95.563 100.474C95.563 101.507 95.9361 102.41 96.6195 103.015C97.2283 103.557 98.0335 103.8 98.8897 103.698C100.869 103.467 102.542 101.471 102.542 99.3347C102.542 98.6278 102.362 97.9758 102.024 97.4416C101.046 97.528 100.025 97.2217 99.2275 96.4047Z" fill="#CCCCCC"/>
<path d="M89.3615 323.677C90.0174 324.128 90.6104 324.313 90.9443 324.171C91.6395 323.873 92.586 323.37 93.5876 322.836C96.2584 321.41 99.3416 319.765 101.824 319.619C101.777 319.431 101.733 319.242 101.694 319.058C101.561 319.105 101.431 319.148 101.305 319.191C96.5608 320.617 91.7377 321.061 86.8242 320.754C87.3741 321.764 88.3049 322.946 89.3615 323.677Z" fill="white"/>
<path d="M98.4813 77.4028C98.0572 77.5089 97.8137 78.0037 97.9393 78.5104C98.065 79.0171 98.5128 79.3431 98.937 79.237C99.3611 79.131 99.6046 78.6361 99.479 78.1294C99.3533 77.6228 98.9055 77.2968 98.4813 77.4028Z" fill="#262626"/>
<path d="M97.7391 120.19C98.0651 117.845 99.0627 110.752 99.7814 106.333C99.5929 106.372 99.4044 106.408 99.2119 106.431C98.9723 106.459 98.7406 106.471 98.505 106.471C97.5427 106.471 96.6236 106.231 95.8067 105.779C95.7321 106.105 95.6614 106.427 95.5789 106.749C95.3825 107.488 95.2254 108.254 94.9033 108.941C95.0133 109.141 95.0801 109.369 95.0801 109.605V120.374L97.7391 120.19Z" fill="white"/>
<path d="M65.9881 48.8452L66.1492 57.2974C66.212 58.024 67.2096 59.7679 68.3644 61.7867C69.9511 64.5596 72.1859 68.4636 74.3461 73.711L81.1606 76.6528C84.3694 72.623 85.3356 68.6561 84.5894 66.6962C84.5776 66.6648 84.5737 66.6334 84.5658 66.602C83.5289 64.5321 82.2367 62.855 80.6421 61.6885C80.3043 61.4411 80.0962 61.0522 80.0805 60.632L79.9744 57.7609C78.7529 57.6823 77.5393 57.4584 76.3531 57.0775C73.9416 56.3744 71.7028 55.1372 70.0807 53.2834C69.7744 52.9299 69.8097 52.3957 70.1632 52.0894C70.4146 51.8694 70.7602 51.8262 71.0469 51.9441C73.2071 52.7806 75.0845 53.8175 77.1387 54.4342C82.7552 56.2527 89.1376 53.7311 92.3661 48.8766C93.7486 46.6143 94.2435 43.9396 94.4831 41.2373C94.7659 38.0167 94.3731 34.7607 93.9332 31.54L92.9945 31.6697C93.1634 34.5054 91.3017 37.1173 88.7841 37.4668C88.5916 37.4943 88.4031 37.5061 88.2107 37.5061C87.2366 37.5061 86.2665 37.1644 85.426 36.5203C84.228 35.5973 83.4347 34.1794 83.2501 32.6319C83.2422 32.5809 83.2422 32.5298 83.2383 32.4787C83.0576 32.4395 82.8102 32.412 82.4999 32.4552C82.1739 32.5023 81.9343 32.6005 81.7654 32.6948C81.7733 32.7497 81.785 32.8047 81.7929 32.8637C82.1503 35.8369 80.2336 38.6569 77.61 39.0222C77.4175 39.0497 77.2251 39.0614 77.0365 39.0614C76.0625 39.0614 75.0924 38.7237 74.2519 38.0756C73.1561 37.2312 72.4019 35.9704 72.1388 34.5761L67.3157 35.2595L67.3589 38.8965C67.3667 39.5681 66.8876 40.1455 66.2238 40.2633C65.564 40.3851 64.912 40.0041 64.6881 39.3717C64.4956 38.8454 63.7494 37.3608 62.6339 36.862C62.088 36.6185 61.491 36.6342 60.8037 36.9091C58.8556 37.6907 59.0598 40.169 59.2366 41.1941C59.7471 44.1556 62.0527 47.3919 64.6645 47.498C65.3951 47.5255 65.9724 48.1146 65.9881 48.8452ZM82.8848 36.4339C83.4661 36.587 84.0709 36.6695 84.7033 36.7481C86.51 36.9209 87.6686 38.6215 86.9145 40.3851C86.2036 41.7636 84.8211 42.2428 83.4229 42.4824C82.17 42.6395 81.8518 40.8289 83.0812 40.55C83.7371 40.3968 85.2649 39.9923 85.1078 39.1243C85.0764 39.0065 85.0293 38.9201 84.9664 38.8651C84.5344 38.6176 83.7371 38.4644 83.1754 38.1777C82.7866 38.001 82.3742 37.7378 82.1228 37.3333C81.8047 36.8227 82.3349 36.2296 82.8848 36.4339ZM76.1293 46.3354C76.4592 45.6481 77.0994 45.161 77.8496 45.0275C80.2179 44.6151 82.8298 44.3559 84.3694 44.2852C84.8525 44.2616 85.3121 44.4541 85.6381 44.8115C85.9601 45.165 86.1094 45.6402 86.0426 46.1155C85.8423 47.5765 85.3199 48.7509 84.5148 49.5993C84.4637 49.6621 84.4048 49.7249 84.3341 49.776C83.5643 50.5026 82.5666 50.9582 81.3648 51.1035C81.1174 51.131 80.8699 51.1467 80.6303 51.1467C78.7254 51.1467 77.1662 50.2041 76.1882 48.4367C75.8268 47.7808 75.8033 47.0149 76.1293 46.3354Z" fill="#FFE8D9"/>
<path d="M76.3726 28.9706C77.8298 28.7663 79.1809 29.0727 80.1667 29.8346C80.638 30.196 81.0112 30.6516 81.29 31.1818C81.565 31.0601 81.891 30.954 82.2837 30.899C82.6883 30.844 83.0378 30.8597 83.3363 30.903C83.7644 29.057 85.3041 27.7255 87.5467 27.4113C89.0078 27.2071 90.355 27.5173 91.3408 28.2793C91.9535 28.7506 92.4052 29.379 92.6841 30.1253L93.717 29.9839C93.6895 29.7679 93.6581 29.5558 93.6306 29.3437C93.5717 28.7467 93.3989 26.9243 93.2182 25.0822C93.0415 23.2441 92.8608 21.3902 92.798 20.7383C92.5623 18.9355 91.9378 17.7297 90.8891 17.0581C89.3063 16.0487 86.5609 16.1076 82.9475 17.2348C82.7904 17.2859 82.6254 17.3055 82.4644 17.2977C82.3976 17.2977 75.6146 16.9442 71.9816 18.095C69.7821 18.7941 68.7609 19.3518 69.6564 24.4342C70.277 27.9651 69.0437 30.3649 67.2959 33.6012V33.6759L72.068 33.0003C72.3036 30.8755 73.9139 29.3123 76.3726 28.9706ZM84.6639 25.5025C85.8657 23.5426 90.0879 23.1145 91.6472 24.8151C91.9535 25.1843 91.6668 25.7853 91.1916 25.7892C90.6613 25.8285 90.1743 25.6831 89.6441 25.7146C88.2026 25.6714 86.8162 26.0248 85.4415 26.3901C84.8877 26.5158 84.4125 26.0406 84.6639 25.5025ZM73.5958 26.6022C74.8998 25.5535 76.6358 25.1372 78.2933 25.3454C79.0356 25.4396 80.9601 25.9738 80.1785 27.0107C80.045 27.1521 79.8564 27.1796 79.6797 27.2031C78.4111 27.1953 77.1503 27.2071 75.9053 27.5291C75.1551 27.6627 74.5031 27.9651 73.7961 28.2282C73.4308 28.3775 72.9988 28.2597 72.8849 27.8512C72.7749 27.3406 73.262 26.885 73.5958 26.6022Z" fill="#FFE8D9"/>
<path d="M91.2347 92.2729C91.2347 91.9744 91.2622 91.668 91.3172 91.3616C91.49 90.258 92.1184 89.174 93.0414 88.4827C93.0388 88.4382 93.0362 88.3937 93.0335 88.3492C92.468 88.0703 92.0006 87.65 91.5882 87.1355C91.38 86.8645 91.215 86.5739 91.0815 86.2793C91.1483 88.2353 91.1718 90.2383 91.1522 92.2729C91.109 97.6655 90.7909 103.286 90.3706 108.832L92.9118 108.353C92.9275 107.115 93.3399 105.878 93.5559 104.665C93.6148 104.382 93.6855 104.107 93.7601 103.828C93.1514 102.858 92.8136 101.699 92.8136 100.474C92.8136 99.0519 93.2653 97.6891 94.0154 96.5383C92.3462 95.8941 91.2347 94.1974 91.2347 92.2729Z" fill="white"/>
<path d="M86.6711 120.952L92.3308 120.563V114.519L81.6987 116.518C82.0561 116.655 82.4136 116.793 82.771 116.934L83.8707 117.386C85.3318 117.998 86.4158 119.393 86.6711 120.952Z" fill="white"/>
<path d="M92.3306 111.259L76.6711 114.205V114.888C77.0914 114.994 77.5077 115.108 77.9201 115.23L92.3306 112.52V111.259Z" fill="#FFDE6B"/>
<path d="M85.4417 26.3905C86.8163 26.0252 88.2028 25.6718 89.6442 25.715C90.1745 25.6835 90.6615 25.8289 91.1917 25.7896C91.667 25.7896 91.9537 25.1847 91.6473 24.8155C90.0881 23.1149 85.8659 23.543 84.664 25.5029C84.4126 26.0409 84.8879 26.5162 85.4417 26.3905Z" fill="#262626"/>
<path d="M82.7275 57.8193L82.8022 59.8853C87.9513 64.0878 90.1861 72.5204 90.8931 82.6537C91.1798 81.6954 91.7022 80.7959 92.3895 80.0693C91.8632 79.0167 91.5568 77.8384 91.4901 76.6719C91.3447 74.7199 92.252 72.4694 94.0116 71.5503C92.8372 68.8363 89.5734 62.6228 82.7275 57.8193Z" fill="white"/>
<path d="M90.3827 29.5243C89.7346 29.0216 88.8038 28.8252 87.7629 28.9705C86.1605 29.1905 84.5423 30.2234 84.8094 32.4425C84.9429 33.558 85.532 34.6145 86.3883 35.2744C87.052 35.7889 87.8258 36.0128 88.5681 35.9106C90.3355 35.6632 91.6631 33.6012 91.4078 31.4921C91.3057 30.628 90.96 29.9681 90.3827 29.5243ZM88.5131 33.7662C87.7826 33.8683 87.1267 33.3184 87.0442 32.5368V32.5211L86.9696 31.7866C86.9696 31.7866 86.9656 31.7749 86.9656 31.7709C86.8831 30.9893 87.4095 30.2745 88.14 30.1763C88.8705 30.0742 89.5304 30.6241 89.6089 31.4017L89.6914 32.1715C89.77 32.9492 89.2437 33.664 88.5131 33.7662Z" fill="#FFE8D9"/>
<path d="M89.6088 31.4027C89.5303 30.625 88.8704 30.0751 88.1399 30.1772C87.4094 30.2754 86.8831 30.9903 86.9655 31.7719C86.9655 31.7758 86.9695 31.7836 86.9695 31.7876L87.0441 32.522V32.5377C87.1266 33.3193 87.7825 33.8692 88.513 33.7671C89.2436 33.665 89.7699 32.9501 89.6913 32.1725L89.6088 31.4027Z" fill="#262626"/>
<path d="M84.5107 138.87C84.4636 139.239 84.4125 139.6 84.3693 139.93L84.2161 141.085C84.0315 142.982 82.6176 144.675 80.7677 145.162C80.5202 145.232 80.2492 145.276 79.9939 145.311C78.8589 145.429 77.6217 145.594 76.4866 145.684C75.8424 145.743 75.1944 145.79 74.5463 145.833C74.1418 148.182 73.1834 153.893 72.7592 157.773C72.4882 160.252 72.5707 163.421 72.9124 167.137C78.6664 167.714 86.9615 165.381 90.0565 163.26C89.2003 161.245 88.3637 159.187 87.5625 157.066C84.5853 149.18 85.2766 141.968 85.8775 138.614L84.5107 138.87Z" fill="#5797CC"/>
<path d="M87.3228 109.405L87.5702 109.357C87.9159 104.911 88.2065 100.281 88.3361 95.709C87.3974 100.929 86.3409 105.206 85.8774 106.997C86.7297 107.464 87.311 108.368 87.3228 109.405Z" fill="#5797CC"/>
<path d="M83.1753 38.1768C83.737 38.4635 84.5343 38.6167 84.9663 38.8641C85.0292 38.9191 85.0763 39.0055 85.1077 39.1233C85.2648 39.9913 83.737 40.3959 83.0811 40.5491C81.8517 40.8279 82.1699 42.6386 83.4228 42.4815C84.821 42.2419 86.2035 41.7627 86.9144 40.3841C87.6685 38.6206 86.5099 36.9199 84.7032 36.7471C84.0708 36.6686 83.466 36.5861 82.8847 36.4329C82.3348 36.2287 81.8046 36.8217 82.1227 37.3323C82.3741 37.7369 82.7865 38 83.1753 38.1768Z" fill="#262626"/>
<path d="M82.598 79.2247C82.3309 79.531 81.946 79.696 81.5571 79.696C81.3725 79.696 81.1879 79.6606 81.0151 79.5821L75.7246 77.3001C77.441 82.08 79.0003 87.7908 80.0175 94.5463L84.4439 104.636C85.5594 100.045 87.645 90.4616 88.0574 81.7148C87.7864 78.4234 87.3425 75.3324 86.6709 72.5752C85.8382 74.7747 84.4557 77.0802 82.598 79.2247Z" fill="#5797CC"/>
<path d="M80.6302 51.1467C80.8698 51.1467 81.1172 51.131 81.3646 51.1035C82.5665 50.9582 83.5641 50.5026 84.3339 49.776C84.4046 49.7249 84.4635 49.6621 84.5146 49.5992C85.3198 48.7508 85.8421 47.5765 86.0424 46.1154C86.1092 45.6402 85.96 45.1649 85.6379 44.8114C85.3119 44.454 84.8524 44.2616 84.3693 44.2851C82.8297 44.3558 80.2178 44.6151 77.8494 45.0275C77.0992 45.161 76.459 45.648 76.1291 46.3354C75.8031 47.0148 75.8267 47.7807 76.188 48.4366C77.166 50.2041 78.7253 51.1467 80.6302 51.1467ZM77.9005 47.1837C77.928 47.1287 78.0065 46.9952 78.1872 46.9638C78.9295 46.8342 79.6993 46.7203 80.4534 46.6221C81.6789 46.9363 82.3191 47.9889 82.6058 48.6527C82.1973 48.9158 81.7103 49.0808 81.129 49.1515C79.6954 49.3243 78.6114 48.7626 77.9044 47.4862C77.8376 47.3644 77.8651 47.2544 77.9005 47.1837Z" fill="#262626"/>
<path d="M84.2278 108.686C83.9254 108.816 83.7329 109.11 83.7329 109.436V110.08L85.3589 109.774V109.436C85.3589 108.933 84.9387 108.619 84.5459 108.619C84.4399 108.619 84.3299 108.643 84.2278 108.686Z" fill="white"/>
<path d="M39.7042 98.329C45.2343 113.607 47.6027 119.574 50.2813 125.822C54.1854 134.966 59.146 139.699 65.4105 140.253C66.7774 133.866 68.042 127.472 70.0648 121.227C70.379 120.292 71.7772 120.603 71.6751 121.577C71.0035 127.771 69.5935 133.811 68.3013 139.872L67.83 142.083C67.771 142.393 67.8889 142.711 68.1285 142.923C68.5094 143.249 68.7922 143.139 69.4481 143.194C71.7105 143.273 73.9688 143.151 76.239 142.947C77.3387 142.857 78.5602 142.703 79.6639 142.582C79.9035 142.554 80.1391 142.495 80.3552 142.393C80.9286 142.126 81.3528 141.572 81.4549 140.952C81.4706 140.869 81.6277 139.691 81.6434 139.569L82.2561 134.958C82.6175 132.252 83.6347 124.589 83.9804 122.001C84.0982 121.141 83.5994 120.249 82.7942 119.919L81.7455 119.483C80.3394 118.918 78.9137 118.403 77.4801 117.967C76.0466 117.531 74.5973 117.174 73.1755 116.981C72.5863 116.903 72.1346 116.463 72.0129 115.917C71.9029 115.344 71.6594 114.723 71.3138 114.271C70.9799 113.831 70.5754 113.647 70.0569 113.556C69.5895 113.45 69.2321 113.101 69.0829 112.681C67.8732 109.197 66.7027 105.709 65.5716 102.194C64.4915 98.7022 63.2975 95.022 63.0108 91.3614C62.9951 90.4698 64.2519 90.1556 64.625 91.0119C65.3045 92.7714 65.9408 94.5507 66.5496 96.3377C68.2188 101.232 69.7074 106.2 71.4355 111.074C72.5038 111.459 73.3483 112.268 73.9217 113.25V113.065C73.9217 112.402 74.393 111.836 75.0411 111.714L78.462 111.07C78.4581 105.693 78.1007 100.803 77.4958 96.3613C76.404 88.3332 74.5187 81.7741 72.4842 76.4914C70.1787 70.4979 67.6925 66.1421 65.9761 63.1493C64.6839 60.887 63.8159 59.3748 63.5174 58.1494C63.2307 58.4008 62.9244 58.66 62.5905 58.9271C61.7343 63 64.2126 70.164 66.5456 75.5056L70.4497 76.0476C70.921 76.1104 71.3256 76.4168 71.518 76.8567C71.7105 77.2927 71.6633 77.7993 71.3923 78.1921L69.8841 80.3641C69.9116 80.3798 69.9391 80.3955 69.9666 80.4112C71.1174 81.0985 71.8361 82.214 72.4763 83.3019C74.5501 87.2296 75.5949 91.3457 76.3215 95.6465C76.3529 95.8232 76.3961 96.1217 76.4472 96.5027C76.7221 98.6589 77.1031 103.407 75.1864 102.795C74.7897 102.634 74.5933 102.198 74.7072 101.801C74.9193 99.9433 74.4362 97.9166 74.0906 96.0549C73.2147 92.1823 72.0168 88.1015 70.0883 84.6727C69.6681 83.9932 69.1889 83.1645 68.5291 82.8149C68.5212 82.8306 68.5134 82.8424 68.5016 82.8581C67.1151 86.8839 69.9234 96.6362 71.7812 100.54C72.2093 101.432 72.6884 102.296 73.2383 103.038C73.69 103.62 74.2673 104.311 74.9507 104.385C75.9798 104.354 76.1526 105.823 75.1471 106.023C71.2706 106.553 68.4977 99.3777 67.3626 96.0628C67.3115 95.9057 67.2605 95.7564 67.2133 95.619C66.0822 91.9859 65.1945 88.2036 65.332 84.3545C65.3948 83.4158 65.5441 82.3907 66.0468 81.4834C66.09 81.3892 66.145 81.3028 66.2 81.2164C64.6132 78.0939 59.8451 68.1727 59.6841 61.103C57.8734 62.3795 55.7172 63.8091 53.2467 65.4312C51.4439 66.6135 49.7432 67.7289 48.3214 68.7187C45.6114 70.6078 38.5809 76.4639 37.874 86.6168C37.8818 86.6954 37.8857 86.774 37.8818 86.8525C37.8622 87.1589 37.8425 87.4731 37.8229 87.7834C37.7561 90.9097 38.2903 94.421 39.7042 98.329ZM53.2467 76.1497C57.6338 76.9392 60.6346 80.9964 62.2684 84.873C62.6337 85.7999 62.9872 86.6797 63.0972 87.7048C63.1364 88.1015 62.8497 88.455 62.453 88.4982C62.1585 88.5257 61.8953 88.3764 61.75 88.1408C61.0941 87.1392 60.5874 86.0198 59.9315 85.0144C58.7375 83.0074 57.2921 81.0985 55.5797 79.5236C54.7078 78.7302 53.7573 78.1803 52.7911 77.489C52.1312 77.0649 52.4572 76.0515 53.2467 76.1497Z" fill="white"/>
<path d="M81.7692 110.45V109.436C81.7692 108.376 82.3741 107.418 83.3167 106.954L80.7952 101.212C81.0465 104.154 81.1919 107.264 81.2076 110.556L81.7692 110.45Z" fill="#5797CC"/>
<path d="M81.1291 49.1515C81.7104 49.0808 82.1974 48.9158 82.6059 48.6527C82.3192 47.9889 81.679 46.9363 80.4536 46.6221C79.6994 46.7203 78.9296 46.8342 78.1873 46.9638C78.0066 46.9952 77.9281 47.1287 77.9006 47.1837C77.8652 47.2544 77.8378 47.3644 77.9045 47.4861C78.6115 48.7626 79.6955 49.3243 81.1291 49.1515Z" fill="#ECB8A4"/>
<path d="M79.2083 31.0804C78.6978 30.6837 78.0143 30.4795 77.2406 30.4795C77.0285 30.4795 76.8125 30.4952 76.5886 30.5266C74.9861 30.7505 73.368 31.7795 73.635 33.9986C73.7686 35.1141 74.3577 36.1745 75.21 36.8305C75.8777 37.345 76.6515 37.5728 77.3899 37.4667C79.1573 37.2232 80.4848 35.1573 80.2335 33.0521C80.1313 32.188 79.7857 31.5242 79.2083 31.0804ZM78.14 35.1652C77.4095 35.2673 76.7497 34.7174 76.6711 33.9358L76.5886 33.1699C76.5101 32.3883 77.0364 31.6735 77.7669 31.5753C78.4974 31.4732 79.1534 32.0231 79.2358 32.8007V32.8204L79.3105 33.5509C79.3105 33.5509 79.3144 33.5627 79.3144 33.5705C79.3969 34.3482 78.8706 35.063 78.14 35.1652Z" fill="#FFE8D9"/>
<path d="M73.7962 28.2288C74.5032 27.9657 75.1551 27.6632 75.9053 27.5297C77.1504 27.2076 78.4111 27.1959 79.6798 27.2037C79.8565 27.1801 80.045 27.1527 80.1786 27.0113C80.9602 25.9744 79.0356 25.4402 78.2933 25.346C76.6359 25.1378 74.8998 25.5541 73.5959 26.6028C73.262 26.8856 72.775 27.3412 72.885 27.8518C72.9989 28.2602 73.4309 28.3781 73.7962 28.2288Z" fill="#262626"/>
<path d="M83.0299 241.97C81.07 228.538 78.4385 214.944 76.1094 202.906C73.5526 189.694 71.2313 177.707 70.2926 168.547C70.2848 168.492 70.2769 168.433 70.2769 168.375C69.837 164.042 69.7113 160.35 70.0256 157.475C70.4301 153.768 71.2863 148.583 71.738 145.952C70.9407 145.967 70.1434 145.971 69.35 145.944L68.7451 145.916C67.0288 145.94 65.5049 144.62 65.1435 142.994C57.7988 142.35 52.0959 137.075 47.752 126.903C45.0655 120.626 42.6814 114.633 37.1631 99.3818C36.6761 109.008 36.3147 118.647 36.0084 126.883C35.6078 137.68 35.2896 146.207 34.8772 149.357C32.4932 167.652 34.0996 183.244 41.7466 204.579C41.7663 204.63 41.782 204.678 41.7977 204.729C45.3993 214.752 50.3285 226.048 56.8052 239.484C58.7808 243.589 70.5204 245.462 83.0299 241.97Z" fill="white"/>
<path d="M79.3107 33.5503L79.236 32.8198V32.8001C79.1536 32.0225 78.4976 31.4726 77.7671 31.5747C77.0366 31.6729 76.5103 32.3877 76.5888 33.1693L76.6713 33.9352C76.7499 34.7168 77.4097 35.2667 78.1402 35.1646C78.8708 35.0624 79.3971 34.3476 79.3146 33.5699C79.3146 33.5621 79.3107 33.5582 79.3107 33.5503Z" fill="#262626"/>
<path d="M52.7913 77.4886C53.7575 78.1798 54.7079 78.7297 55.5799 79.5231C57.2923 81.098 58.7377 83.0069 59.9317 85.0139C60.5876 86.0194 61.0943 87.1387 61.7502 88.1403C61.8955 88.3759 62.1586 88.5252 62.4532 88.4977C62.8499 88.4545 63.1366 88.101 63.0974 87.7043C62.9874 86.6792 62.6339 85.7994 62.2686 84.8725C60.6347 80.9959 57.634 76.9387 53.2469 76.1492C52.4574 76.051 52.1314 77.0644 52.7913 77.4886Z" fill="#262626"/>
<path d="M184.677 50.7335C185.51 49.4609 185.663 47.831 185.023 46.5506C184.386 45.2859 183.11 44.5278 181.606 44.5278C180.93 44.5278 180.215 44.681 179.473 44.9756C175.31 46.637 168.527 48.1412 163.9 49.0603C164.729 47.7445 165.467 46.2442 165.801 44.5435C166.162 42.8704 165.754 41.048 164.74 39.795C163.912 38.766 162.725 38.2004 161.406 38.2004H161.327C159.332 38.2358 157.753 39.5987 156.873 42.0456C156.343 43.0667 155.593 43.9701 154.635 44.9991C153.554 46.1421 152.305 47.2929 150.601 48.7225C148.971 50.0383 147.408 51.358 146.21 52.9879C144.541 55.2385 143.382 57.925 143.001 60.3954L127.589 76.8208C126.426 76.3494 125.075 76.157 123.799 76.4241C123.111 76.5655 122.448 76.8168 121.823 77.1585C120.641 76.2316 118.807 75.2968 116.372 75.5089L102.232 63.0937C101.399 62.3632 100.465 61.7544 99.4514 61.2791L88.238 56.0672C90.8303 54.7907 93.1122 52.8505 94.7304 50.4114C96.4193 47.7249 97.0516 44.4886 97.3226 41.4604C97.629 37.953 97.2559 34.5242 96.7531 31.0953C97.0359 30.9422 97.2087 30.6319 97.1616 30.298C97.1145 29.9563 96.8552 29.701 96.5371 29.6382C96.5096 29.4575 96.4821 29.2769 96.4507 29.1001C96.3761 28.401 96.1247 26.013 95.8969 23.8764C99.0508 17.1994 96.8003 11.579 93.3165 9.14777C92.4563 8.54685 91.5608 7.86344 90.6064 7.1329C86.0936 3.68445 80.477 -0.608445 73.2463 0.17708C67.6651 0.781934 60.9371 2.50616 57.7243 10.3614C56.5853 10.3968 55.2342 10.9113 53.9302 12.5609C50.5839 16.8106 49.1346 27.4269 50.4739 29.9013C51.6561 32.0812 55.4188 38.2161 56.3811 39.7872C56.3693 40.3842 56.4164 41.0126 56.5264 41.6646C57.1587 45.3134 59.7706 49.1506 63.2583 50.0501L63.3408 54.3076C62.5867 56.0161 55.5602 60.6272 51.7386 63.133C49.9201 64.3231 48.2037 65.4503 46.7505 66.4636C40.9651 70.4973 35.871 77.3824 35.1915 86.3767C35.164 86.4709 35.1444 86.5691 35.1405 86.6712C34.2528 100.147 33.703 114.915 33.2591 126.78C32.8624 137.507 32.5482 145.978 32.1515 148.999C30.5491 161.304 30.6983 172.384 33.1845 184.685L1.01333 193.302C1.01333 193.302 0.977979 193.314 0.962268 193.322C0.930847 193.33 0.903354 193.342 0.87586 193.353C0.824801 193.373 0.773742 193.393 0.726611 193.42C0.703045 193.432 0.679479 193.448 0.651986 193.459C0.604854 193.491 0.557723 193.526 0.514519 193.562C0.494881 193.577 0.471315 193.593 0.451677 193.609C0.400618 193.656 0.357414 193.707 0.310282 193.758C0.302427 193.77 0.290644 193.778 0.282789 193.789C0.23173 193.856 0.188526 193.923 0.153177 193.998C0.141395 194.021 0.133539 194.045 0.121756 194.068C0.0981906 194.123 0.0746249 194.178 0.0589144 194.237C0.0549868 194.249 0.0471315 194.261 0.0432039 194.272C0.0392763 194.292 0.0392763 194.308 0.0353486 194.324C0.0235658 194.379 0.0117829 194.434 0.00785525 194.488C0.00392763 194.524 0 194.555 0 194.587C0 194.602 0 194.614 0 194.63V324.587C0 325.208 0.416328 325.754 1.01725 325.915L55.9019 340.62C55.9215 340.624 55.9372 340.628 55.953 340.632C55.9726 340.635 55.9962 340.639 56.0158 340.643C56.0943 340.655 56.1768 340.667 56.2593 340.667C56.3418 340.667 56.4203 340.655 56.5028 340.643C56.5225 340.639 56.546 340.635 56.5657 340.632C56.5814 340.632 56.5971 340.624 56.6167 340.62L80.2139 334.3C80.2492 335.663 80.3121 336.566 80.3199 336.7C80.3435 337.01 80.4692 337.305 80.6813 337.533C83.1596 340.235 85.4651 341.173 85.5594 341.209C86.0229 341.393 86.5295 341.311 86.8987 341.028C90.8774 346.24 99.6006 353.11 110.606 353.11C113.599 353.11 116.757 352.599 120.036 351.413C122.287 350.6 123.791 348.479 124.168 345.6C124.435 343.561 124.078 341.079 122.907 338.895C123.422 339.119 123.94 339.347 124.466 339.583C129.415 341.778 135.201 344.347 141.697 344.347C144.537 344.347 147.518 343.856 150.617 342.627C154.246 341.185 155.656 336.853 154.124 331.845C153.311 329.186 150.888 328.232 147.529 326.916C144.395 325.683 140.094 323.998 135.11 320.106C131.151 317.019 129.403 315.169 128.575 311.999C128.669 311.952 128.775 311.905 128.865 311.854C131.67 310.385 132.133 308.68 132.027 307.51C131.772 304.717 130.177 289.506 128.492 273.406C126.701 256.325 124.851 238.666 124.447 234.366C124.18 231.526 123.893 229.193 123.265 225.968C125.228 223.419 126.069 220.595 125.7 217.705C124.137 205.466 118.182 194.52 111.285 181.845C106.875 173.731 101.883 164.556 97.5229 153.932C99.3336 149.517 97.6683 145.511 96.9809 144.168C97.1537 143.029 97.6172 139.934 98.0767 136.356L109.298 134.278C117.314 136.823 125.134 138.111 132.549 138.111C134.824 138.111 137.074 137.99 139.289 137.746C141.508 137.507 143.684 137.141 145.813 136.662C149.12 135.916 150.027 133.76 149.796 132.137C149.58 130.621 148.433 129.329 146.877 128.783C146.787 128.406 146.646 128.053 146.457 127.735C145.389 125.779 143.178 125.083 141.461 125.083C141.069 125.083 140.68 125.119 140.334 125.182C138.166 125.512 135.967 125.676 133.802 125.676C127.247 125.676 123.001 124.184 121.996 123.493C122.424 123.182 123.638 122.786 124.266 122.578C125.44 122.193 126.772 121.757 127.931 121.022C130.495 119.388 130.841 116.733 129.855 114.954C129.125 113.634 127.722 112.845 126.108 112.845C125.224 112.845 124.294 113.073 123.347 113.524C121.313 114.495 119.451 114.821 117.475 115.162C114.262 115.72 110.944 116.297 106.643 119.428C106.498 119.534 106.317 119.597 106.124 119.612L100.547 119.997C101.007 116.698 102.216 108.179 102.849 104.727C103.194 104.416 103.513 104.071 103.795 103.694C105.347 104.613 108.426 106.329 113.178 108.54C116.105 109.903 119.046 110.575 121.917 110.575C127.612 110.575 133.021 107.931 137.479 102.798C137.498 102.775 137.514 102.747 137.53 102.723C138.818 102.119 139.996 101.113 140.986 100.139C144.682 96.4667 148.543 91.0663 146.622 85.5872C146.614 85.5676 146.599 85.548 146.591 85.5283L155.84 71.7541C162.081 70.8351 166.516 69.0755 171.213 66.7268L171.26 66.7032C172.58 66.0473 174.116 65.2382 175.526 64.2052C175.753 64.0403 175.965 63.8557 176.166 63.6514C177.462 63.2037 179.104 62.587 180.663 61.7426C182.474 60.8785 183.542 58.8637 183.271 57.0177C184.402 56.35 185.235 55.1324 185.459 53.8167C185.651 52.6737 185.376 51.5858 184.681 50.7335H184.677ZM93.7603 103.827C93.6856 104.106 93.615 104.381 93.556 104.664C93.34 105.877 92.9276 107.115 92.9119 108.352L90.3707 108.831C90.791 103.285 91.1091 97.6647 91.1523 92.272C91.172 90.2375 91.1484 88.2344 91.0816 86.2785C91.2152 86.5731 91.3801 86.8637 91.5883 87.1347C92.0007 87.6492 92.4681 88.0695 93.0337 88.3483C93.0363 88.3929 93.0389 88.4374 93.0415 88.4819C92.1185 89.1731 91.4901 90.2572 91.3173 91.3608C91.2623 91.6672 91.2348 91.9735 91.2348 92.272C91.2348 94.1966 92.3463 95.8933 94.0156 96.5374C93.2654 97.6882 92.8137 99.0511 92.8137 100.473C92.8137 101.698 93.1515 102.857 93.7603 103.827ZM87.5625 157.066C88.3637 159.187 89.2003 161.245 90.0565 163.26C86.9616 165.381 78.6664 167.714 72.9124 167.137C72.5707 163.421 72.4883 160.251 72.7593 157.773C73.1834 153.893 74.1418 148.182 74.5463 145.833C75.1944 145.79 75.8424 145.743 76.4866 145.684C77.6217 145.593 78.8589 145.429 79.9939 145.311C80.2492 145.275 80.5202 145.232 80.7677 145.161C82.6176 144.674 84.0315 142.982 84.2161 141.085L84.3693 139.93C84.4125 139.6 84.4636 139.239 84.5107 138.869L85.8775 138.614C85.2766 141.968 84.5853 149.179 87.5625 157.066ZM83.8705 117.385L82.7708 116.934C82.4134 116.792 82.056 116.655 81.6985 116.517L92.3306 114.518V120.563L86.6709 120.952C86.4156 119.392 85.3316 117.998 83.8705 117.385ZM77.9202 115.229C77.5078 115.107 77.0914 114.993 76.6712 114.887V114.204L92.3306 111.258V112.519L77.9202 115.229ZM84.4439 104.636L80.0175 94.5461C79.0003 87.7906 77.441 82.0799 75.7246 77.2999L81.0151 79.5819C81.188 79.6604 81.3725 79.6958 81.5571 79.6958C81.946 79.6958 82.3309 79.5308 82.598 79.2245C84.4557 77.08 85.8382 74.7745 86.6709 72.575C87.3425 75.3322 87.7864 78.4232 88.0574 81.7146C87.645 90.4614 85.5594 100.045 84.4439 104.636ZM88.3362 95.7087C88.2066 100.28 87.916 104.911 87.5703 109.357L87.3229 109.404C87.3111 108.367 86.7298 107.464 85.8775 106.997C86.341 105.206 87.3975 100.929 88.3362 95.7087ZM85.3591 109.436V109.774L83.733 110.08V109.436C83.733 109.11 83.9255 108.815 84.2279 108.686C84.33 108.642 84.44 108.619 84.5461 108.619C84.9388 108.619 85.3591 108.933 85.3591 109.436ZM83.3167 106.954C82.3741 107.417 81.7692 108.375 81.7692 109.436V110.449L81.2076 110.555C81.1919 107.264 81.0466 104.153 80.7952 101.211L83.3167 106.954ZM91.4901 76.6715C91.5569 77.838 91.8632 79.0163 92.3895 80.0689C91.7022 80.7955 91.1798 81.6949 90.8931 82.6533C90.1861 72.52 87.9513 64.0874 82.8022 59.8848L82.7276 57.8189C89.5734 62.6224 92.8373 68.8359 94.0116 71.5499C92.2521 72.4689 91.3448 74.7195 91.4901 76.6715ZM67.2959 33.6012C69.0437 30.3648 70.277 27.965 69.6564 24.4341C68.7609 19.3517 69.7821 18.794 71.9816 18.0949C75.6146 16.9441 82.3977 17.2937 82.4644 17.2976C82.6255 17.3055 82.7904 17.2858 82.9475 17.2348C86.5609 16.1075 89.3064 16.0486 90.8892 17.058C91.9379 17.7296 92.5623 18.9354 92.798 20.7382C92.8608 21.3902 93.0415 23.244 93.2183 25.0822C93.3989 26.9242 93.5717 28.7466 93.6307 29.3436C93.6582 29.5557 93.6896 29.7678 93.7171 29.9838L92.6841 30.1252C92.4053 29.379 91.9536 28.7506 91.3409 28.2792C90.355 27.5173 89.0079 27.207 87.5468 27.4112C85.3041 27.7254 83.7645 29.0569 83.3364 30.9029C83.0379 30.8597 82.6883 30.844 82.2838 30.899C81.891 30.954 81.565 31.06 81.2901 31.1818C81.0112 30.6515 80.6381 30.1959 80.1668 29.8346C79.1809 29.0726 77.8298 28.7663 76.3727 28.9705C73.914 29.3122 72.3037 30.8754 72.068 33.0002L67.2959 33.6758V33.6012ZM88.568 35.9106C87.8256 36.0127 87.0519 35.7889 86.3881 35.2743C85.5319 34.6145 84.9428 33.558 84.8092 32.4425C84.5421 30.2234 86.1603 29.1904 87.7628 28.9705C88.8036 28.8252 89.7345 29.0216 90.3825 29.5243C90.9599 29.9681 91.3055 30.628 91.4076 31.492C91.6629 33.6012 90.3354 35.6632 88.568 35.9106ZM77.3899 37.466C76.6515 37.572 75.8778 37.3442 75.2101 36.8297C74.3578 36.1738 73.7687 35.1133 73.6351 33.9979C73.368 31.7788 74.9862 30.7497 76.5887 30.5258C76.8126 30.4944 77.0286 30.4787 77.2407 30.4787C78.0144 30.4787 78.6978 30.6829 79.2084 31.0796C79.7858 31.5235 80.1314 32.1872 80.2335 33.0513C80.4849 35.1565 79.1574 37.2224 77.3899 37.466ZM59.2365 41.1933C59.0597 40.1682 58.8555 37.6898 60.8036 36.9082C61.4909 36.6333 62.0879 36.6176 62.6338 36.8611C63.7493 37.3599 64.4955 38.8446 64.688 39.3709C64.9119 40.0032 65.5639 40.3842 66.2237 40.2624C66.8875 40.1446 67.3666 39.5672 67.3588 38.8956L67.3156 35.2586L72.1387 34.5752C72.4018 35.9695 73.156 37.2303 74.2518 38.0747C75.0923 38.7228 76.0624 39.0606 77.0364 39.0606C77.225 39.0606 77.4174 39.0488 77.6099 39.0213C80.2335 38.656 82.1502 35.836 81.7928 32.8628C81.7849 32.8039 81.7732 32.7489 81.7653 32.6939C81.9342 32.5996 82.1738 32.5014 82.4998 32.4543C82.8101 32.4111 83.0575 32.4386 83.2382 32.4779C83.2421 32.5289 83.2421 32.58 83.25 32.6311C83.4345 34.1785 84.2279 35.5964 85.4258 36.5194C86.2664 37.1635 87.2365 37.5052 88.2105 37.5052C88.403 37.5052 88.5915 37.4935 88.784 37.466C91.3016 37.1164 93.1633 34.5045 92.9944 31.6688L93.9331 31.5392C94.373 34.7598 94.7658 38.0158 94.483 41.2365C94.2434 43.9387 93.7485 46.6134 92.366 48.8757C89.1375 53.7303 82.7551 56.2518 77.1386 54.4333C75.0844 53.8167 73.207 52.7798 71.0468 51.9432C70.7601 51.8254 70.4145 51.8686 70.1631 52.0885C69.8096 52.3949 69.7743 52.929 70.0806 53.2825C71.7027 55.1363 73.9415 56.3735 76.353 57.0766C77.5392 57.4576 78.7528 57.6814 79.9743 57.76L80.0804 60.6311C80.0961 61.0513 80.3042 61.4402 80.642 61.6876C82.2366 62.8541 83.5288 64.5312 84.5657 66.6011C84.5736 66.6325 84.5775 66.6639 84.5893 66.6953C85.3355 68.6552 84.3693 72.6221 81.1605 76.6519L74.346 73.7101C72.1858 68.4628 69.951 64.5587 68.3643 61.7858C67.2095 59.767 66.2119 58.0231 66.1491 57.2965L65.988 48.8443C65.9723 48.1138 65.395 47.5246 64.6644 47.4971C62.0526 47.3911 59.747 44.1547 59.2365 41.1933ZM37.8741 86.6163C38.5811 76.4633 45.6115 70.6073 48.3216 68.7181C49.7434 67.7283 51.444 66.6129 53.2468 65.4306C55.7173 63.8085 57.8736 62.3789 59.6842 61.1024C59.8452 68.1721 64.6134 78.0933 66.2001 81.2158C66.1451 81.3022 66.0902 81.3886 66.047 81.4828C65.5442 82.3901 65.395 83.4152 65.3321 84.3539C65.1947 88.203 66.0823 91.9853 67.2135 95.6184C67.2606 95.7558 67.3116 95.9051 67.3627 96.0622C68.4978 99.3771 71.2707 106.553 75.1473 106.023C76.1527 105.822 75.9799 104.353 74.9509 104.385C74.2675 104.31 73.6901 103.619 73.2384 103.038C72.6886 102.295 72.2094 101.431 71.7813 100.54C69.9235 96.6356 67.1153 86.8833 68.5017 82.8575C68.5135 82.8418 68.5214 82.83 68.5292 82.8143C69.1891 83.1639 69.6682 83.9926 70.0885 84.6721C72.0169 88.1009 73.2149 92.1817 74.0907 96.0543C74.4364 97.916 74.9195 99.9427 74.7074 101.8C74.5935 102.197 74.7898 102.633 75.1865 102.794C77.1032 103.407 76.7222 98.6584 76.4473 96.5021C76.3962 96.1211 76.353 95.8226 76.3216 95.6459C75.595 91.3451 74.5503 87.229 72.4765 83.3013C71.8363 82.2134 71.1175 81.0979 69.9667 80.4106C69.9392 80.3949 69.9117 80.3792 69.8842 80.3635L71.3924 78.1915C71.6635 77.7987 71.7106 77.2921 71.5181 76.8561C71.3257 76.4162 70.9211 76.1099 70.4498 76.047L66.5458 75.505C64.2128 70.1634 61.7344 62.9995 62.5906 58.9265C62.9245 58.6594 63.2308 58.4002 63.5176 58.1488C63.8161 59.3742 64.6841 60.8864 65.9763 63.1487C67.6926 66.1415 70.1788 70.4973 72.4843 76.4908C74.5188 81.7735 76.4041 88.3326 77.496 96.3607C78.1008 100.803 78.4582 105.693 78.4622 111.07L75.0412 111.714C74.3932 111.836 73.9218 112.401 73.9218 113.065V113.249C73.3484 112.268 72.504 111.458 71.4357 111.074C69.7075 106.199 68.2189 101.231 66.5497 96.3371C65.9409 94.5501 65.3046 92.7709 64.6252 91.0113C64.252 90.1551 62.9952 90.4693 63.0109 91.3608C63.2976 95.0214 64.4916 98.7016 65.5717 102.193C66.7029 105.708 67.8733 109.196 69.083 112.68C69.2323 113.1 69.5897 113.45 70.0571 113.556C70.5755 113.646 70.98 113.831 71.3139 114.271C71.6595 114.722 71.903 115.343 72.013 115.916C72.1348 116.462 72.5864 116.902 73.1756 116.981C74.5974 117.173 76.0467 117.531 77.4803 117.967C78.9138 118.403 80.3396 118.917 81.7457 119.483L82.7943 119.919C83.5995 120.249 84.0983 121.14 83.9805 122C83.6349 124.589 82.6176 132.251 82.2563 134.957L81.6436 139.569C81.6278 139.69 81.4707 140.869 81.455 140.951C81.3529 141.572 80.9287 142.125 80.3553 142.392C80.1393 142.495 79.9036 142.553 79.664 142.581C78.5604 142.703 77.3389 142.856 76.2391 142.946C73.969 143.15 71.7106 143.272 69.4483 143.194C68.7924 143.139 68.5096 143.249 68.1286 142.923C67.889 142.711 67.7712 142.392 67.8301 142.082L68.3014 139.871C69.5936 133.811 71.0036 127.77 71.6752 121.576C71.7774 120.602 70.3791 120.292 70.0649 121.226C68.0422 127.471 66.7775 133.866 65.4107 140.252C59.1461 139.698 54.1855 134.965 50.2815 125.822C47.6028 119.573 45.2345 113.607 39.7044 98.3284C38.2904 94.4205 37.7563 90.9092 37.823 87.7828C37.8427 87.4725 37.8623 87.1583 37.8819 86.8519C37.8859 86.7734 37.8819 86.6948 37.8741 86.6163ZM33.7619 187.376C34.8852 192.344 36.3895 197.536 38.3061 203.102L6.68482 194.63L33.7619 187.376ZM54.8807 337.501L2.74541 323.531V196.421L39.4176 206.248C43.0389 216.22 47.9406 227.422 54.3308 240.677C54.4801 240.995 54.6686 241.298 54.8807 241.592V337.501ZM56.8052 239.483C50.3286 226.047 45.3994 214.751 41.7978 204.728C41.7821 204.677 41.7664 204.63 41.7467 204.579C34.0996 183.244 32.4932 167.651 34.8773 149.356C35.2897 146.206 35.6079 137.679 36.0085 126.882C36.3148 118.646 36.6762 109.008 37.1632 99.381C42.6815 114.632 45.0656 120.626 47.7521 126.902C52.096 137.074 57.7989 142.349 65.1436 142.993C65.5049 144.619 67.0289 145.939 68.7452 145.916L69.3501 145.943C70.1435 145.971 70.9408 145.967 71.7381 145.951C71.2864 148.582 70.4302 153.767 70.0256 157.475C69.7114 160.35 69.8371 164.042 70.277 168.374C70.277 168.433 70.2849 168.492 70.2927 168.547C71.2314 177.706 73.5526 189.693 76.1095 202.905C78.4386 214.944 81.0701 228.537 83.03 241.97C70.5205 245.461 58.7808 243.588 56.8052 239.483ZM80.1864 331.457L57.6301 337.501V243.988C59.7313 245.202 62.6181 246.019 66.1609 246.365C66.314 246.38 66.4711 246.392 66.6243 246.404C70.4066 265.021 73.4112 283.818 76.3255 302.624C76.9108 306.335 77.822 312.494 78.4622 316.131L78.5486 316.591C78.6428 317.305 79.0788 318.056 79.558 318.491C80.2375 319.1 81.0191 319.528 81.8439 319.835C80.5713 323.134 80.2296 327.847 80.1864 331.457ZM121.438 345.243C121.199 347.069 120.346 348.377 119.097 348.828C103.721 354.398 91.2427 343.463 87.912 337.619C87.6489 337.159 87.1462 336.896 86.6238 336.928C86.0975 336.967 85.6379 337.301 85.4416 337.792L85.3669 337.976C84.7346 337.556 83.9098 336.924 83.03 336.02C82.975 335.105 82.9318 333.876 82.9318 332.49V332.293C84.495 334.084 86.718 335.49 88.1163 336.94C88.7133 337.635 89.3064 338.436 89.9387 339.108C95.8458 345.561 104.754 350.007 113.65 348.624C115.606 348.326 117.518 347.741 119.251 346.833C119.549 346.676 119.702 346.33 119.604 345.997C119.486 345.62 119.082 345.407 118.705 345.529C115.24 346.641 111.619 347.069 108.029 346.488C100.826 345.408 94.2905 341.095 89.9191 335.313C88.5719 333.829 86.9458 332.863 85.5712 331.559C84.4754 330.541 83.6466 329.351 83.0811 327.992C83.246 325.683 83.572 323.37 84.1494 321.551C84.9467 323.256 86.4078 324.976 87.7981 325.938C88.9254 326.716 89.8955 326.971 90.6771 326.971C91.2152 326.971 91.6668 326.853 92.0243 326.7C92.8294 326.355 93.827 325.824 94.8796 325.259C97.2441 323.998 102.161 321.374 103.057 322.737C103.901 324.041 104.628 325.149 105.276 326.099C105.924 327.054 106.498 327.855 107.04 328.558C107.079 328.617 107.118 328.672 107.165 328.723C109.373 331.547 111.14 332.764 115.665 335.875C116.438 336.409 117.299 336.998 118.261 337.666C120.884 339.492 121.749 342.874 121.438 345.243ZM86.8241 320.754C91.7375 321.06 96.5607 320.616 101.305 319.191C101.431 319.147 101.561 319.104 101.694 319.057C101.733 319.242 101.777 319.43 101.824 319.619C99.3414 319.764 96.2582 321.41 93.5875 322.835C92.5859 323.37 91.6394 323.872 90.9442 324.171C90.6103 324.312 90.0173 324.128 89.3613 323.676C88.3048 322.945 87.374 321.763 86.8241 320.754ZM107.157 313.755C107.157 313.755 107.153 313.731 107.153 313.723C107.346 313.782 107.55 313.841 107.754 313.896C107.723 315.232 107.424 316.206 107.083 317.297C106.655 318.68 106.187 320.18 106.175 322.494C105.916 322.097 105.645 321.681 105.359 321.233C104.966 320.632 104.471 319.147 104.278 317.946C105.897 317.046 107.256 315.738 107.157 313.755ZM133.414 322.274C138.716 326.41 143.229 328.181 146.524 329.477C149.591 330.679 151.084 331.319 151.492 332.651C152.062 334.512 152.247 336.767 151.449 338.361C151.076 339.115 150.479 339.72 149.599 340.07C140.479 343.687 132.565 340.172 125.578 337.069C123.669 336.221 121.862 335.42 120.095 334.787C119.742 334.661 119.361 334.693 119.031 334.854C118.379 334.406 117.778 333.994 117.224 333.609C116.423 333.059 115.712 332.572 115.079 332.128H115.142C117.208 332.175 119.07 332.568 120.802 333.562C127.86 337.238 136.831 340.734 144.914 339.968C146.713 339.775 148.566 339.304 150.137 338.271C150.212 338.22 150.275 338.157 150.326 338.086C150.459 337.898 150.495 337.647 150.404 337.415C150.259 337.046 149.835 336.869 149.47 337.022C147.977 337.619 146.387 337.914 144.753 337.996C139.737 338.134 134.792 336.775 130.059 335.09C127.283 334.064 124.561 332.863 121.965 331.441C121.603 331.244 121.081 330.966 120.708 330.812C118.995 330.047 117.047 329.724 115.209 329.709C113.956 329.622 112.684 329.858 111.584 329.457C110.818 328.774 110.158 328.075 109.463 327.207C108.587 322.894 108.937 320.754 109.451 318.975C111.384 320.785 113.245 321.437 114.997 321.437C117.546 321.437 119.855 320.062 121.788 318.912C124.023 317.584 125.971 316.426 127.895 316.987C129.16 318.759 130.943 320.345 133.414 322.274ZM110.303 315.884C110.394 315.428 110.461 314.941 110.492 314.403C111.721 314.552 113.045 314.623 114.416 314.623C118.379 314.623 122.695 314.034 125.994 313.005C126.1 313.389 126.226 313.755 126.36 314.112C124.199 314.281 122.208 315.463 120.382 316.551C116.709 318.735 114.023 320.334 110.303 315.884ZM125.755 273.693C127.44 289.784 129.03 304.984 129.282 307.761C129.325 308.213 128.673 308.849 127.585 309.419C127.247 309.599 126.874 309.768 126.473 309.925C126.47 309.929 126.462 309.929 126.454 309.933C122.016 311.697 114.184 312.325 109.565 311.512C109.451 311.473 109.329 311.453 109.208 311.445C108.226 311.249 107.413 310.982 106.831 310.644C105.296 295.817 100.681 251.211 99.6124 240.921C98.7876 231.176 95.9205 221.699 93.4068 212.304C90.8617 203.251 88.0888 193.283 84.8956 184.473C84.7542 184.108 84.3654 183.884 83.9648 183.962C83.517 184.049 83.2264 184.485 83.3128 184.933C83.7802 187.321 84.4007 189.665 85.0213 192.006C86.6945 198.471 88.9371 206.59 90.7596 213.035C93.2379 222.335 96.054 231.561 96.8749 241.176C97.9982 251.989 103.403 304.25 104.412 313.947C104.416 313.998 104.42 314.061 104.412 314.112C104.31 314.58 103.925 314.882 103.414 315.247C99.1215 317.816 91.6001 318.358 86.6238 317.985C85.4769 317.883 84.3418 317.714 83.3128 317.415C82.6294 317.242 81.5296 316.759 81.2901 316.272C81.2783 316.253 81.2861 316.237 81.2744 316.221L81.2626 316.17L81.2429 316.06L81.1644 315.628C77.4724 292.585 74.1182 269.443 69.4601 246.537C69.6407 246.541 69.8175 246.545 69.9981 246.545C74.8095 246.545 80.0804 245.756 84.9624 244.271C85.6105 244.075 86.0189 243.431 85.9247 242.759C83.9373 228.883 81.2115 214.802 78.8078 202.383C76.408 189.995 74.2243 178.696 73.2031 169.921C73.7294 169.957 74.2714 169.98 74.8252 169.98C80.5713 169.98 87.5507 168.056 91.168 165.809C93.4186 170.876 95.7909 175.648 98.116 180.314C105.335 194.826 112.153 208.534 115.398 229.841C115.464 230.273 115.735 230.65 116.124 230.854C116.324 230.956 116.54 231.008 116.757 231.008C116.973 231.008 117.181 230.96 117.373 230.862C117.452 230.823 119.101 229.986 120.916 228.423C121.289 230.619 121.505 232.473 121.709 234.625C122.114 238.937 123.964 256.604 125.755 273.693ZM108.866 183.157C115.629 195.588 121.47 206.326 122.97 218.054C123.547 222.555 119.989 225.815 117.789 227.374C114.349 206.77 107.35 192.705 100.575 179.088C96.9927 171.893 93.289 164.45 90.1351 156.092C87.0401 147.895 88.3048 140.311 88.7918 138.076L95.2331 136.882C94.699 140.939 94.1962 144.172 94.1884 144.207C94.1373 144.529 94.208 144.863 94.3769 145.138C94.4751 145.299 96.7688 149.156 94.7815 153.319C94.6165 153.669 94.6047 154.073 94.75 154.431C99.2197 165.424 104.345 174.846 108.866 183.157ZM106.309 122.354C107.016 122.307 107.692 122.063 108.257 121.651C112.043 118.893 114.907 118.399 117.939 117.872C120.013 117.511 122.153 117.142 124.529 116.007C125.857 115.374 127.004 115.484 127.448 116.286C127.801 116.922 127.636 117.947 126.45 118.701C125.586 119.251 124.478 119.616 123.406 119.966C121.336 120.645 119.196 121.344 119.105 123.505C119.09 123.964 119.231 124.659 120.02 125.366C122.632 127.711 131.579 129.29 140.739 127.9H140.743C141.65 127.766 142.553 127.903 143.225 128.32C144.462 129.105 144.521 130.445 143.115 130.794C141.858 131.073 140.566 131.152 139.274 131.273C135.047 131.627 130.558 131.576 126.316 131.87C126.053 131.894 125.829 132.09 125.782 132.361C125.727 132.687 125.943 132.994 126.269 133.049C127.361 133.237 128.453 133.308 129.549 133.363C133.948 133.606 138.358 133.477 142.742 132.911C143.417 132.829 144.054 132.664 144.662 132.306C145.11 132.071 145.464 131.721 145.719 131.309C146.453 131.47 146.995 132.004 147.07 132.526C147.156 133.155 146.461 133.697 145.204 133.979C134.325 136.438 122.385 135.613 109.714 131.525C109.557 131.474 109.392 131.466 109.231 131.493L84.8917 136.002C85.4376 131.902 86.1014 126.878 86.5138 123.799C86.5177 123.772 86.5217 123.744 86.5256 123.721L106.309 122.354ZM94.9032 108.941C95.2253 108.254 95.3824 107.488 95.5788 106.749C95.6612 106.427 95.7319 106.105 95.8066 105.779C96.6235 106.231 97.5426 106.47 98.5048 106.47C98.7405 106.47 98.9722 106.459 99.2118 106.431C99.4043 106.408 99.5928 106.372 99.7813 106.333C99.0626 110.752 98.065 117.845 97.739 120.19L95.08 120.374V109.605C95.08 109.369 95.0132 109.141 94.9032 108.941ZM98.8898 103.698C98.0335 103.8 97.2284 103.556 96.6196 103.014C95.9362 102.409 95.5631 101.506 95.5631 100.473C95.5631 98.4188 97.1105 96.4982 98.9879 96.1486C99.0822 96.2507 99.1686 96.3411 99.2275 96.4039C100.025 97.2208 101.046 97.5272 102.024 97.4408C102.362 97.975 102.542 98.6269 102.542 99.3339C102.542 101.471 100.869 103.466 98.8898 103.698ZM102.539 93.2461C102.487 93.6074 102.421 94.1259 102.393 94.1494C102.275 94.5344 101.729 94.7268 101.411 94.5265C101.372 94.499 101.325 94.4715 101.29 94.4322C101.27 94.4165 101.27 94.4283 101.227 94.3812L100.826 93.9609L100.021 93.1165L99.9856 93.0811C99.5103 92.5823 98.7327 92.492 98.1514 92.8965C97.1498 93.5564 96.1247 94.1534 95.0642 93.9334C93.721 93.5485 93.6699 91.0859 94.9739 90.5439C95.5041 90.3318 95.8655 89.8055 95.838 89.2006L95.7516 87.2565C95.7241 86.6398 95.2803 86.0978 94.6479 85.9761L94.424 85.9368C94.1845 85.9014 93.7956 85.5715 93.6582 85.3241C92.9276 84.24 93.1672 83.0461 93.6896 81.9267C93.8624 82.1034 94.047 82.2762 94.2394 82.4294C94.9268 82.9361 95.8733 82.1898 95.5238 81.3964C95.2017 80.5363 94.7815 79.8097 94.5576 79.0006C94.1766 77.5945 93.9763 75.8114 94.6715 74.5938C94.8247 74.3424 95.0053 74.1696 95.1899 74.0557C95.2567 74.0164 95.3274 73.9889 95.406 73.9693C94.915 75.8978 94.8718 78.1522 95.9833 79.7508C96.2425 80.0689 96.8081 79.8961 96.8356 79.4798C96.8906 78.9338 96.757 78.3682 96.7374 77.8223C96.5764 76.2945 96.7649 74.7627 97.2598 73.3055C99.3689 72.2608 100.347 73.6158 100.626 76.0274C100.693 76.5655 101.062 77.0407 101.608 77.2214C102.256 77.457 102.495 77.6142 102.57 78.2976C102.625 78.9103 102.381 79.7429 102.106 80.3517C101.863 80.8152 101.698 81.2747 101.902 81.8049C102.13 82.4058 102.299 83.156 102.429 83.9101C102.916 86.9776 102.912 90.159 102.539 93.2461ZM139.03 98.1242C138.472 98.6662 137.887 99.1807 137.29 99.6521C135.593 100.866 133.26 100.96 131.139 100.815C126.713 100.406 121.984 98.4934 119.84 94.3812C119.667 94.0434 119.282 93.8588 118.897 93.9531C118.453 94.063 118.182 94.5147 118.292 94.9585C118.732 96.7338 119.848 98.3127 121.187 99.5146C124.274 102.252 128.551 103.709 132.73 103.623C127.322 108.14 120.778 109.051 114.333 106.05C109.522 103.811 106.447 102.071 105.025 101.227C105.198 100.618 105.292 99.982 105.292 99.3339C105.292 98.1831 105.005 97.1069 104.475 96.184C104.915 95.6655 105.221 95.0135 105.296 94.2555C105.83 90.6656 105.857 87.009 105.26 83.4192C105.139 82.7515 105.001 82.0838 104.781 81.3847C105.826 78.9927 105.7 76.0902 103.297 74.8648C102.986 73.278 102.354 71.7266 100.834 70.7565C99.5692 69.9278 97.9707 70.0456 96.5921 70.568C95.6259 68.2782 93.3439 63.7771 88.9254 59.4214L98.2888 63.7693C99.0626 64.1306 99.7813 64.598 100.418 65.1596L115.024 77.9833C115.335 78.2583 115.751 78.3761 116.163 78.3054C117.597 78.0619 118.752 78.4468 119.588 78.9535C118.017 80.7327 117.181 83.1639 117.762 85.4694C117.97 86.1999 119.054 86.2667 119.345 85.5558C119.584 85.0334 119.698 84.5032 119.855 83.9769C120.35 82.6769 121.049 81.3336 122.082 80.4145C123.064 79.5269 124.349 79.0359 125.641 79.1734C124.384 81.2786 124.227 83.808 125.232 86.4356C126.827 90.5949 130.982 93.9649 135.114 94.4479C135.46 94.4872 135.802 94.5069 136.139 94.5069C138.967 94.5069 141.489 93.089 143.24 90.5085L144.321 88.9021C144.089 92.3427 141.316 95.8187 139.03 98.1242ZM180.074 58.7105C179.897 58.8872 179.716 59.0286 179.5 59.1622C178.609 59.657 177.682 60.0852 176.739 60.474C176.739 60.4426 176.739 60.4151 176.739 60.3836C176.767 59.3232 176.181 58.3374 175.313 57.7953C176.507 57.4615 177.694 57.0962 178.876 56.6878C180.451 56.295 180.969 57.5715 180.07 58.7105H180.074ZM182.458 53.9973C182.155 54.4961 181.625 54.775 181.099 55.046C179.599 54.1859 177.992 54.8732 177.108 55.1795C172.878 56.6053 168.362 57.4772 164.069 58.8047C163.817 58.8872 163.645 59.1347 163.66 59.4096C163.684 59.7356 163.967 59.983 164.293 59.9634C165.447 59.8848 166.575 59.6963 167.702 59.496C168.055 59.4371 168.409 59.3743 168.762 59.3114C167.191 60.0105 165.604 60.6782 164.022 61.3577C163.11 61.7387 162.195 62.1118 161.315 62.5635C161.084 62.6774 160.946 62.9327 160.993 63.1998C161.052 63.5257 161.363 63.7378 161.685 63.6829C165.121 62.9248 168.421 61.668 171.606 60.1794C172.435 59.8063 173.035 59.335 173.872 59.3782C174.783 59.441 174.948 60.5211 174.473 61.287C174.324 61.5502 174.1 61.7426 173.856 61.9351C172.651 62.8109 171.362 63.5572 170.027 64.2445C167.631 65.4464 165.369 66.4597 162.922 67.2766C160.475 68.0975 157.836 68.722 154.678 69.1423C154.399 69.1776 154.151 69.3347 153.994 69.5664L140.962 88.9689C139.568 91.0231 137.655 91.9735 135.432 91.7143C132.31 91.353 129.03 88.6586 127.801 85.4498C127.22 83.9258 126.882 81.7028 128.575 79.79L143.747 63.62C143.814 64.0521 143.904 64.4841 144.042 64.9044C144.281 65.4778 145.165 65.3207 145.2 64.704C145.554 59.9909 146.599 55.9572 150.228 52.6737C152.4 50.7924 154.686 49.0525 156.673 46.9237C157.698 45.8279 158.707 44.6417 159.411 43.2671C159.827 42.3362 160.235 41.0322 161.39 41.0283C162.816 41.048 163.279 42.729 163.024 44.0447C162.498 46.6566 160.714 48.8482 159.088 51.0006C159.085 51.0084 159.085 51.0123 159.077 51.0202C159.041 51.0673 159.01 51.1223 158.982 51.1734C158.979 51.1852 158.971 51.193 158.967 51.2009C158.959 51.2166 158.955 51.2362 158.947 51.2559C158.841 51.5111 158.857 51.7625 158.951 51.9825C159.081 52.3006 159.371 52.5284 159.709 52.5795C159.846 52.607 159.984 52.603 160.125 52.5638C161.457 52.3359 173.876 50.164 180.49 47.5285C181.507 47.124 182.281 47.2182 182.564 47.7838C182.855 48.3612 182.623 49.2881 181.731 49.838C181.539 49.9558 181.338 50.0736 181.13 50.1875C180.961 50.2111 180.793 50.2386 180.624 50.2739C179.551 50.596 178.526 51.0163 177.45 51.3187C173.762 52.4341 169.937 53.2157 166.268 54.4254C166.025 54.5118 165.86 54.7475 165.871 55.0185C165.891 55.3484 166.17 55.5998 166.496 55.5802C167.49 55.5291 168.452 55.372 169.414 55.2031C173.279 54.5629 177.101 53.6085 180.808 52.3163C182.116 51.8293 183.2 52.5205 182.458 53.9973Z" fill="#262626"/>
<path d="M178.88 56.6878C177.698 57.0963 176.511 57.4615 175.317 57.7954C176.185 58.3374 176.771 59.3232 176.743 60.3837C176.743 60.4151 176.743 60.4426 176.743 60.474C177.686 60.0852 178.613 59.6571 179.504 59.1622C179.72 59.0287 179.901 58.8873 180.078 58.7105C180.977 57.5715 180.459 56.295 178.884 56.6878H178.88Z" fill="#FFE8D9"/>
</svg>
