<svg width="76" height="38" viewBox="0 0 76 38" fill="none" xmlns="http://www.w3.org/2000/svg">
<path d="M0.0318404 19.3633C0.0396956 19.4143 0.0514852 19.4654 0.0632681 19.5165C0.0711233 19.5439 0.0789815 19.5754 0.0907643 19.6029C0.11433 19.6814 0.149679 19.756 0.188955 19.8267V19.8346H0.192874C0.228223 19.8974 0.267503 19.9524 0.306779 20.0035C0.318562 20.0192 0.330343 20.031 0.342126 20.0428C0.377475 20.086 0.412831 20.1213 0.44818 20.1567C0.46389 20.1724 0.479599 20.1842 0.495309 20.1999C0.534586 20.2313 0.573857 20.2588 0.613133 20.2863C0.628844 20.2981 0.648488 20.3098 0.668126 20.3216C0.71133 20.3491 0.754532 20.3727 0.801664 20.3962C0.817374 20.4041 0.833083 20.412 0.848793 20.4198C0.915563 20.4473 0.978405 20.4669 1.04517 20.4827C1.0491 20.4866 1.05303 20.4866 1.05696 20.4866C17.6551 24.6027 36.0443 30.176 57.2731 37.5168C57.4184 37.5678 57.5716 37.5953 57.7208 37.5953C58.0036 37.5953 58.2825 37.5089 58.5181 37.34C58.8834 37.0808 59.0955 36.6645 59.0955 36.2206V23.0867C63.4316 18.6563 74.806 15.1921 74.9238 15.1568C75.5247 14.9761 75.9254 14.4105 75.9018 13.7861C75.8743 13.1576 75.4265 12.6274 74.8138 12.4978C68.2154 11.0917 61.0671 10.314 53.5732 10.1451C55.9573 6.31963 59.4686 3.14611 59.5118 3.11076C59.9713 2.69836 60.097 2.03067 59.826 1.47687C59.5511 0.927005 58.9423 0.620649 58.3374 0.73455C58.2353 0.754188 47.9921 2.69444 35.8557 5.76191C19.5011 9.89377 7.675 13.9981 0.707392 17.9572C0.691682 17.969 0.675973 17.9808 0.660263 17.9886C0.613131 18.02 0.566006 18.0554 0.518874 18.0907C0.495308 18.1104 0.471737 18.13 0.452099 18.1496C0.408895 18.1889 0.373543 18.2282 0.338195 18.2714C0.318557 18.291 0.298925 18.3146 0.283214 18.3342C0.236083 18.401 0.192884 18.4678 0.153608 18.5424C0.153608 18.5463 0.149676 18.5503 0.149676 18.5581C0.114328 18.6249 0.0907653 18.6956 0.0671995 18.7702C0.0593443 18.7977 0.0554133 18.8213 0.0514857 18.8488C0.0397028 18.9037 0.0279132 18.9548 0.020058 19.0098C0.020058 19.0451 0.0161385 19.0766 0.0161385 19.1119C0.0161385 19.1394 0.012207 19.163 0.012207 19.1905C0.012207 19.214 0.0161303 19.2337 0.020058 19.2572C0.020058 19.2926 0.0239851 19.3279 0.0318404 19.3633ZM54.5276 4.30476C53.1451 5.88759 51.5819 7.92603 50.4233 10.1137C40.6239 10.1137 30.2981 11.127 19.8938 13.1262C32.8118 9.01006 47.4304 5.77762 54.5276 4.30476ZM69.2052 14.2574C65.0851 15.8677 59.4529 18.4913 56.6878 21.6413C56.4679 21.8927 56.3461 22.2147 56.3461 22.5486V34.2922C37.8509 27.9334 21.5042 22.9296 6.60669 19.0609C28.3775 13.028 50.6668 11.3234 69.2052 14.2574Z" fill="#262626"/>
<path d="M56.3463 22.5485C56.3463 22.2146 56.468 21.8926 56.688 21.6412C59.453 18.4912 65.0852 15.8676 69.2053 14.2573C50.6669 11.3233 28.3776 13.0279 6.60681 19.0607C21.5043 22.9295 37.8511 27.9333 56.3463 34.2921V22.5485ZM53.7108 22.301C53.5655 22.631 53.1963 22.7881 52.8625 22.6899C51.2403 22.2971 49.6261 21.9004 47.9686 21.6137C39.646 20.1919 31.1152 19.8934 22.6826 19.7049C19.3362 19.6224 15.8485 19.7049 12.51 19.6813C11.6656 19.6735 11.532 18.4441 12.3804 18.2752C22.6001 16.6217 43.9821 17.2226 53.3534 21.3623C53.7108 21.5234 53.8719 21.9436 53.7108 22.301Z" fill="#FFEFB6"/>
<path d="M53.3534 21.3625C43.9821 17.2228 22.6001 16.6219 12.3805 18.2754C11.5321 18.4443 11.6656 19.6736 12.5101 19.6815C15.8486 19.709 19.3363 19.6226 22.6826 19.705C31.1152 19.8936 39.646 20.1921 47.9687 21.6139C49.6261 21.9006 51.2404 22.2973 52.8625 22.69C53.1963 22.7882 53.5655 22.6311 53.7109 22.3012C53.8719 21.9438 53.7109 21.5235 53.3534 21.3625Z" fill="#262626"/>
<path d="M54.5276 4.30566C47.4304 5.77852 32.8118 9.01096 19.8938 13.1271C30.2981 11.128 40.6238 10.1146 50.4232 10.1146C51.5819 7.92694 53.1451 5.8885 54.5276 4.30566Z" fill="#FFEFB6"/>
</svg>
