<svg width="121" height="297" viewBox="0 0 121 297" fill="none" xmlns="http://www.w3.org/2000/svg">
<path d="M93.543 168.112L106.198 164.723L96.7008 162.178C96.0017 164.181 94.9883 166.152 93.543 168.112Z" fill="#FFEFB6"/>
<path d="M7.05273 164.722L11.9426 166.034C11.5459 165.233 11.4674 164.373 11.6088 163.501L7.05273 164.722Z" fill="#FFEFB6"/>
<path d="M50.0248 115.788C50.5826 115.549 51.2503 115.403 52.0358 115.403L50.1466 106.429L45.7712 106.26L48.6698 116.743C49.0194 116.362 49.4671 116.028 50.0248 115.788Z" fill="white"/>
<path d="M48.9605 84.9099C48.4264 83.8887 47.1813 81.3593 46.1209 78.1387L43.9175 87.7299L47.9944 87.8046L48.0454 86.8462C48.0847 86.0803 48.4303 85.3969 48.9605 84.9099Z" fill="white"/>
<path d="M47.8058 70.8176L47.0398 74.1482C48.1474 78.9713 50.237 83.1228 50.7947 84.1794H50.9596C51.2149 84.1912 51.4584 84.2344 51.6901 84.305C54.844 79.8786 58.0765 75.1262 58.968 73.4923L59.023 71.3478C59.0348 70.8215 59.3451 70.3541 59.8204 70.1342C61.5446 69.3369 63.3749 68.0211 64.9263 66.3833C63.6341 66.9253 62.1966 67.3691 60.6373 67.6833C58.8895 68.0408 57.0985 68.2136 55.3703 68.2136C52.9745 68.2136 50.7004 67.8797 48.8269 67.216C47.739 66.8311 46.8042 66.3362 46.0383 65.7549C46.4232 68.1272 47.4758 69.5686 47.5583 69.6746C47.8018 70.0006 47.8961 70.4209 47.8058 70.8176Z" fill="white"/>
<path d="M58.6029 87.9964L58.8699 77.3525C56.9964 80.2079 54.4435 83.8213 53.2495 85.5024C53.5166 85.9344 53.6737 86.445 53.6737 86.9949V87.9061L58.6029 87.9964Z" fill="white"/>
<path d="M50.889 86.1427C50.4255 86.1191 50.0328 86.4883 50.0053 86.9478L49.9581 87.8394L51.7098 87.8708V86.995C51.7098 86.5315 51.3485 86.1584 50.889 86.1427Z" fill="white"/>
<path d="M42.5505 103.381L49.5613 103.656L49.4435 103.106C49.1725 101.814 49.4514 100.451 50.2094 99.3666C50.9674 98.2826 52.1535 97.556 53.4654 97.3714L59.1172 96.5701L59.133 95.1091L42.6409 94.8105L42.5505 103.381Z" fill="white"/>
<path d="M52.46 100.946C52.134 101.414 52.0161 101.979 52.134 102.541L54.8833 115.573C55.3664 115.569 55.8613 115.553 56.3876 115.538C57.0278 115.514 57.6837 115.49 58.3789 115.49C60.7708 115.49 63.9169 115.754 67.3653 117.666C67.3967 116.472 67.9466 115.483 68.9128 114.948C72.6441 112.49 79.8473 107.832 84.0695 105.137C83.1583 102.125 82.1607 99.1633 81.006 96.2568L53.8503 100.094C53.2848 100.173 52.7899 100.475 52.46 100.946Z" fill="#D5E5F2"/>
<path d="M109.851 94.4773C109.591 93.2283 108.389 92.3917 107.133 92.5685L103.032 93.1497C104.242 96.6375 105.181 99.4339 105.534 100.585C107.781 107.984 106.72 113.428 102.376 116.77C86.9446 128.64 79.6 131.703 78.6534 132.069C78.6377 132.076 78.6219 132.08 78.6062 132.088C78.5866 132.096 78.5787 132.1 78.5669 132.104C78.292 132.21 77.9739 132.285 77.5968 132.285C76.9802 132.285 76.2182 132.088 75.307 131.542C72.8758 134.315 68.3198 138.832 60.0443 139.771C60.0246 139.775 60.005 139.775 59.9854 139.775L60.4842 142.151C60.7473 143.396 61.9453 144.236 63.206 144.056L116.488 136.53C117.054 136.452 117.549 136.149 117.875 135.682C118.205 135.215 118.322 134.645 118.205 134.083L109.851 94.4773Z" fill="#D5E5F2"/>
<path d="M42.6646 92.847L59.1566 93.1455L59.1802 90.7575L42.6881 90.4551L42.6646 92.847Z" fill="#D97249"/>
<path d="M120.895 133.518L112.541 93.9118C111.983 91.2489 109.434 89.4657 106.748 89.8467L102.109 90.5026C100.067 84.674 97.5688 77.7339 95.8014 73.1621C93.7944 67.9698 89.9531 63.8969 84.3798 61.0533L83.2644 60.4838C79.7963 58.7163 74.6668 56.0966 70.3347 53.9207C70.044 53.7754 69.7533 53.6301 69.4706 53.4887C68.8657 53.1862 68.4415 52.9702 68.1391 52.5421C68.8186 52.6953 69.5059 52.7778 70.1854 52.7778C71.3519 52.7778 72.5067 52.55 73.5789 52.0904C75.9747 51.0692 77.7029 49.0347 78.4413 46.364C80.1027 40.3468 76.2654 37.5936 74.1994 36.1129C74.1798 36.1011 74.1602 36.0854 74.1405 36.0736C80.1616 27.3346 79.1757 15.6106 71.5758 7.69255C66.9569 2.87728 61.8195 0.701377 58.8071 2.13496C54.8912 0.0415362 49.3886 0.61497 44.5027 3.69423C39.8013 6.65566 35.1824 12.5432 36.1133 20.2649C35.9208 21.9813 35.8187 23.6623 35.693 25.1587C34.6914 31.7414 33.1125 39.5534 36.9302 45.5824C40.0134 50.2091 45.4571 53.0723 51.0029 53.0095C50.7593 53.7165 49.9856 54.3763 47.5623 55.4525C43.7171 57.1571 41.388 58.0133 38.9215 58.9166C38.1713 59.1916 37.4133 59.4704 36.6003 59.7768C31.1487 61.8309 28.2776 66.5834 27.8103 74.3012C27.6846 76.3749 27.5667 78.5862 27.4371 80.9388C26.5612 97.1914 25.3594 119.449 19.6133 147.445C19.5269 147.795 19.5033 148.192 19.5819 148.616C17.5277 150.387 15.3125 151.62 13.1641 152.814C9.1501 155.045 5.0104 157.359 2.87377 162.995L1.38519 163.395C1.38519 163.395 1.34983 163.407 1.33019 163.415C1.3027 163.423 1.27129 163.435 1.2438 163.446C1.19274 163.466 1.14561 163.486 1.09455 163.513C1.07098 163.525 1.04346 163.541 1.0199 163.556C0.972765 163.584 0.925643 163.619 0.882439 163.651C0.862801 163.67 0.83927 163.686 0.819632 163.702C0.7725 163.749 0.72533 163.796 0.682126 163.847C0.670344 163.859 0.658578 163.871 0.650723 163.882C0.599664 163.949 0.556477 164.016 0.521128 164.091C0.509345 164.114 0.501459 164.138 0.489677 164.161C0.466111 164.216 0.44258 164.271 0.426869 164.33C0.422941 164.342 0.415071 164.354 0.411143 164.366C0.407216 164.385 0.407208 164.401 0.40328 164.417C0.391497 164.472 0.379736 164.527 0.375808 164.582C0.37188 164.617 0.367945 164.648 0.367945 164.68C0.367945 164.695 0.364014 164.707 0.364014 164.723V267.819C0.364014 268.44 0.780329 268.986 1.38126 269.147L38.3559 279.056C35.8422 281.252 34.1691 283.294 34.1298 285.517C34.1062 287.006 34.8329 288.372 36.2979 289.574C37.9553 290.941 40.0369 291.625 42.5231 291.625C44.3063 291.625 46.2976 291.267 48.4892 290.564C48.4657 291.35 48.6463 292.155 49.1333 292.952C55.9831 302.449 71.9725 291.738 79.109 286.809L82.9973 288.172C82.9973 288.172 83.013 288.176 83.0248 288.18C83.0719 288.196 83.123 288.211 83.178 288.219C83.1977 288.223 83.2173 288.231 83.2369 288.235C83.3076 288.243 83.3783 288.251 83.449 288.251C83.5236 288.251 83.5944 288.247 83.6651 288.235C83.6847 288.231 83.7004 288.223 83.72 288.219C83.7711 288.211 83.826 288.2 83.8771 288.184C83.8771 288.184 83.8797 288.183 83.8849 288.18L91.3867 285.67C91.7638 285.545 92.0662 285.262 92.2193 284.897C92.3175 284.665 94.1439 280.172 92.9106 274.229L111.865 269.147C112.466 268.986 112.883 268.44 112.883 267.819V164.723C112.883 164.723 112.883 164.695 112.883 164.68C112.883 164.648 112.879 164.617 112.875 164.582C112.871 164.527 112.859 164.472 112.847 164.417C112.843 164.401 112.843 164.385 112.839 164.366C112.835 164.354 112.828 164.342 112.824 164.33C112.808 164.271 112.784 164.216 112.761 164.161C112.749 164.138 112.741 164.114 112.729 164.091C112.694 164.02 112.651 163.949 112.6 163.882C112.588 163.871 112.576 163.859 112.568 163.847C112.525 163.796 112.478 163.749 112.431 163.702C112.411 163.686 112.388 163.67 112.368 163.651C112.325 163.619 112.278 163.584 112.231 163.556C112.207 163.541 112.18 163.525 112.156 163.513C112.109 163.486 112.058 163.466 112.007 163.446C111.979 163.435 111.952 163.423 111.92 163.415C111.901 163.407 111.885 163.399 111.869 163.395L97.447 159.531C98.3622 155.246 98.0362 150.792 97.4078 146.012C98.5822 144.657 99.3833 143.196 99.3951 141.723L116.877 139.256C118.185 139.072 119.371 138.345 120.129 137.265C120.891 136.181 121.17 134.814 120.899 133.518H120.895ZM71.4658 57.5695C75.1931 59.4508 79.1639 61.4775 82.0154 62.9346L83.1269 63.5002C88.0836 66.0296 91.481 69.6116 93.2366 74.1519C96.3355 82.1721 101.96 98.2832 102.903 101.386C104.811 107.666 104.089 111.983 100.703 114.591C90.4755 122.458 83.8457 126.381 80.4208 128.184C80.3187 125.69 79.1365 122.513 77.5419 119.866C76.2065 117.65 74.7454 116.213 73.355 115.396C77.6125 112.686 83.3391 109.006 86.5008 106.944C87.0192 106.614 87.2785 105.966 87.0899 105.345C85.5071 100.066 83.6336 94.7798 81.1788 89.8035C80.3698 88.1382 79.5331 86.4611 78.0917 85.161C77.8953 84.9882 77.6165 84.9018 77.3415 84.9568C76.8663 85.0511 76.5639 85.5145 76.6621 85.9858C77.0352 87.8515 77.915 89.3989 78.7005 91.0132C79.1247 91.8812 79.5214 92.7571 79.9063 93.6368L61.8706 96.182L61.9453 89.4225C61.9492 88.9433 61.7135 88.5231 61.3443 88.2717L61.7528 72.2509C68.3512 68.8614 71.5837 62.6636 71.4658 57.5695ZM84.7922 153.317C86.3162 153.317 87.899 152.83 89.6036 151.884C90.9861 151.118 93.0481 149.877 94.9216 148.364C96.0017 158.066 95.059 165.866 82.9973 174.169C70.6174 182.692 56.042 191.808 55.8967 191.898C55.3194 192.26 55.0916 192.99 55.3626 193.615L80.9314 252.156C81.7012 253.798 79.0619 256.869 75.0478 259.002C73.1665 259.999 71.3205 260.6 69.8398 260.773C69.6513 260.746 69.4588 260.761 69.2702 260.816C68.0841 260.863 67.2004 260.588 66.8273 259.964C66.8273 259.964 62.6797 253.02 58.5361 246.084C54.3885 239.148 50.2409 232.211 50.2409 232.211C43.4383 220.644 36.2939 209.188 29.9626 197.385C28.8039 195.044 27.8338 192.637 27.4332 190.178C26.5338 185.469 28.4073 180.858 31.5022 177.35C35.2492 173.053 39.1061 168.831 42.9473 164.605C46.5843 160.638 50.2409 156.687 53.4891 152.355C53.7208 152.048 53.7168 151.613 53.4537 151.31C53.1552 150.964 52.6289 150.929 52.2833 151.232C48.1946 154.794 44.5459 158.765 40.9128 162.747C36.6238 167.555 32.0914 172.178 28.0656 177.217C27.0169 178.678 26.1017 180.257 25.4694 181.965C23.2738 187.448 24.8645 193.658 27.441 198.634C37.7668 217.467 49.0076 235.719 60.0914 254.092C56.6233 255.734 53.3163 256.076 52.3697 254.779C52.3697 254.779 52.3671 254.777 52.3619 254.772C51.9848 254.253 21.9777 213.402 12.7596 198.866C7.98358 191.333 3.04656 183.544 10.7958 173.808C17.9048 164.876 29.7348 151.102 32.6845 147.677C36.3725 148.855 40.3708 146.652 42.5899 143.718C45.0133 140.529 46.9967 137.116 48.8584 133.604C49.2826 134.374 49.9306 135.026 50.7869 135.505C50.9047 136.373 51.2817 137.175 51.8944 137.85C52.6878 138.722 54.2392 139.743 57.1967 139.885L57.7937 142.716C58.3043 145.136 60.4606 146.829 62.8722 146.829C63.1078 146.829 63.3474 146.813 63.5909 146.782L74.4822 145.242C78.1153 150.741 81.2966 153.317 84.7922 153.317ZM77.5183 144.814L96.579 142.119C96.1274 144.016 92.9382 146.895 88.2682 149.48C85.3304 151.106 82.4631 151.844 77.5183 144.814ZM57.1535 258.024C58.591 257.709 60.0835 257.16 61.5171 256.457C62.503 258.094 63.4849 259.728 64.4668 261.37C64.4668 261.37 64.4668 261.374 64.4707 261.374C64.9302 262.148 65.5547 262.69 66.2892 263.043C67.0237 263.397 67.8681 263.562 68.7793 263.581C69.2192 264.708 69.5295 265.906 69.4863 267.077C66.2617 269.936 61.3326 272.65 58.0176 274.477L57.5228 274.751C54.4239 276.46 51.5488 275.8 50.457 275.435C49.5222 275.125 48.9173 274.736 48.5874 274.449C50.4098 272.957 51.8395 271.649 53.0453 270.376L53.4498 269.948C56.4309 266.822 59.2509 263.856 57.1535 258.024ZM71.5994 263.251C73.2136 262.874 74.8671 262.211 76.336 261.429C78.2331 260.42 80.0163 259.147 81.3674 257.749C83.3429 261.35 84.9454 263.986 86.159 265.985C86.3319 266.272 86.4968 266.543 86.6539 266.806C88.6374 270.608 76.8781 277.092 72.4477 279.531L71.9135 279.83C68.8146 281.538 65.9436 280.879 64.8517 280.513C63.9522 280.219 63.3553 279.846 63.0175 279.563C64.3647 278.455 65.6529 277.324 66.7487 276.22C70.6724 272.253 73.7006 269.084 71.5994 263.251ZM11.9426 166.035L7.05277 164.723L11.6088 163.501C11.4674 164.373 11.546 165.234 11.9426 166.035ZM59.1802 90.7579L59.1566 93.1459L42.6645 92.8474L42.6881 90.4555L59.1802 90.7579ZM43.9175 87.7297L46.1208 78.1384C47.1813 81.3591 48.4264 83.8885 48.9605 84.9097C48.4303 85.3967 48.0847 86.0801 48.0454 86.846L47.9943 87.8043L43.9175 87.7297ZM49.9581 87.8397L50.0053 86.9481C50.0328 86.4886 50.4255 86.1194 50.889 86.1429C51.3485 86.1587 51.7099 86.5318 51.7099 86.9952V87.8711L49.9581 87.8397ZM53.2495 85.5027C54.4435 83.8217 56.9964 80.2083 58.8699 77.3529L58.6029 87.9968L53.6737 87.9064V86.9952C53.6737 86.4454 53.5166 85.9348 53.2495 85.5027ZM81.006 96.2566C82.1608 99.163 83.1583 102.124 84.0695 105.137C79.8473 107.831 72.6441 112.489 68.9129 114.948C67.9467 115.482 67.3968 116.472 67.3654 117.666C63.9169 115.753 60.7709 115.49 58.379 115.49C57.6838 115.49 57.0279 115.514 56.3877 115.537C55.8614 115.553 55.3665 115.569 54.8834 115.573L52.134 102.541C52.0162 101.979 52.134 101.414 52.46 100.946C52.79 100.475 53.2848 100.172 53.8504 100.094L81.006 96.2566ZM59.1331 95.1097L59.1173 96.5708L53.4655 97.372C52.1537 97.5566 50.9676 98.2832 50.2095 99.3673C49.4515 100.451 49.1726 101.814 49.4436 103.106L49.5615 103.656L42.5507 103.381L42.641 94.8112L59.1331 95.1097ZM50.1467 106.429L52.0358 115.404C51.2503 115.404 50.5826 115.549 50.0249 115.789C49.4672 116.028 49.0194 116.362 48.6699 116.743L45.7713 106.26L50.1467 106.429ZM53.929 136C53.8111 135.867 53.7208 135.733 53.654 135.6C55.0012 135.768 56.3994 135.615 57.4913 135.203C58.0176 134.967 57.9312 134.146 57.3578 134.032C55.8653 133.773 54.2157 133.868 52.8096 133.369C52.0084 133.094 51.3839 132.615 51.1796 131.955C52.8292 132.442 54.7459 132.328 56.2188 131.806C56.7568 131.578 56.6704 130.741 56.0852 130.635C54.5456 130.376 52.8331 130.474 51.3996 129.924C50.4766 129.582 49.8678 128.954 49.8364 128.157C51.2739 128.636 52.9667 128.648 54.3335 128.385C54.7852 128.251 55.4961 128.255 55.6061 127.674C55.665 127.336 55.4175 127.018 55.0758 126.978C53.2259 126.755 50.6572 126.892 49.2944 125.592C48.4028 124.708 48.8898 123.42 49.7971 122.756C50.4059 124.037 52.4443 124.217 55.0405 124.319C55.3822 124.335 55.6885 124.347 55.9242 124.363C56.0185 124.371 56.1166 124.363 56.2109 124.343C57.4756 124.06 58.54 123.64 58.5871 123.62C59.0113 123.451 59.2627 123.012 59.192 122.56C59.1213 122.108 58.7482 121.763 58.2926 121.731C58.2533 121.727 54.0586 121.409 51.7688 120.631C50.6965 120.27 50.343 119.532 50.4726 118.998C50.6258 118.346 51.4664 118.031 52.6054 118.192C53.8465 118.373 55.1269 118.33 56.4819 118.283C59.5573 118.177 63.0489 118.059 67.0433 120.679C67.3457 120.879 67.7385 120.895 68.0566 120.718L72.6009 118.208C73.4021 118.836 74.3055 119.826 75.1892 121.287C76.4225 123.334 77.1098 125.191 77.4437 126.641L74.7218 128.106C74.6197 128.161 74.5294 128.231 74.4547 128.318C74.2859 128.506 74.1052 128.718 73.9088 128.954C71.7682 131.46 67.7896 136.126 59.734 137.041C56.9336 137.355 54.8166 136.978 53.929 136ZM41.5844 12.4764C41.7965 12.2368 42.0204 12.0208 42.26 11.8283C42.205 12.3782 42.1304 12.9281 42.0282 13.474C41.5373 15.9563 40.4965 18.3128 39.0433 20.3866C39.0158 20.422 38.9883 20.4613 38.9608 20.5005C39.2357 17.5823 39.7659 14.7309 41.5844 12.4764ZM46.3251 60.9472C46.5254 60.2049 46.8082 59.4272 47.1892 58.6142C47.6605 58.4139 48.1554 58.1979 48.6777 57.9662C52.6132 56.2223 53.658 54.8005 53.8386 52.7267C56.3209 52.22 58.8149 50.9632 59.9932 48.6616C60.327 47.8918 59.408 47.1377 58.7128 47.6208C56.7804 48.9719 54.7027 49.9224 52.3304 50.1777C47.2913 50.759 42.0518 48.2492 39.2593 44.0192C38.1164 42.2832 37.6489 40.2644 37.4526 38.1788C37.0794 34.0469 37.8414 29.7265 38.5209 25.5947C38.5837 25.0841 38.6309 24.5617 38.6741 24.0393C38.9097 23.8037 39.1257 23.5759 39.3221 23.3834C39.7816 22.9239 40.3315 22.6489 40.9207 22.484C41.121 22.4643 41.3213 22.4447 41.5294 22.4447C42.9866 22.3308 44.432 22.4565 45.8852 22.5193C46.058 22.5115 46.2269 22.4722 46.3604 22.3426C46.8278 21.7495 46.3997 21.3057 45.7556 20.9954C47.8176 19.1691 49.6636 17.1071 51.2778 14.8762C51.541 14.5148 51.7923 14.1496 52.0398 13.7804C52.4639 15.5125 52.1341 17.4056 51.6313 19.1259C51.4821 19.7779 51.2189 20.4063 51.0225 21.0465C50.8615 21.1211 50.7005 21.1997 50.5473 21.2939C50.0917 21.6435 50.343 22.3937 50.9125 22.4133C52.0044 22.4879 53.0766 22.4604 54.145 22.7039C55.2604 22.8571 56.2777 23.3127 57.3931 23.4934C57.5581 23.5091 57.7191 23.4816 57.8605 23.3756C58.7796 22.5154 57.0475 21.667 56.4033 21.3253C55.3586 20.8501 54.1332 20.5595 52.9431 20.6105C53.1238 20.2452 53.2691 19.9153 53.3634 19.7346C54.1489 17.8337 54.4474 15.6303 54.0154 13.5879C58.0844 15.375 59.1723 20.2138 60.0639 24.2043C60.547 26.3488 60.9437 28.1201 61.7764 29.2356C61.6467 30.8616 61.5289 34.9935 63.5595 35.8379C64.6121 36.2778 65.2995 35.4137 65.6686 34.9503C66.6191 33.7602 67.5578 32.8333 69.3724 33.5874C70.4014 34.0155 71.0299 35.6415 70.8649 37.4561C70.6607 39.6948 69.231 42.3499 65.8218 43.0883C65.1934 43.2258 64.7417 43.7796 64.7378 44.4198C64.675 52.6128 64.7692 54.2074 68.2373 55.9474C68.3394 55.9945 68.4415 56.0495 68.5436 56.0966C68.9011 57.5734 68.8264 59.0541 68.4376 60.4798C65.2759 65.0555 55.3547 66.6069 49.7421 64.6235C46.8514 63.6023 46.274 62.0823 46.3251 60.9472ZM48.827 67.2157C50.7005 67.8795 52.9745 68.2133 55.3704 68.2133C57.0985 68.2133 58.8895 68.0405 60.6373 67.6831C62.1966 67.3689 63.6341 66.9251 64.9263 66.3831C63.3749 68.0209 61.5446 69.3366 59.8204 70.1339C59.3452 70.3539 59.0349 70.8213 59.0231 71.3476L58.9681 73.4921C58.0765 75.1259 54.8441 79.8784 51.6902 84.3048C51.4585 84.2341 51.215 84.1909 50.9597 84.1791H50.7947C50.237 83.1226 48.1475 78.9711 47.0399 74.148L47.8058 70.8173C47.8962 70.4207 47.8058 70.0004 47.5584 69.6744C47.4759 69.5684 46.4233 68.1269 46.0384 65.7546C46.8043 66.3359 47.739 66.8308 48.827 67.2157ZM22.2998 148.023C28.093 119.811 29.3027 97.4309 30.1825 81.0881C30.3121 78.7433 30.43 76.536 30.5557 74.4661C30.8267 69.9533 31.8714 64.4978 37.5704 62.3494C38.3716 62.047 39.1257 61.772 39.8681 61.4971C41.1131 61.0415 42.3268 60.5977 43.7132 60.0517C42.1893 65.3894 44.1178 69.3523 44.9936 70.7781L41.1013 87.6983C40.8303 87.7415 40.5711 87.875 40.3708 88.0714C40.1077 88.3267 39.9584 88.6763 39.9544 89.0415L39.7856 104.689C39.7777 105.435 40.3629 106.048 41.1053 106.08L42.8845 106.146L47.1224 121.456C46.3093 122.462 45.9048 123.742 46.0659 125.015C46.2033 125.898 46.5568 126.672 47.1185 127.32C46.9339 128.286 47.0674 129.272 47.4995 130.081C47.5152 130.113 47.5387 130.136 47.5544 130.168C46.5097 132.218 45.3903 134.245 44.212 136.224C42.0086 139.598 39.7581 144.46 35.4573 145.093C34.2633 145.25 32.8258 144.951 32.1974 144.024C32.1071 143.844 32.111 143.832 32.1621 143.667C33.521 141.577 35.6576 138.137 37.2051 135.537C38.4109 133.538 39.7031 131.267 40.8578 129.229L42.0479 127.077C42.6174 125.997 42.7352 124.704 42.3935 123.538C42.3228 123.298 42.1579 122.756 42.0911 122.525C40.249 116.362 37.7 107.835 35.8619 101.677C34.3537 96.9086 34.3419 91.732 35.6891 86.9285C35.9758 85.7502 36.5571 83.4172 36.8438 82.235L37.1305 81.0645C37.5586 79.5602 37.6293 77.7967 37.2169 76.265L37.0637 75.6719C36.4746 73.7513 36.0622 71.7482 35.2531 69.8904C34.8643 69.0264 33.6153 69.3877 33.6467 70.2596C33.7292 72.2824 34.228 74.2697 34.5344 76.2532L34.6483 76.8384C34.9782 78.4959 34.6129 79.8902 34.1691 81.5751L33.5878 83.9199L33.0065 86.2647C31.8911 90.3298 31.5926 94.6266 32.3152 98.7899C32.7826 101.645 34.1298 105.475 34.9075 108.267C36.1604 112.489 38.4738 120.27 39.6992 124.414C39.8092 124.865 39.7542 125.36 39.5342 125.769L38.3834 127.843C37.2405 129.861 35.9561 132.1 34.7621 134.072C33.1125 136.821 31.4158 139.539 29.6798 142.237C28.8668 143.584 29.3106 145.159 30.2925 146.24C29.4598 147.21 28.1559 148.73 26.5534 150.603C24.5071 149.935 22.9086 148.993 22.4333 148.415C22.394 148.341 22.3509 148.266 22.2998 148.199C22.2841 148.152 22.2801 148.113 22.288 148.078C22.2919 148.058 22.2959 148.038 22.2998 148.023ZM14.4995 155.218C16.6911 154.004 18.9417 152.748 21.1215 150.921C21.6321 151.342 22.288 151.762 23.1324 152.178C23.6509 152.429 24.1733 152.649 24.6524 152.834C21.6321 156.381 17.9755 160.709 14.5388 164.86C14.1343 163.988 14.6802 162.94 15.2851 161.856C16.3298 160.002 18.0776 158.293 18.38 156.023C18.4429 155.293 17.4845 154.833 16.9582 155.359C16.2159 156.066 15.5757 156.923 14.857 157.704C14.2168 158.466 13.5216 159.354 12.9363 160.3L6.32219 162.072C8.22316 158.71 11.1768 157.068 14.4995 155.218ZM3.11335 266.763V166.514L11.3614 168.725C10.407 169.9 9.4918 171.031 8.64343 172.095C5.26567 176.341 4.00493 180.323 4.00493 184.043C4.00493 190.194 7.44946 195.625 10.4384 200.339C19.7154 214.973 49.8482 255.993 50.1506 256.405C50.1545 256.409 50.1585 256.409 50.1624 256.417C51.105 257.694 52.5857 258.255 54.3178 258.314C56.2738 262.996 54.4317 264.932 51.4585 268.051L51.05 268.483C49.7853 269.818 48.2417 271.205 46.1915 272.854C45.1075 273.726 43.9999 274.575 42.9356 275.396C42.26 275.914 41.6041 276.417 40.9757 276.912L3.11335 266.763ZM49.7932 287.163C44.4241 289.346 40.469 289.449 38.0417 287.453C36.8634 286.483 36.8752 285.792 36.8791 285.564C36.9145 283.49 40.8264 280.482 44.6087 277.575C45.2057 277.12 45.8145 276.648 46.4233 276.173C46.4429 276.193 46.4586 276.213 46.4783 276.232C47.5544 277.352 49.4397 278.2 51.5213 278.502C52.0162 278.573 52.5818 278.624 53.2063 278.624C54.8166 278.624 56.7962 278.29 58.8503 277.155L59.3451 276.884C61.1676 275.879 63.4652 274.614 65.7393 273.188C65.7158 273.212 65.6922 273.239 65.6686 273.263C63.8305 275.207 61.8274 276.872 59.7144 278.542C57.13 280.611 53.4812 283.18 51.16 285.564C50.6769 286.047 50.2016 286.585 49.7932 287.163ZM81.1121 282.01C80.4051 282.512 78.4845 283.864 77.7658 284.378C72.0275 288.278 61.2894 295.65 54.2825 293.51C53.1435 293.129 51.6195 292.084 51.3603 290.988C51.2385 290.556 51.3878 290.01 51.7373 289.39C53.0492 287.288 55.1937 285.737 57.1811 284.131C58.324 283.247 59.5808 282.289 60.8534 281.295C60.8573 281.299 60.8612 281.303 60.8652 281.307C61.9413 282.426 63.8266 283.274 65.9082 283.577C66.4031 283.651 66.9726 283.699 67.601 283.699C69.2074 283.699 71.1869 283.369 73.2411 282.234L73.7753 281.939C78.8105 279.166 86.3044 275.034 88.8023 270.612C88.8023 270.616 88.8063 270.62 88.8063 270.62C89.8471 272.792 90.3263 274.881 90.4991 276.731C90.177 277.01 89.8314 277.273 89.4622 277.505C86.7875 279.135 83.83 280.266 81.1121 282.01ZM89.8746 283.278L84.1874 285.179L83.5393 283.754C85.4482 282.662 88.4842 281.295 90.5266 279.649C90.4088 281.314 90.0827 282.591 89.8746 283.278ZM110.133 266.763L92.1723 271.578C91.9248 270.875 91.6342 270.16 91.2846 269.433C90.5973 268 89.6743 266.48 88.5078 264.559C87.1134 262.262 85.3932 259.43 83.1741 255.31C83.9086 253.884 84.0892 252.415 83.4372 251.025L58.3593 193.599C61.8785 191.384 74.0069 183.697 84.5565 176.435C86.7874 174.899 88.6688 173.372 90.2516 171.84L110.133 166.514V266.763ZM106.198 164.723L93.543 168.112C94.9884 166.153 96.0017 164.181 96.7008 162.178L106.198 164.723ZM117.875 135.682C117.549 136.149 117.054 136.452 116.488 136.53L63.206 144.056C61.9453 144.236 60.7473 143.396 60.4842 142.151L59.9853 139.775C59.9853 139.775 60.0246 139.775 60.0443 139.771C68.3198 138.832 72.8758 134.315 75.307 131.542C76.2182 132.088 76.9802 132.285 77.5968 132.285C77.9738 132.285 78.292 132.21 78.5669 132.104C78.5787 132.1 78.5866 132.096 78.6062 132.088C78.6219 132.08 78.6377 132.077 78.6534 132.069C79.6 131.703 86.9446 128.64 102.376 116.771C106.72 113.428 107.781 107.984 105.534 100.585C105.181 99.434 104.242 96.6376 103.032 93.1498L107.133 92.5685C108.389 92.3918 109.591 93.2284 109.851 94.4774L118.205 134.084C118.322 134.645 118.205 135.215 117.875 135.682Z" fill="#262626"/>
<path d="M84.5566 176.435C74.007 183.697 61.8785 191.383 58.3594 193.599L83.4373 251.024C84.0892 252.415 83.9086 253.884 83.1741 255.309C85.3932 259.43 87.1135 262.261 88.5078 264.559C89.6743 266.48 90.5973 268 91.2846 269.433C91.6342 270.16 91.9248 270.875 92.1723 271.578L110.133 266.762V166.514L90.2516 171.84C88.6688 173.371 86.7875 174.899 84.5566 176.435Z" fill="#FFEFB6"/>
<path d="M61.7528 72.2508L61.3444 88.2716C61.7136 88.5229 61.9492 88.9432 61.9453 89.4224L61.8706 96.1818L79.9063 93.6367C79.5214 92.7569 79.1247 91.8811 78.7005 91.0131C77.915 89.3988 77.0352 87.8513 76.6621 85.9857C76.5639 85.5144 76.8663 85.0509 77.3416 84.9567C77.6165 84.9017 77.8953 84.9881 78.0917 85.1609C79.5332 86.461 80.3698 88.138 81.1789 89.8034C83.6336 94.7797 85.5071 100.066 87.09 105.345C87.2785 105.966 87.0193 106.614 86.5008 106.944C83.3391 109.006 77.6126 112.686 73.355 115.396C74.7454 116.213 76.2065 117.65 77.5419 119.865C79.1365 122.513 80.3187 125.69 80.4209 128.184C83.8458 126.381 90.4755 122.458 100.703 114.591C104.089 111.983 104.811 107.666 102.903 101.386C101.96 98.2831 96.3356 82.172 93.2367 74.1518C91.481 69.6114 88.0836 66.0294 83.127 63.5001L82.0154 62.9345C79.1639 61.4773 75.1932 59.4507 71.4659 57.5693C71.5837 62.6635 68.3512 68.8613 61.7528 72.2508Z" fill="#68C5C0"/>
<path d="M88.2683 149.48C92.9382 146.895 96.1274 144.016 96.5791 142.119L77.5183 144.813C82.4632 151.844 85.3304 151.106 88.2683 149.48Z" fill="#68C5C0"/>
<path d="M63.5909 146.782C63.3474 146.813 63.1078 146.829 62.8721 146.829C60.4606 146.829 58.3043 145.136 57.7937 142.717L57.1967 139.885C54.2392 139.743 52.6878 138.722 51.8944 137.85C51.2817 137.175 50.9046 136.373 50.7868 135.505C49.9306 135.026 49.2825 134.374 48.8583 133.604C46.9966 137.116 45.0132 140.529 42.5899 143.718C40.3708 146.652 36.3724 148.855 32.6844 147.677C29.7348 151.102 17.9047 164.876 10.7957 173.808C3.0465 183.544 7.98352 191.333 12.7595 198.866C21.9777 213.402 51.9847 254.253 52.3618 254.772C52.3618 254.772 52.3644 254.774 52.3697 254.78C53.3162 256.076 56.6232 255.734 60.0913 254.092C49.0076 235.719 37.7667 217.467 27.441 198.634C24.8645 193.658 23.2738 187.448 25.4693 181.965C26.1017 180.257 27.0168 178.678 28.0655 177.217C32.0913 172.178 36.6238 167.555 40.9128 162.747C44.5458 158.765 48.1946 154.794 52.2832 151.232C52.6288 150.929 53.1551 150.965 53.4536 151.31C53.7168 151.613 53.7208 152.049 53.489 152.355C50.2409 156.687 46.5842 160.638 42.9472 164.605C39.106 168.831 35.2491 173.054 31.5022 177.35C28.4072 180.858 26.5337 185.469 27.4331 190.178C27.8337 192.637 28.8039 195.044 29.9625 197.385C36.2939 209.188 43.4382 220.645 50.2409 232.211C50.2409 232.211 54.3884 239.148 58.536 246.084C62.6797 253.02 66.8233 259.956 66.8272 259.96C67.2003 260.589 68.0841 260.863 69.2702 260.816C69.4587 260.761 69.6512 260.746 69.8397 260.773C71.3204 260.6 73.1664 259.999 75.0478 259.002C79.0618 256.869 81.7011 253.798 80.9313 252.156L55.3625 193.615C55.0915 192.99 55.3193 192.26 55.8967 191.898C56.042 191.808 70.6174 182.692 82.9972 174.169C95.059 165.866 96.0016 158.066 94.9215 148.365C93.0481 149.877 90.986 151.118 89.6035 151.884C87.8989 152.83 86.3161 153.317 84.7922 153.317C81.2966 153.317 78.1152 150.741 74.4822 145.242L63.5909 146.782Z" fill="#CCCCCC"/>
<path d="M84.1873 285.179L89.8745 283.278C90.0827 282.59 90.4087 281.314 90.5266 279.648C88.4842 281.294 85.4481 282.661 83.5393 283.753L84.1873 285.179Z" fill="#808080"/>
<path d="M90.499 276.731C90.3262 274.881 89.847 272.791 88.8062 270.619C88.8062 270.619 88.8023 270.615 88.8023 270.611C86.3043 275.034 78.8104 279.166 73.7752 281.939L73.241 282.233C71.1869 283.368 69.2073 283.698 67.6009 283.698C66.9725 283.698 66.403 283.651 65.9082 283.576C63.8265 283.274 61.9413 282.426 60.8651 281.306C60.8651 281.302 60.8572 281.298 60.8533 281.294C59.5808 282.288 58.3239 283.246 57.181 284.13C55.1936 285.737 53.0491 287.288 51.7373 289.389C51.3877 290.01 51.2385 290.556 51.3602 290.988C51.6195 292.084 53.1434 293.128 54.2824 293.509C61.2893 295.65 72.0274 288.278 77.7657 284.378C78.4844 283.863 80.4051 282.512 81.112 282.009C83.83 280.265 86.7875 279.134 89.4622 277.504C89.8314 277.273 90.177 277.009 90.499 276.731Z" fill="#808080"/>
<path d="M64.8516 280.514C65.9435 280.879 68.8146 281.539 71.9135 279.83L72.4477 279.532C76.8781 277.093 88.6373 270.608 86.6539 266.806C86.4968 266.543 86.3318 266.272 86.159 265.985C84.9454 263.986 83.3429 261.351 81.3673 257.749C80.0162 259.147 78.233 260.42 76.336 261.429C74.8671 262.211 73.2136 262.875 71.5993 263.252C73.7006 269.084 70.6724 272.254 66.7487 276.221C65.6529 277.324 64.3646 278.455 63.0175 279.563C63.3552 279.846 63.9522 280.219 64.8516 280.514Z" fill="#FFE8D9"/>
<path d="M73.9087 128.954C74.1051 128.718 74.2858 128.506 74.4547 128.317C74.5293 128.231 74.6196 128.16 74.7217 128.105L77.4436 126.64C77.1097 125.191 76.4224 123.333 75.1891 121.287C74.3054 119.826 73.402 118.836 72.6008 118.208L68.0565 120.717C67.7384 120.894 67.3457 120.878 67.0432 120.678C63.0488 118.058 59.5572 118.176 56.4818 118.282C55.1268 118.329 53.8464 118.373 52.6053 118.192C51.4663 118.031 50.6257 118.345 50.4726 118.997C50.3429 119.531 50.6964 120.27 51.7687 120.631C54.0585 121.409 58.2532 121.727 58.2925 121.731C58.7481 121.762 59.1212 122.108 59.1919 122.56C59.2626 123.011 59.0112 123.451 58.587 123.62C58.5399 123.64 57.4755 124.06 56.2108 124.343C56.1165 124.362 56.0184 124.37 55.9241 124.362C55.6884 124.347 55.3821 124.335 55.0404 124.319C52.4442 124.217 50.4058 124.036 49.797 122.756C48.8897 123.42 48.4027 124.708 49.2943 125.592C50.6572 126.892 53.2258 126.754 55.0757 126.978C55.4174 127.017 55.6649 127.336 55.606 127.673C55.496 128.255 54.7851 128.251 54.3334 128.384C52.9666 128.647 51.2738 128.636 49.8363 128.156C49.8677 128.954 50.4765 129.582 51.3995 129.924C52.833 130.474 54.5455 130.376 56.0851 130.635C56.6704 130.741 56.7568 131.577 56.2187 131.805C54.7458 132.328 52.8291 132.441 51.1795 131.954C51.3838 132.614 52.0083 133.093 52.8095 133.368C54.2156 133.867 55.8652 133.773 57.3577 134.032C57.9311 134.146 58.0175 134.967 57.4912 135.203C56.3993 135.615 55.0011 135.768 53.6539 135.599C53.7207 135.733 53.8111 135.866 53.9289 136C54.8165 136.978 56.9335 137.355 59.7339 137.041C67.7895 136.126 71.7682 131.46 73.9087 128.954Z" fill="#FFE8D9"/>
<path d="M49.7421 64.6235C55.3546 66.6069 65.2758 65.0555 68.4376 60.4798C68.8264 59.0541 68.901 57.5734 68.5436 56.0966C68.4415 56.0495 68.3394 55.9945 68.2372 55.9473C64.7692 54.2074 64.6749 52.6128 64.7378 44.4198C64.7417 43.7795 65.1934 43.2258 65.8218 43.0883C69.231 42.3499 70.6606 39.6948 70.8649 37.4561C71.0298 35.6415 70.4014 34.0155 69.3723 33.5874C67.5578 32.8333 66.6191 33.7602 65.6686 34.9503C65.2994 35.4137 64.6121 36.2778 63.5595 35.8379C61.5289 34.9934 61.6467 30.8616 61.7763 29.2355C60.9437 28.1201 60.547 26.3487 60.0639 24.2043C59.1723 20.2138 58.0843 15.375 54.0153 13.5879C54.4474 15.6303 54.1489 17.8337 53.3633 19.7346C53.2691 19.9153 53.1238 20.2452 52.9431 20.6105C54.1332 20.5594 55.3586 20.8501 56.4033 21.3253C57.0474 21.667 58.7796 22.5154 57.8605 23.3755C57.7191 23.4816 57.558 23.5091 57.3931 23.4934C56.2776 23.3127 55.2604 22.8571 54.1449 22.7039C53.0766 22.4604 52.0044 22.4879 50.9125 22.4133C50.343 22.3936 50.0916 21.6434 50.5473 21.2939C50.7004 21.1996 50.8614 21.1211 51.0225 21.0464C51.2189 20.4062 51.482 19.7778 51.6313 19.1258C52.134 17.4055 52.4639 15.5124 52.0397 13.7803C51.7923 14.1495 51.5409 14.5148 51.2778 14.8762C49.6635 17.107 47.8175 19.1691 45.7555 20.9954C46.3997 21.3057 46.8278 21.7495 46.3604 22.3426C46.2269 22.4722 46.058 22.5115 45.8852 22.5193C44.4319 22.4565 42.9865 22.3308 41.5294 22.4447C41.3212 22.4447 41.1209 22.4643 40.9206 22.484C40.3315 22.6489 39.7816 22.9239 39.3221 23.3834C39.1257 23.5758 38.9097 23.8037 38.674 24.0393C38.6308 24.5617 38.5837 25.0841 38.5209 25.5946C37.8414 29.7265 37.0794 34.0469 37.4525 38.1788C37.6489 40.2643 38.1163 42.2831 39.2593 44.0191C42.0518 48.2492 47.2912 50.7589 52.3304 50.1777C54.7026 49.9224 56.7804 48.9719 58.7128 47.6208C59.4079 47.1377 60.327 47.8918 59.9932 48.6616C58.8149 50.9632 56.3209 52.22 53.8386 52.7267C53.6579 54.8005 52.6132 56.2223 48.6777 57.9661C48.1553 58.1979 47.6604 58.4139 47.1891 58.6142C46.8081 59.4272 46.5254 60.2049 46.3251 60.9472C46.274 62.0823 46.8513 63.6023 49.7421 64.6235ZM51.7569 27.4014C51.7884 26.5766 52.4757 25.9049 53.2966 25.9049C54.1175 25.9049 54.7537 26.5766 54.7223 27.4014L54.6909 28.2733C54.6594 29.0981 53.9682 29.7658 53.1513 29.7658C52.3304 29.7697 51.6941 29.0981 51.7255 28.2733L51.7569 27.4014ZM42.5506 28.2733L42.582 27.4014C42.6134 26.5766 43.3008 25.9049 44.1217 25.9049C44.9425 25.9049 45.5788 26.5766 45.5474 27.4014L45.5159 28.2733C45.4845 29.0981 44.7933 29.7658 43.9763 29.7658C43.1555 29.7697 42.5192 29.0981 42.5506 28.2733ZM44.0392 35.7279C43.4225 34.7067 43.611 33.2064 44.5851 32.468C45.3706 31.8867 46.0579 31.8592 46.8278 31.6432C46.871 31.6235 47.7233 31.3486 47.7351 31.3408C48.2339 31.1522 48.7288 31.7257 48.4813 32.1891C47.9982 33.2025 46.596 33.497 45.8184 34.0115C45.7608 34.0718 45.7228 34.1621 45.7045 34.2826C45.6377 35.1623 47.197 35.4059 47.8686 35.4883C48.4067 35.5394 48.8034 36.0186 48.7523 36.5567C48.5952 37.7428 47.2795 37.4482 46.4625 37.2793C45.5277 37.0515 44.6165 36.6431 44.0392 35.7279ZM55.6964 40.4764C54.4631 43.3161 50.6808 44.4433 47.9236 43.2257C47.142 42.9979 44.7776 41.0773 46.0305 40.3625C46.2583 40.2604 46.4861 40.3429 46.6824 40.4646C48.3988 41.8511 50.8693 42.0907 52.8449 41.1088C53.5912 40.7985 54.1528 40.225 54.8087 39.7577C55.28 39.416 55.9242 39.9462 55.6964 40.4764Z" fill="#FFE8D9"/>
<path d="M53.0452 270.376C51.8395 271.648 50.4098 272.956 48.5874 274.449C48.9173 274.735 49.5222 275.124 50.457 275.434C51.5488 275.8 54.4239 276.459 57.5228 274.751L58.0176 274.476C61.3326 272.65 66.2617 269.936 69.4863 267.076C69.5295 265.906 69.2192 264.708 68.7793 263.581C67.8681 263.561 67.0237 263.396 66.2892 263.043C65.5547 262.689 64.9302 262.147 64.4707 261.377L64.4668 261.37C63.4849 259.728 62.5029 258.094 61.5171 256.456C60.0835 257.159 58.591 257.709 57.1535 258.023C59.2509 263.856 56.4309 266.821 53.4498 269.947L53.0452 270.376Z" fill="#FFE8D9"/>
<path d="M65.6687 273.263C65.6923 273.24 65.7158 273.212 65.7394 273.188C63.4653 274.614 61.1676 275.879 59.3452 276.884L58.8504 277.155C56.7962 278.29 54.8167 278.624 53.2064 278.624C52.5819 278.624 52.0163 278.573 51.5214 278.503C49.4398 278.2 47.5545 277.352 46.4783 276.232C46.4587 276.213 46.443 276.193 46.4233 276.173C45.8146 276.649 45.2058 277.12 44.6088 277.576C40.8265 280.482 36.9145 283.491 36.8792 285.564C36.8753 285.792 36.8635 286.483 38.0418 287.454C40.469 289.449 44.4242 289.347 49.7932 287.163C50.2017 286.586 50.6769 286.048 51.16 285.564C53.4813 283.18 57.13 280.612 59.7144 278.542C61.8275 276.873 63.8306 275.207 65.6687 273.263Z" fill="#808080"/>
<path d="M54.8087 39.7576C54.1528 40.225 53.5911 40.7984 52.8449 41.1087C50.8693 42.0906 48.3988 41.851 46.6824 40.4646C46.486 40.3428 46.2583 40.2604 46.0305 40.3625C44.7776 41.0773 47.142 42.9979 47.9236 43.2257C50.6808 44.4433 54.4631 43.316 55.6964 40.4764C55.9242 39.9461 55.28 39.4159 54.8087 39.7576Z" fill="#262626"/>
<path d="M53.1512 29.7651C53.9682 29.7651 54.6594 29.0975 54.6908 28.2727L54.7223 27.4007C54.7537 26.5759 54.1135 25.9043 53.2965 25.9043C52.4796 25.9043 51.7883 26.5759 51.7569 27.4007L51.7255 28.2727C51.6941 29.0975 52.3303 29.7691 53.1512 29.7651Z" fill="#262626"/>
<path d="M42.9356 275.395C44 274.574 45.1075 273.726 46.1916 272.854C48.2418 271.205 49.7853 269.818 51.05 268.483L51.4585 268.051C54.4317 264.932 56.2738 262.996 54.3179 258.314C52.5858 258.255 51.1051 257.694 50.1624 256.417C50.1624 256.409 50.1546 256.409 50.1507 256.405C49.8482 255.993 19.7155 214.973 10.4384 200.338C7.44951 195.625 4.00498 190.193 4.00498 184.043C4.00498 180.323 5.26572 176.341 8.64348 172.095C9.49185 171.03 10.407 169.899 11.3614 168.725L3.1134 166.514V266.762L40.9757 276.911C41.6041 276.416 42.2601 275.914 42.9356 275.395Z" fill="#FFEFB6"/>
<path d="M48.7523 36.5564C48.8033 36.0184 48.4067 35.5392 47.8686 35.4881C47.1969 35.4056 45.6377 35.1621 45.7044 34.2823C45.7228 34.1619 45.7608 34.0716 45.8184 34.0113C46.596 33.4968 47.9982 33.2022 48.4813 32.1889C48.7287 31.7255 48.2339 31.152 47.735 31.3406C47.7233 31.3484 46.8709 31.6233 46.8277 31.643C46.0579 31.859 45.3706 31.8865 44.5851 32.4678C43.611 33.2062 43.4225 34.7065 44.0391 35.7277C44.6165 36.6428 45.5277 37.0513 46.4625 37.2791C47.2794 37.448 48.5952 37.7426 48.7523 36.5564Z" fill="#262626"/>
<path d="M22.4333 148.415C22.9085 148.993 24.5071 149.935 26.5534 150.603C28.1558 148.73 29.4598 147.21 30.2925 146.24C29.3106 145.159 28.8668 143.584 29.6798 142.237C31.4158 139.539 33.1125 136.821 34.7621 134.072C35.9561 132.1 37.2404 129.861 38.3834 127.843L39.5342 125.769C39.7541 125.36 39.8091 124.865 39.6992 124.414C38.4738 120.27 36.1604 112.489 34.9074 108.267C34.1298 105.475 32.7826 101.645 32.3152 98.7899C31.5925 94.6266 31.891 90.3298 33.0065 86.2647L33.5878 83.9199L34.169 81.5752C34.6129 79.8902 34.9782 78.4959 34.6483 76.8384L34.5343 76.2532C34.228 74.2698 33.7292 72.2824 33.6467 70.2597C33.6153 69.3877 34.8642 69.0264 35.2531 69.8905C36.0622 71.7482 36.4746 73.7513 37.0637 75.6719L37.2169 76.265C37.6293 77.7968 37.5586 79.5603 37.1305 81.0646L36.8438 82.235C36.5571 83.4172 35.9758 85.7502 35.689 86.9285C34.3419 91.732 34.3537 96.9086 35.8619 101.677C37.7 107.835 40.249 116.362 42.0911 122.525C42.1579 122.756 42.3228 123.298 42.3935 123.538C42.7352 124.704 42.6174 125.997 42.0479 127.077L40.8578 129.229C39.7031 131.267 38.4109 133.538 37.2051 135.537C35.6576 138.137 33.521 141.577 32.162 143.667C32.111 143.832 32.107 143.844 32.1974 144.024C32.8258 144.951 34.2633 145.25 35.4573 145.093C39.7581 144.46 42.0086 139.598 44.212 136.224C45.3903 134.245 46.5097 132.218 47.5544 130.168C47.5387 130.136 47.5151 130.113 47.4994 130.081C47.0674 129.272 46.9339 128.286 47.1185 127.32C46.5568 126.672 46.2033 125.898 46.0658 125.015C45.9048 123.742 46.3093 122.462 47.1223 121.456L42.8845 106.146L41.1052 106.08C40.3629 106.048 39.7777 105.435 39.7856 104.689L39.9544 89.0416C39.9584 88.6763 40.1076 88.3267 40.3708 88.0714C40.5711 87.8751 40.8303 87.7415 41.1013 87.6983L44.9936 70.7781C44.1177 69.3524 42.1893 65.3894 43.7132 60.0518C42.3267 60.5977 41.1131 61.0415 39.868 61.4971C39.1257 61.7721 38.3716 62.047 37.5704 62.3494C31.8714 64.4978 30.8267 69.9533 30.5557 74.4661C30.43 76.536 30.3121 78.7433 30.1825 81.0881C29.3027 97.431 28.093 119.811 22.2998 148.023C22.2998 148.038 22.2919 148.058 22.288 148.078C22.2801 148.113 22.2841 148.152 22.2998 148.199C22.3508 148.266 22.394 148.341 22.4333 148.415Z" fill="#68C5C0"/>
<path d="M45.516 28.2727L45.5475 27.4007C45.5789 26.5759 44.9387 25.9043 44.1217 25.9043C43.3048 25.9043 42.6135 26.5759 42.5821 27.4007L42.5507 28.2727C42.5193 29.0975 43.1555 29.7691 43.9764 29.7651C44.7934 29.7651 45.4846 29.0975 45.516 28.2727Z" fill="#262626"/>
<path d="M42.0283 13.4738C42.1304 12.9279 42.205 12.378 42.26 11.8281C42.0204 12.0206 41.7965 12.2366 41.5844 12.4762C39.766 14.7306 39.2357 17.5821 38.9608 20.5003C38.9883 20.4611 39.0158 20.4218 39.0433 20.3864C40.4965 18.3126 41.5373 15.9561 42.0283 13.4738Z" fill="#FFE8D9"/>
<path d="M14.8569 157.704C15.5757 156.922 16.2159 156.066 16.9582 155.359C17.4845 154.833 18.4428 155.292 18.38 156.023C18.0776 158.293 16.3298 160.002 15.285 161.855C14.6802 162.939 14.1342 163.988 14.5388 164.86C17.9754 160.709 21.632 156.38 24.6524 152.834C24.1732 152.649 23.6508 152.429 23.1324 152.178C22.288 151.761 21.632 151.341 21.1215 150.921C18.9416 152.747 16.6911 154.004 14.4995 155.218C11.1767 157.068 8.22311 158.709 6.32214 162.071L12.9363 160.3C13.5215 159.354 14.2167 158.466 14.8569 157.704Z" fill="#FFE8D9"/>
</svg>
