<svg width="90" height="343" viewBox="0 0 90 343" fill="none" xmlns="http://www.w3.org/2000/svg">
<path d="M11.3329 33.8401C11.0163 33.3336 10.6365 32.7322 10.13 32.0041C9.62346 31.3076 9.05365 30.6745 8.38887 30.168C11.0796 29.4083 13.1373 28.5219 14.5935 27.5406C16.0496 26.5276 17.031 25.3563 17.6008 23.9951C16.7777 24.4067 15.9863 24.5966 15.1633 24.5966C13.2322 24.5966 11.6811 24.0585 10.5098 22.9505C9.33855 21.8742 8.70543 20.3864 8.64212 18.5503C8.5788 17.2841 8.83206 16.1445 9.40187 15.1632C9.97168 14.1502 10.7314 13.3588 11.7444 12.789C12.7574 12.2192 13.897 11.9026 15.1949 11.9026C15.3849 11.9026 15.5748 11.9026 15.7331 11.9026C15.8914 11.9026 16.0497 11.9026 16.2396 11.9659C16.1763 11.5227 16.1446 11.0479 16.0813 10.5731C16.018 10.0982 16.018 9.59173 16.018 9.05358C13.9603 9.11689 11.966 9.24351 10.0033 9.40179C8.04065 9.56007 6.26791 9.71835 4.65345 9.90829C3.03899 10.0982 1.67778 10.3198 0.633125 10.5731L0 6.17289C0.918027 6.10958 2.18427 6.01461 3.83039 5.91965C5.4765 5.82468 7.34422 5.72971 9.46518 5.63474C11.5861 5.53978 13.7704 5.44481 16.018 5.31818V0H20.4182V5.15991C22.3809 5.09659 24.2802 5.00163 26.0846 4.93831C27.889 4.875 29.5035 4.81169 30.8964 4.78004C32.3209 4.74838 33.4289 4.74838 34.2519 4.78004L33.9353 9.21186C32.4792 9.02192 30.5165 8.92695 28.1106 8.8953C25.7048 8.86364 23.1406 8.8953 20.4182 8.8953C20.4182 9.81332 20.4498 10.7313 20.5132 11.681C20.5765 12.6307 20.6398 13.5171 20.6714 14.3718C21.906 15.8279 22.5391 17.7906 22.5391 20.2281C22.5391 23.5836 21.5578 26.4326 19.6268 28.7119C17.6641 30.9911 14.9417 32.7005 11.3962 33.8085L11.3329 33.8401ZM15.1633 20.8296C15.8597 20.7662 16.4295 20.5447 16.8411 20.1015C17.2526 19.6583 17.4425 19.1201 17.4425 18.4237C17.4425 18.2021 17.4425 17.9489 17.3792 17.6956C17.3476 17.4424 17.2842 17.1575 17.2526 16.8409C16.7144 16.2395 16.0497 15.9229 15.2266 15.9229C14.5302 15.9229 13.9287 16.1445 13.4538 16.6193C12.979 17.0625 12.7574 17.664 12.7574 18.3604C12.7574 19.0885 12.979 19.6899 13.4222 20.1648C13.8654 20.6396 14.4352 20.8612 15.1633 20.8296Z" fill="#3A3A3A"/>
<path d="M31.6961 68.7442C30.8731 68.301 29.8601 67.6679 28.6888 66.9081C27.5175 66.1484 26.2513 65.2937 24.9217 64.3757C23.5922 63.4576 22.2626 62.508 20.9647 61.5266C19.6352 60.5453 18.4322 59.5956 17.2926 58.7092C16.153 57.8229 15.2033 56.9998 14.4436 56.3034C14.0637 55.9552 13.7788 55.7653 13.5572 55.7653C13.3356 55.7653 13.0824 55.9235 12.7341 56.2084C11.9427 56.9365 11.0247 57.7279 10.0117 58.5826C8.96706 59.4373 7.89076 60.2604 6.81446 61.1151C5.70649 61.9381 4.63018 62.7295 3.61718 63.426L0.0400391 59.5006C0.799785 59.1524 1.71782 58.6459 2.82578 58.0128C3.90209 57.3797 5.04171 56.6833 6.18133 55.8919C7.32095 55.1321 8.42891 54.3407 9.44191 53.581C10.4549 52.8213 11.278 52.0932 11.9111 51.4601C12.5442 50.7953 13.1457 50.5104 13.6838 50.542C14.222 50.6053 14.8551 50.9219 15.5515 51.5234C16.1213 51.9982 17.0077 52.6946 18.1473 53.5493C19.287 54.4357 20.6165 55.3854 22.0727 56.43C23.5289 57.4747 25.0484 58.4877 26.5995 59.5323C28.1507 60.5453 29.6385 61.495 31.0947 62.318C32.5192 63.1411 33.7854 63.7742 34.8301 64.2174C34.4819 64.5023 34.102 64.9138 33.6588 65.452C33.2473 65.9901 32.8674 66.5599 32.4875 67.1297C32.1393 67.6995 31.8861 68.206 31.7278 68.6492L31.6961 68.7442ZM25.7765 53.676C25.2067 52.9479 24.5102 52.1565 23.6555 51.3334C22.8008 50.5104 22.0094 49.8456 21.3446 49.3708L23.2756 47.5031C23.6872 47.788 24.162 48.1995 24.7635 48.7377C25.3333 49.2758 25.9347 49.8456 26.5045 50.3838C27.0744 50.9536 27.5175 51.3967 27.8025 51.7766L25.7765 53.676ZM28.9737 50.5104C28.4039 49.7823 27.7075 48.9909 26.8211 48.1678C25.9347 47.3448 25.1433 46.68 24.4786 46.2052L26.4096 44.3691C26.8211 44.654 27.296 45.0339 27.8974 45.5721C28.4672 46.0786 29.0687 46.6167 29.6385 47.1865C30.2083 47.7563 30.6515 48.1995 30.9681 48.5794L29.0054 50.4787L28.9737 50.5104Z" fill="#3A3A3A"/>
<path d="M26.1641 114.633C23.5367 114.317 21.1941 113.557 19.1681 112.322C17.1422 111.088 15.5593 109.473 14.4197 107.511C13.2801 105.516 12.7103 103.269 12.7103 100.736C12.7103 98.9002 13.1535 97.0642 14.0398 95.1648C14.9262 93.2655 16.2241 91.5877 17.9652 90.1315C15.9392 90.4481 13.9132 90.7963 11.9189 91.1762C9.92456 91.5561 8.0885 91.9043 6.47404 92.2208C4.82792 92.5374 3.59334 92.8539 2.70696 93.1072L1.69397 88.1689C2.51703 88.1056 3.6883 88.0106 5.17614 87.8207C6.66397 87.6307 8.34175 87.4091 10.1778 87.1559C12.0139 86.9026 13.9765 86.5861 15.9392 86.2695C17.9335 85.953 19.8646 85.6364 21.7006 85.2882C23.5367 84.94 25.2461 84.6234 26.7023 84.3069C28.1901 83.9903 29.3297 83.7054 30.1845 83.4521L31.3874 88.0739C31.0075 88.0739 30.5327 88.1689 29.9629 88.2322C29.3931 88.3272 28.7283 88.4221 28.0002 88.5171C26.639 88.707 25.3094 89.1185 24.0432 89.815C22.7769 90.5114 21.6373 91.3661 20.6243 92.4424C19.6113 93.5187 18.8199 94.7533 18.2501 96.1462C17.6803 97.539 17.3637 99.0585 17.3637 100.673C17.3637 102.604 17.8702 104.218 18.8516 105.485C19.8329 106.783 21.1941 107.796 22.9036 108.492C24.613 109.22 26.544 109.695 28.665 109.948C28.2851 110.36 27.9052 110.834 27.557 111.404C27.2088 111.974 26.8922 112.544 26.639 113.114C26.3857 113.684 26.2274 114.158 26.1325 114.538L26.1641 114.633Z" fill="#3A3A3A"/>
<path d="M20.1046 154.264C20.0096 153.852 19.8197 153.377 19.5348 152.807C19.2499 152.238 18.9333 151.699 18.5534 151.193C18.1736 150.687 17.8254 150.243 17.4771 149.927C20.9593 149.389 23.5868 148.249 25.3912 146.54C27.1956 144.799 28.1452 142.773 28.2719 140.398C28.3668 138.531 28.0186 136.853 27.2589 135.397C26.4675 133.941 25.3912 132.738 24.0616 131.82C22.7004 130.902 21.2126 130.363 19.5981 130.174C19.4082 132.516 19.0283 134.922 18.4585 137.391C17.8887 139.86 17.1606 142.139 16.2109 144.292C15.2612 146.445 14.0899 148.281 12.7287 149.768C11.6841 150.876 10.6711 151.541 9.72139 151.699C8.74005 151.889 7.72706 151.731 6.6191 151.288C5.54279 150.845 4.62476 150.117 3.8017 149.135C2.97865 148.154 2.37718 146.983 1.93399 145.622C1.49081 144.26 1.33252 142.804 1.39583 141.285C1.52246 138.974 2.06061 136.885 3.04195 134.954C3.99164 133.054 5.28954 131.376 6.904 129.984C8.51846 128.591 10.3862 127.546 12.4755 126.818C14.5648 126.122 16.8124 125.805 19.1866 125.932C21.1176 126.027 22.922 126.47 24.6314 127.23C26.3409 127.989 27.8287 129.034 29.0949 130.363C30.3612 131.693 31.3742 133.244 32.0706 134.985C32.767 136.726 33.0519 138.657 32.9253 140.715C32.7354 144.197 31.5324 147.078 29.2849 149.42C27.0373 151.763 23.9666 153.377 20.1362 154.232L20.1046 154.264ZM7.75872 146.603C8.04362 146.793 8.32852 146.919 8.64508 146.919C8.96165 146.919 9.24655 146.761 9.56312 146.476C10.4811 145.558 11.3042 144.26 12.0956 142.614C12.8553 140.937 13.5201 139.069 14.0266 136.948C14.5331 134.827 14.8813 132.706 15.0396 130.522C13.2985 130.933 11.7474 131.661 10.3862 132.738C9.02496 133.814 7.94865 135.08 7.18891 136.6C6.3975 138.119 5.95431 139.765 5.85934 141.57C5.79603 142.773 5.95432 143.786 6.33419 144.672C6.71406 145.558 7.1889 146.223 7.79037 146.666L7.75872 146.603Z" fill="#3A3A3A"/>
<path d="M14.8828 194.675C13.1734 194.675 11.6856 194.485 10.356 194.136C9.02646 193.757 7.88683 193.092 6.93715 192.142C5.98747 191.192 5.19607 189.831 4.5946 188.122L8.61493 185.906C8.93149 187.235 9.62793 188.217 10.6409 188.913C11.6539 189.61 13.0784 189.926 14.8828 189.926C16.4973 189.926 18.1751 189.863 19.8845 189.705C21.5939 189.546 23.2401 189.325 24.7596 189.071C26.279 188.818 27.5453 188.47 28.5266 188.122C28.5266 188.533 28.5266 189.071 28.6216 189.705C28.7165 190.338 28.7799 191.002 28.8748 191.636C29.0015 192.269 29.0964 192.775 29.1914 193.123C28.1784 193.44 26.8805 193.725 25.3293 193.946C23.7782 194.168 22.0688 194.358 20.2644 194.485C18.46 194.611 16.6556 194.675 14.8828 194.675ZM8.89984 172.326V167.735C9.59627 167.957 10.5143 168.147 11.6223 168.274C12.7302 168.4 13.9015 168.464 15.1994 168.495C16.4656 168.495 17.7635 168.495 19.0614 168.432C20.3593 168.369 21.5306 168.274 22.6386 168.115C23.7149 167.989 24.6329 167.799 25.3293 167.577V172.199C24.6962 172.389 23.8415 172.579 22.7335 172.705C21.6572 172.832 20.4543 172.927 19.1564 172.99C17.8585 173.054 16.5606 173.085 15.2311 173.054C13.9015 173.054 12.6986 172.959 11.5906 172.832C10.4826 172.705 9.56462 172.547 8.89984 172.326Z" fill="#3A3A3A"/>
<path d="M28.439 237.157C26.0648 237.569 23.7539 237.853 21.4747 237.98C19.2271 238.138 17.1061 238.107 15.1751 237.917C13.2124 237.727 11.503 237.315 10.0468 236.682C8.59062 236.049 7.41934 235.194 6.59628 234.086C5.77322 232.978 5.36169 231.617 5.36169 229.971C5.36169 227.787 6.12144 225.951 7.67259 224.4C9.19208 222.88 11.2497 221.551 13.8455 220.443C13.434 219.366 13.0858 218.037 12.8009 216.517C12.516 214.998 12.326 213.32 12.1994 211.516C12.1044 209.711 12.0728 207.844 12.1678 205.944H17.0745C16.9162 207.337 16.8845 208.825 16.9162 210.439C16.9478 212.054 17.0745 213.573 17.2644 215.061C17.4543 216.517 17.7076 217.784 17.9925 218.86C19.2587 218.448 20.5883 218.069 22.0128 217.689C23.4057 217.309 24.8619 216.929 26.318 216.549L27.2361 221.297C25.0201 221.551 22.8675 221.962 20.8099 222.5C18.7522 223.039 16.9162 223.703 15.3017 224.431C13.6872 225.191 12.3894 226.014 11.4397 226.901C10.49 227.787 10.0151 228.737 10.0151 229.718C10.0151 230.794 10.5216 231.617 11.5346 232.25C12.5476 232.883 13.9405 233.295 15.7133 233.517C17.486 233.738 19.512 233.738 21.8229 233.517C24.1021 233.295 26.5396 232.852 29.1038 232.219C28.8505 232.852 28.6606 233.675 28.5656 234.656C28.439 235.638 28.4073 236.492 28.439 237.157ZM28.7239 216.454C28.2174 215.694 27.5526 214.871 26.7296 214.017C25.9065 213.13 25.1784 212.465 24.5136 211.959L26.5396 210.218C26.9195 210.534 27.3943 210.946 27.9642 211.516C28.534 212.086 29.0721 212.655 29.6103 213.225C30.1484 213.795 30.5599 214.301 30.8765 214.713L28.7556 216.486L28.7239 216.454ZM32.0478 213.478C31.5096 212.719 30.8449 211.896 30.0218 211.041C29.1987 210.155 28.4707 209.49 27.8059 208.983L29.7685 207.242C30.1801 207.559 30.6549 207.97 31.2247 208.54C31.7945 209.11 32.3327 209.68 32.8709 210.25C33.409 210.819 33.8522 211.326 34.1371 211.737L32.0478 213.51V213.478Z" fill="#3A3A3A"/>
<path d="M20.489 281.389C17.6399 281.389 15.3607 280.597 13.6196 279.046C11.8785 277.463 10.9922 275.216 10.9922 272.24C10.9922 271.892 10.9922 271.449 11.0555 270.942C11.1188 270.436 11.1504 269.866 11.1821 269.233C9.56763 269.043 8.04814 268.79 6.65527 268.505C5.2624 268.22 4.12278 267.935 3.26807 267.587L3.99616 263.376C4.7559 263.693 5.83222 264.009 7.19343 264.263C8.55464 264.516 10.0425 264.769 11.5936 264.959C11.6886 264.073 11.7836 263.186 11.9102 262.268C12.0052 261.35 12.1001 260.432 12.2268 259.483C10.8339 259.293 9.53598 259.071 8.30139 258.85C7.09846 258.628 6.14878 258.406 5.484 258.248L6.24375 253.943C6.84521 254.165 7.73159 254.418 8.90286 254.639C10.0741 254.893 11.3087 255.114 12.6699 255.304C12.8599 253.658 13.0498 252.17 13.1764 250.872C13.3031 249.543 13.398 248.593 13.4613 247.96L18.2097 248.593C18.0515 249.29 17.8932 250.271 17.6716 251.537C17.4817 252.803 17.2601 254.259 17.0701 255.842C17.9882 255.937 18.8429 256.032 19.6026 256.064C20.394 256.127 21.0271 256.127 21.5336 256.096L20.9005 260.401C20.4257 260.401 19.7926 260.401 19.0328 260.306C18.2731 260.242 17.45 260.147 16.532 260.053C16.437 260.971 16.342 261.857 16.2471 262.743C16.1521 263.63 16.0888 264.516 15.9938 265.402C17.0068 265.466 17.9565 265.497 18.8112 265.497C19.6976 265.497 20.4257 265.497 21.0588 265.434L20.5207 269.676C19.8242 269.676 19.0961 269.676 18.2731 269.676C17.45 269.676 16.5953 269.644 15.6773 269.581C15.6773 270.024 15.6456 270.436 15.6139 270.816C15.5823 271.195 15.6139 271.575 15.6139 271.923C15.6139 273.538 16.0255 274.741 16.7852 275.532C17.545 276.324 18.7796 276.703 20.5207 276.703C22.2617 276.703 23.5596 276.324 24.541 275.532C25.5223 274.772 25.9972 273.633 25.9972 272.145C25.9972 270.879 25.6173 269.518 24.8259 268.093C24.0345 266.669 22.8316 265.402 21.2171 264.358C21.9135 264.263 22.6733 264.041 23.4647 263.693C24.2561 263.345 24.8259 263.028 25.2058 262.712C26.9785 264.041 28.3397 265.561 29.2577 267.27C30.2074 268.979 30.6506 270.657 30.6506 272.335C30.6506 274.171 30.2074 275.785 29.3527 277.115C28.498 278.445 27.2951 279.489 25.7756 280.217C24.2561 280.945 22.515 281.294 20.5207 281.294L20.489 281.389Z" fill="#3A3A3A"/>
<path d="M3.90101 321.525C3.71107 320.481 3.58444 319.215 3.48947 317.695C3.39451 316.176 3.33119 314.529 3.26788 312.757C3.23623 310.984 3.23623 309.116 3.26788 307.217C3.29954 305.318 3.39451 303.45 3.48947 301.646C3.6161 299.841 3.74273 298.163 3.93267 296.612C4.12261 295.061 4.3442 293.763 4.59745 292.655L9.02929 293.573C8.74439 294.491 8.5228 295.663 8.3012 297.119C8.11127 298.575 7.92133 300.158 7.79471 301.899C7.66808 303.64 7.57312 305.413 7.54146 307.249C7.50981 309.085 7.50981 310.857 7.54146 312.567C7.60478 314.276 7.66808 315.859 7.79471 317.252C7.92133 318.645 8.07961 319.784 8.3012 320.639L3.80604 321.525H3.90101ZM20.0456 319.468C15.6771 319.341 13.1762 317.917 12.6064 315.163C12.4482 314.466 12.4165 313.706 12.4481 312.883C12.5115 312.06 12.7014 311.111 13.018 310.098L17.0066 311.079C16.8167 311.554 16.7217 311.997 16.7217 312.377C16.7217 312.757 16.7217 313.105 16.8484 313.39C17.1649 314.308 18.5261 314.783 20.8687 314.878C22.0083 314.878 23.2429 314.878 24.5408 314.751C25.8387 314.624 27.1366 314.466 28.3712 314.245C29.6058 314.023 30.7137 313.77 31.6634 313.485C31.6001 313.833 31.5685 314.308 31.5051 314.941C31.4418 315.542 31.4102 316.176 31.3785 316.777C31.3785 317.41 31.3785 317.917 31.3785 318.328C30.1756 318.645 28.9093 318.866 27.5481 319.056C26.1869 319.246 24.8573 319.341 23.5595 319.404C22.2615 319.468 21.0903 319.499 20.0456 319.468ZM14.3475 300.917L14.0943 296.232C15.044 296.359 16.2469 296.422 17.6398 296.454C19.0326 296.486 20.4888 296.454 21.9766 296.391C23.4961 296.327 24.9207 296.201 26.3135 296.042C27.7064 295.884 28.846 295.663 29.764 295.409L29.5741 299.999C28.5611 300.189 27.3898 300.348 26.0286 300.474C24.6991 300.601 23.3062 300.728 21.8817 300.791C20.4572 300.854 19.0959 300.917 17.7664 300.917C16.4685 300.917 15.3289 300.917 14.3792 300.854L14.3475 300.917Z" fill="#3A3A3A"/>
<path d="M29.7514 342.546C28.7067 342.546 27.7887 342.293 26.934 341.786C26.1109 341.28 25.4461 340.615 24.9396 339.76C24.4331 338.937 24.2115 337.988 24.2115 336.975C24.2115 335.962 24.4648 334.949 24.9713 334.126C25.4778 333.303 26.1426 332.638 26.9973 332.131C27.8203 331.625 28.77 331.403 29.783 331.403C30.796 331.403 31.714 331.657 32.5688 332.131C33.3918 332.638 34.0882 333.303 34.5947 334.126C35.1012 334.949 35.3545 335.898 35.3545 336.975C35.3545 338.051 35.1012 338.906 34.6264 339.76C34.1199 340.615 33.4551 341.28 32.6321 341.786C31.809 342.293 30.8593 342.515 29.8147 342.515L29.7514 342.546ZM29.7514 340.425C30.701 340.425 31.5241 340.077 32.1889 339.412C32.8537 338.747 33.2019 337.924 33.2019 336.975C33.2019 336.025 32.8537 335.234 32.1889 334.569C31.5241 333.904 30.701 333.556 29.7514 333.556C28.8017 333.556 28.0103 333.904 27.3455 334.569C26.6807 335.234 26.3325 336.057 26.3325 336.975C26.3325 337.893 26.6491 338.716 27.3138 339.412C27.9786 340.109 28.77 340.425 29.7514 340.425Z" fill="#3A3A3A"/>
<path d="M72.6596 76.7276C72.3661 76.2286 71.9258 75.671 71.3975 75.0252C70.8692 74.3795 70.3995 73.9392 69.9886 73.6751C71.4562 73.1174 72.8357 72.413 74.0978 71.5618C75.36 70.7106 76.5047 69.742 77.5613 68.6853C76.9156 67.2765 76.3286 65.7502 75.8589 64.1065C75.3893 62.4629 75.0077 60.7605 74.7436 58.97H62.6214V61.8465C62.6214 63.1086 62.5627 64.312 62.4746 65.4567C62.3866 66.6014 62.2105 67.7167 62.0343 68.7734C62.5627 68.0983 63.1204 67.3352 63.6487 66.4546C64.177 65.6034 64.5586 64.8403 64.7934 64.1946L67.4644 65.4567C67.2883 65.9557 67.0535 66.5133 66.7013 67.1884C66.349 67.8341 65.9675 68.4799 65.5859 69.0963C65.175 69.7126 64.8227 70.2116 64.4705 70.6225C64.2064 70.3877 63.8248 70.1236 63.2965 69.83C62.7681 69.5365 62.3572 69.3311 62.005 69.1843C61.7115 70.5051 61.3593 71.7672 60.8896 72.9413C60.42 74.1447 59.8623 75.3187 59.2166 76.4634C58.9818 76.2873 58.6296 76.1112 58.1893 75.8764C57.749 75.6416 57.3088 75.4361 56.8391 75.2307C56.3989 75.0252 56.0466 74.9078 55.7825 74.8491C56.9565 72.9706 57.7784 71.0041 58.2773 68.9789C58.747 66.9536 59.0111 64.6055 59.0111 61.9932V55.8588H74.4501C74.4501 55.5359 74.4207 55.1837 74.3913 54.8315C74.3913 54.4793 74.362 54.1271 74.3327 53.7749H57.0152V50.6049H62.8268V45.351H66.9067V50.6049H70.8105V44.0596H74.8316V46.1142H84.2241V48.9319H74.8316V50.6343H88.5682V53.8042H83.4904C83.7545 54.039 84.0187 54.2738 84.2828 54.5086C84.547 54.7435 84.8112 54.9783 85.0753 55.2424L84.4296 55.8882H87.5996V58.9407H78.5886C78.9408 61.3182 79.4692 63.4608 80.1443 65.398C80.7607 64.4881 81.289 63.5195 81.6999 62.5216C82.1108 61.5236 82.4924 60.4963 82.7859 59.469L86.3668 60.9366C85.8678 62.4335 85.2514 63.8717 84.547 65.2512C83.8132 66.6307 82.962 67.9222 82.0228 69.1843C82.9033 70.5345 83.8719 71.5324 84.9579 72.1781C85.1047 71.9433 85.2514 71.5618 85.4275 71.0628C85.6037 70.5638 85.7798 70.0061 85.9265 69.4485C86.1026 68.8614 86.22 68.3625 86.2787 67.9516C86.6897 68.1864 87.218 68.4212 87.9224 68.6853C88.6269 68.9495 89.1845 69.1256 89.6248 69.2137C89.3607 70.5638 89.0378 71.7672 88.6562 72.8826C88.2746 73.9979 87.8931 74.8491 87.5409 75.4655C87.1886 76.0525 86.6897 76.4047 86.0733 76.5515C85.4569 76.6982 84.7818 76.5515 84.048 76.258C83.1968 75.8471 82.4043 75.2894 81.6412 74.5556C80.878 73.8218 80.1443 72.9706 79.4692 71.9727C78.5006 72.8826 77.4733 73.7338 76.3579 74.5263C75.2426 75.3187 74.0391 76.0232 72.7183 76.6689L72.6596 76.7276ZM65.4978 74.3795C65.4978 73.9099 65.4098 73.3522 65.2924 72.6771C65.175 72.0314 65.0576 71.5031 64.9108 71.1215H66.4371C66.848 71.1215 67.1122 71.0628 67.2589 70.916C67.4057 70.7693 67.4644 70.5345 67.4644 70.1823V63.4608H63.7661V60.467H74.3033V63.4608H70.7811V71.3857C70.7811 72.3836 70.517 73.1467 69.9593 73.6457C69.4016 74.1447 68.5504 74.3795 67.3176 74.3795H65.4978ZM73.364 70.6225C73.2466 70.1529 73.0412 69.5952 72.7183 68.9201C72.4248 68.2451 72.1019 67.5993 71.7497 66.9243C71.3975 66.2785 71.104 65.7502 70.8105 65.3686L73.4228 64.1652C73.7163 64.5175 74.0685 64.9871 74.4207 65.6034C74.7729 66.2198 75.1251 66.8362 75.448 67.4819C75.7709 68.1277 76.035 68.656 76.1818 69.0963C75.8002 69.2137 75.3306 69.4191 74.7729 69.7126C74.2153 70.0061 73.7163 70.2997 73.3347 70.6225H73.364ZM78.1777 55.9175H80.8193C80.5552 55.6533 80.291 55.4185 80.0562 55.1837C79.792 54.9489 79.5572 54.7728 79.3224 54.5967L80.203 53.8336H78.119C78.119 54.1858 78.119 54.538 78.119 54.8902C78.119 55.2424 78.1484 55.5946 78.1777 55.9175Z" fill="#3A3A3A"/>
<path d="M58.3849 120.778C58.2674 120.337 58.062 119.721 57.7685 118.929C57.475 118.136 57.1521 117.49 56.8292 116.962C60.1166 116.786 62.5821 115.847 64.2552 114.203C65.8989 112.559 66.75 110.094 66.75 106.806H70.8593C70.8593 111.004 69.832 114.262 67.748 116.522C65.664 118.811 62.5528 120.22 58.3849 120.748V120.778ZM59.735 106.425V89.0195H63.9617V106.425H59.735ZM67.6306 105.28V89.5479H84.948V105.28H67.6306ZM71.7985 95.6823H80.8388V93.2168H71.7985V95.6823ZM71.7985 101.523H80.8388V98.9109H71.7985V101.523ZM77.2285 120.015C75.849 120.015 74.8511 119.809 74.2934 119.369C73.7064 118.958 73.4422 118.224 73.4422 117.226V106.806H77.6688V115.084C77.6688 115.436 77.7569 115.671 77.9036 115.817C78.0504 115.964 78.4026 116.023 78.9016 116.023H82.7173C83.3337 116.023 83.8033 115.905 84.1555 115.7C84.5077 115.494 84.7719 115.084 84.9774 114.496C85.1535 113.909 85.3002 113.058 85.3883 111.972C85.6818 112.119 86.0927 112.266 86.5623 112.471C87.032 112.647 87.531 112.823 88.0593 112.97C88.5876 113.117 88.9985 113.234 89.3508 113.352C89.0866 115.172 88.7637 116.58 88.3528 117.549C87.9419 118.518 87.4136 119.163 86.7385 119.516C86.0634 119.868 85.1535 120.015 84.0088 120.015H77.1992H77.2285Z" fill="#3A3A3A"/>
<path d="M66.1447 164.226C65.8512 163.904 65.4403 163.551 64.9413 163.14C64.4423 162.759 63.9727 162.465 63.5911 162.231V164.021H59.8635V145.676C59.57 146.175 59.2471 146.645 58.9536 147.056C58.6601 147.467 58.3666 147.907 58.073 148.259C57.8969 147.995 57.6034 147.702 57.2512 147.349C56.899 146.997 56.5467 146.674 56.1652 146.351C55.7836 146.029 55.4608 145.794 55.1672 145.618C55.8717 144.766 56.5468 143.769 57.2218 142.565C57.8969 141.391 58.5133 140.129 59.1003 138.838C59.6874 137.546 60.1864 136.255 60.6266 135.022C61.0669 133.789 61.3898 132.674 61.6246 131.676L65.4403 132.556C65.3522 132.85 65.2642 133.173 65.1761 133.496C65.0881 133.818 65 134.141 64.8826 134.464H71.3693L72.3966 135.198C72.2205 135.785 71.9857 136.489 71.6922 137.311C71.3986 138.133 71.1051 138.984 70.8116 139.835C70.5181 140.687 70.1952 141.508 69.9017 142.242C69.6082 142.976 69.3734 143.592 69.1679 144.062L72.8369 144.561C72.8369 147.085 72.6608 149.404 72.3085 151.459C71.9563 153.513 71.428 155.392 70.7529 157.065C71.7509 158.092 73.013 158.826 74.5393 159.266C76.0655 159.706 77.9147 159.912 80.1454 159.912C82.0239 159.912 83.7556 159.912 85.3113 159.853C86.8669 159.794 88.1584 159.706 89.127 159.56C89.0096 159.853 88.8922 160.264 88.8041 160.734C88.7161 161.203 88.5987 161.702 88.5106 162.172C88.4226 162.641 88.3639 163.023 88.3052 163.287H80.1748C77.6799 163.287 75.5666 163.052 73.7761 162.553C72.015 162.054 70.4594 161.233 69.1679 160.088C68.757 160.822 68.2874 161.526 67.7591 162.172C67.2307 162.847 66.7024 163.493 66.1154 164.138L66.1447 164.226ZM63.5618 161.82C64.8239 160.469 65.9099 158.914 66.7611 157.094C65.8218 155.45 65 153.396 64.2956 150.96L67.3481 150.02C67.4949 150.578 67.6416 151.106 67.7884 151.635C67.9352 152.134 68.1113 152.633 68.258 153.102C68.5222 152.192 68.7277 151.253 68.8744 150.343C69.0212 149.404 69.1092 148.523 69.1386 147.643L64.3836 146.968C64.5891 146.498 64.8533 145.882 65.1468 145.148C65.4403 144.385 65.7632 143.592 66.086 142.712C66.4089 141.831 66.7318 141.01 67.0253 140.217C67.3188 139.425 67.5536 138.779 67.7591 138.221H64.8239V134.582C64.6478 135.11 64.4423 135.697 64.2369 136.284C64.0314 136.871 63.7966 137.487 63.5324 138.104V161.82H63.5618ZM77.8266 159.266V156.742H72.6901V153.601H77.8266V151.84H73.5413V148.788H77.8266V147.027H73.3946V144.033H77.8266V142.301H72.0444V139.454H77.8266V137.722H73.2478V134.728H77.8266V131.94H81.3488V134.728H86.9256V139.454H88.9802V142.301H86.9256V147.027H81.3488V148.788H86.6028V151.84H81.3488V153.601H88.041V156.742H81.3488V159.266H77.8266ZM81.3488 139.454H83.5208V137.722H81.3488V139.454ZM81.3488 144.033H83.5208V142.301H81.3488V144.033Z" fill="#3A3A3A"/>
<path d="M56.3339 184.782V181.553H69.2485V184.782H56.3339ZM57.7721 206.707V196.551H68.1038V206.707H57.7721ZM58.0362 189.771V186.484H67.7516V189.771H58.0362ZM58.0362 194.732V191.503H67.7516V194.732H58.0362ZM58.0656 179.821V176.475H67.7516V179.821H58.0656ZM61.4117 203.478H64.4642V199.809H61.4117V203.478ZM70.5694 188.627C70.2758 188.216 69.8649 187.775 69.3072 187.247C68.7496 186.719 68.2212 186.308 67.7516 186.014C68.7202 185.427 69.6595 184.694 70.5694 183.813C71.4793 182.932 72.3598 181.993 73.1817 180.966C74.0035 179.968 74.7373 178.941 75.383 177.943C76.0288 176.945 76.5571 176.006 76.9386 175.125L80.4902 175.8C81.1359 177.003 81.9284 178.207 82.9264 179.41C83.9243 180.614 85.0397 181.729 86.2431 182.786C87.4759 183.813 88.7086 184.694 90.0001 185.398C89.5892 185.721 89.1195 186.19 88.5912 186.836C88.0629 187.453 87.6813 188.01 87.4172 188.48C86.3018 187.834 85.1571 187.071 84.0417 186.132C82.9264 185.193 81.8991 184.165 80.9305 183.021C79.9912 181.876 79.1694 180.702 78.4943 179.528C77.6724 181.113 76.5571 182.698 75.1482 184.341C73.7393 185.985 72.1837 187.423 70.5106 188.685L70.5694 188.627ZM71.4793 194.967C71.2151 194.556 70.8629 194.086 70.3933 193.499C69.9236 192.912 69.4834 192.472 69.1018 192.178C70.3933 191.65 71.6554 190.975 72.9175 190.153C74.1796 189.331 75.3537 188.451 76.4397 187.511C77.5257 186.572 78.4649 185.603 79.2281 184.664L81.9284 186.954C80.6957 188.451 79.1694 189.918 77.3496 191.327C75.5298 192.736 73.5632 193.939 71.4793 194.967ZM71.2738 207.646C71.0683 207.177 70.7748 206.619 70.3639 205.944C69.9823 205.298 69.6008 204.741 69.2192 204.3C70.8042 203.889 72.4185 203.302 74.0328 202.598C75.6472 201.893 77.2028 201.072 78.6997 200.162C80.1967 199.252 81.5762 198.283 82.809 197.256C84.0711 196.229 85.1277 195.201 86.0376 194.145L88.8847 196.493C87.5639 198.166 85.9496 199.721 84.0711 201.189C82.1632 202.657 80.1086 203.948 77.9366 205.034C75.7352 206.149 73.5045 207.001 71.2738 207.646ZM72.712 200.69C72.4772 200.279 72.125 199.78 71.6847 199.134C71.2444 198.489 70.7748 197.99 70.3345 197.608C71.8315 197.08 73.3578 196.375 74.9427 195.465C76.4984 194.556 77.9659 193.558 79.3161 192.442C80.6663 191.356 81.7817 190.27 82.6622 189.214L85.5093 191.65C84.5407 192.795 83.3666 193.939 81.9578 195.084C80.5489 196.229 79.052 197.285 77.467 198.225C75.882 199.193 74.297 199.986 72.7414 200.661L72.712 200.69Z" fill="#3A3A3A"/>
<path d="M75.3797 249.736C73.4425 249.736 71.7108 249.56 70.1551 249.178C68.5995 248.797 67.3961 248.21 66.4862 247.358C65.6056 246.537 65.136 245.421 65.136 244.071C65.136 242.956 65.4882 241.928 66.1633 240.989C66.8384 240.05 67.7776 239.228 68.9811 238.465C70.1845 237.702 71.5346 236.997 73.0609 236.381V236.088C73.0609 235.266 72.8555 234.649 72.4445 234.268C72.0336 233.886 71.5053 233.651 70.8889 233.622C69.8029 233.563 68.7756 233.71 67.7776 234.092C66.7797 234.473 65.8111 235.148 64.8425 236.146C64.549 236.44 64.1968 236.792 63.7565 237.232C63.3162 237.672 62.8759 238.083 62.4063 238.524C61.966 238.935 61.5845 239.287 61.2323 239.58L58.1797 236.557C59.8234 235.471 61.379 234.121 62.8172 232.477C64.2848 230.834 65.5176 229.073 66.5155 227.223C65.1947 227.282 63.9913 227.311 62.9346 227.341C61.8486 227.37 61.0561 227.37 60.4985 227.341L60.3517 223.29C61.1442 223.349 62.2596 223.408 63.6684 223.408C65.0773 223.408 66.6329 223.378 68.306 223.29C68.8343 221.735 69.1572 220.297 69.2159 218.917L73.4132 219.122C73.3545 220.355 73.1196 221.647 72.7087 222.997C74.4404 222.85 76.0548 222.703 77.5517 222.527C79.0486 222.351 80.1933 222.146 80.9858 221.911L81.2207 225.815C80.5749 225.932 79.6944 226.049 78.6377 226.196C77.5811 226.314 76.407 226.46 75.1449 226.578C73.8534 226.695 72.562 226.813 71.2118 226.901C70.9183 227.546 70.5661 228.221 70.1845 228.896C69.8029 229.572 69.392 230.217 68.9811 230.804C69.9203 230.423 70.8596 230.247 71.8282 230.247C73.2077 230.247 74.3818 230.599 75.321 231.333C76.2603 232.066 76.8766 233.27 77.1114 234.913C78.4323 234.473 79.7824 234.062 81.1326 233.71C82.5121 233.358 83.833 233.006 85.1244 232.712L86.3278 236.586C84.6842 236.821 83.0992 237.115 81.5435 237.438C79.9879 237.79 78.5497 238.171 77.1995 238.582V243.279H73.0316V240.167C71.8575 240.725 70.9183 241.312 70.2138 241.899C69.5094 242.486 69.1572 243.073 69.1572 243.601C69.1572 244.394 69.6268 244.952 70.5954 245.274C71.564 245.597 73.0316 245.744 74.9981 245.744C75.7906 245.744 76.7005 245.685 77.6985 245.597C78.6964 245.509 79.6944 245.363 80.6923 245.186C81.6903 245.01 82.5708 244.805 83.3046 244.599C83.2459 244.893 83.2166 245.333 83.1872 245.92C83.1579 246.507 83.1285 247.065 83.1285 247.623C83.1285 248.18 83.1285 248.621 83.1579 248.885C82.0132 249.178 80.7217 249.384 79.2835 249.53C77.8452 249.677 76.5244 249.765 75.2623 249.765L75.3797 249.736Z" fill="#3A3A3A"/>
<path d="M67.4796 16.4681L63.2151 15.4373L64.8522 0.582031H81.0414V5.00829H69.2784L68.5104 11.8801C68.9281 11.6241 69.5344 11.3681 70.3294 11.1121C71.1379 10.8426 72.0474 10.7079 73.0579 10.7079C74.4592 10.7079 75.7123 10.9369 76.8172 11.395C77.9221 11.8397 78.8586 12.4864 79.6266 13.3353C80.4081 14.1842 80.9942 15.2217 81.385 16.4478C81.7892 17.6605 81.9913 19.0349 81.9913 20.5709C81.9913 21.9184 81.7892 23.1849 81.385 24.3707C80.9942 25.5429 80.3946 26.5871 79.5862 27.5034C78.7777 28.4062 77.7604 29.1203 76.5343 29.6458C75.3081 30.1578 73.8664 30.4138 72.2091 30.4138C70.956 30.4138 69.75 30.2319 68.5913 29.8681C67.4459 29.4908 66.4152 28.9451 65.4989 28.231C64.5827 27.5034 63.8484 26.6141 63.2959 25.5631C62.7569 24.5121 62.4605 23.3062 62.4066 21.9453H67.6817C67.7761 22.8481 68.0186 23.6161 68.4094 24.2494C68.8001 24.8827 69.3121 25.3677 69.9454 25.7046C70.5922 26.0414 71.34 26.2099 72.1889 26.2099C72.9569 26.2099 73.6171 26.0684 74.1696 25.7854C74.7355 25.489 75.2003 25.078 75.5641 24.5526C75.9279 24.0271 76.1974 23.4072 76.3726 22.6931C76.5477 21.979 76.6353 21.1975 76.6353 20.3486C76.6353 19.5267 76.5343 18.7789 76.3322 18.1052C76.13 17.418 75.8201 16.8251 75.4024 16.3266C74.9847 15.828 74.4592 15.444 73.826 15.1745C73.2062 14.9051 72.4785 14.7703 71.6431 14.7703C70.5248 14.7703 69.6624 14.9387 69.0561 15.2756C68.4632 15.6125 67.9378 16.0099 67.4796 16.4681Z" fill="#3A3A3A"/>
</svg>
