<svg width="90" height="43" viewBox="0 0 90 43" fill="none" xmlns="http://www.w3.org/2000/svg">
<path d="M68.3858 22.1968C68.4918 22.1575 77.8632 18.709 84.7051 10.4453C80.6597 11.8435 73.8767 13.9095 64.7449 15.728C52.911 18.0845 35.107 20.3547 13.5758 19.1214C34.7182 26.3168 58.8063 36.4737 65.7072 39.4233C65.7464 33.6772 66.4141 27.609 67.5178 23.159C67.6278 22.7152 67.9538 22.3539 68.3858 22.1968ZM65.9978 23.9328C65.9546 24.2745 65.6718 24.5298 65.3419 24.5494C63.7158 24.6515 62.0977 24.6515 60.4795 24.628C52.5182 24.5416 44.1681 24.1135 36.25 23.2965C33.0293 22.9352 29.8008 22.6052 26.6194 21.9336C25.8025 21.749 25.9321 20.5157 26.7805 20.5275C32.3616 20.6807 40.429 21.368 46.0848 21.6823C51.6502 22.1025 59.9061 22.5188 65.3812 23.1355C65.774 23.1826 66.0489 23.54 65.9978 23.9328Z" fill="#ECB8A4"/>
<path d="M61.654 13.5203C59.5723 11.7568 57.0193 8.63829 55.9824 3.50488C41.4856 11.1991 30.5354 14.4708 15.9639 16.4935C34.7418 17.3694 50.4995 15.5705 61.654 13.5203Z" fill="#ECB8A4"/>
<path d="M67.0976 42.8912C67.3686 42.8912 67.6357 42.8127 67.8635 42.6556C68.2523 42.3963 68.4841 41.9565 68.4723 41.4851C68.3505 35.6605 68.9396 29.2427 70.0197 24.5099C72.8437 23.3591 83.2715 18.5635 89.6421 8.28099C89.9603 7.7704 89.9093 7.11449 89.5165 6.65888C89.1238 6.20328 88.4796 6.05796 87.9297 6.29361C87.8433 6.33289 79.5875 9.8599 65.4323 12.786C64.8706 12.4914 63.6923 11.7844 62.463 10.4962C60.2007 8.12781 58.8339 5.00535 58.4058 1.21912C58.3547 0.767444 58.0837 0.366826 57.6752 0.154735C57.2707 -0.0573571 56.7876 -0.0495018 56.383 0.166518C39.777 9.20791 28.9682 12.8567 1.39234 15.3272C1.21167 15.3389 1.03884 15.39 0.885665 15.4646C0.767836 15.5196 0.661816 15.5942 0.567553 15.6767C0.351533 15.8731 0.194441 16.1362 0.139455 16.4426C0.131599 16.4819 0.123725 16.5251 0.119797 16.5644V16.584C0.0923041 16.9257 0.190504 17.2517 0.375103 17.507C0.437945 17.5934 0.508609 17.668 0.587162 17.7387H0.591093C0.740343 17.8723 0.921052 17.9704 1.12136 18.0254C27.2911 25.7511 66.1589 42.6084 66.5517 42.7773C66.7245 42.852 66.913 42.8912 67.0976 42.8912ZM55.9824 3.505C57.0193 8.63841 59.5723 11.7569 61.6539 13.5204C50.4995 15.5707 34.7418 17.3695 15.9638 16.4937C30.5353 14.4709 41.4855 11.1992 55.9824 3.505ZM13.5758 19.1212C35.1071 20.3545 52.911 18.0843 64.745 15.7278C73.8767 13.9093 80.6597 11.8433 84.7052 10.4451C77.8633 18.7088 68.4919 22.1573 68.3858 22.1966C67.9538 22.3537 67.6278 22.715 67.5178 23.1588C66.4142 27.6088 65.7465 33.677 65.7072 39.4231C58.8064 36.4735 34.7183 26.3166 13.5758 19.1212Z" fill="#262626"/>
<path d="M65.3813 23.1354C59.9062 22.5187 51.6503 22.1024 46.0848 21.6822C40.4291 21.3679 32.3617 20.6806 26.7806 20.5274C25.9322 20.5156 25.8026 21.7489 26.6195 21.9335C29.8009 22.6051 33.0294 22.9351 36.2501 23.2964C44.1681 24.1134 52.5183 24.5415 60.4796 24.6279C62.0977 24.6514 63.7159 24.6514 65.342 24.5493C65.6719 24.5297 65.9547 24.2744 65.9979 23.9327C66.0489 23.5399 65.774 23.1825 65.3813 23.1354Z" fill="#262626"/>
</svg>
