<svg width="155" height="74" viewBox="0 0 155 74" fill="none" xmlns="http://www.w3.org/2000/svg">
<path d="M104.566 26.3492L104.592 26.2896L104.649 26.3247C107.071 27.8368 111.075 29.6419 116.385 29.6419C117.768 29.6419 119.25 29.5138 120.794 29.2594V26.4282C119.389 26.6737 115.725 27.1193 111.515 26.0896C109.355 25.5616 107.383 24.7248 105.658 23.6056L105.622 23.5828L105.635 23.5425C106.429 21.027 106.816 18.3781 106.816 15.4451V12.177L103.797 12.184L103.83 12.1051L106.725 5.21106V2.23242H101.259V5.12686H104.018L103.981 5.20755L100.821 12.1279L100.775 14.8451H103.997L104.004 15.2065C104.039 17.2923 103.763 19.4219 103.18 21.5357L103.156 21.6287L103.087 21.562C102.555 21.048 102.055 20.4954 101.596 19.9183L100.309 22.6391C100.84 23.2671 101.453 23.8846 102.133 24.474L102.163 24.5003L102.147 24.5371C101.557 25.9668 100.946 27.1316 100.372 28.1771L103.087 29.3524C103.708 28.1876 104.165 27.2614 104.568 26.351L104.566 26.3492Z" fill="#3A3A3A"/>
<path d="M95.3015 9.76278C94.6113 11.545 93.7115 12.2643 92.9844 12.8397V16.6252C93.6922 16.4095 94.4035 16.0376 94.9 15.6236L95.5427 15.085V29.6484H98.5922V13.8676H97.1308L97.416 13.3028C99.2102 9.74699 99.6187 4.38614 99.6433 0.49707H96.4899C96.467 4.72295 96.0797 7.75421 95.3015 9.76278Z" fill="#3A3A3A"/>
<path d="M119.914 19.626H115.498V17.6561H118.803V15.4738H115.498V13.4951H119.801V9.40254H121.104V7.07295H119.801V2.89444H115.53V0H112.658V2.89268H109.188V5.11175H112.658V7.08874H108.448V9.39026H112.658V11.3129H109.188V13.4969H112.698V15.4756H109.188V17.6578H112.698V19.6278H108.446V21.8381H112.716V24.9395H115.496V21.8381H119.912V19.6278L119.914 19.626ZM115.53 5.0907H117.216V6.99402H115.53V5.0907ZM115.53 9.39552H117.216V11.0532H115.53V9.39552Z" fill="#3A3A3A"/>
<path d="M71.0703 0.586914V17.7571H83.0448V0.586914H71.0703ZM80.1696 14.6574H73.9314V10.7227H80.1696V14.6574ZM80.1696 7.62127H73.9314V3.68659H80.1696V7.62127Z" fill="#3A3A3A"/>
<path d="M81.559 29.5155H84.642V26.179H81.559C79.779 26.179 78.9497 25.3107 78.9497 23.4477V21.3076H75.8826V23.4477C75.8826 27.7017 77.5799 29.5155 81.559 29.5155Z" fill="#3A3A3A"/>
<path d="M66.7453 0.586914H63.7539V17.7571H66.7453V0.586914Z" fill="#3A3A3A"/>
<path d="M139.706 6.82715H129.953V9.8935H139.706V6.82715Z" fill="#3A3A3A"/>
<path d="M138.115 11.626H131.548V14.4099H138.115V11.626Z" fill="#3A3A3A"/>
<path d="M138.115 16.2988H131.548V19.0828H138.115V16.2988Z" fill="#3A3A3A"/>
<path d="M130.162 21.2002V29.3713H139.499V21.2002H130.162ZM136.719 27.1768H132.944V23.6228H136.719V27.1768Z" fill="#3A3A3A"/>
<path d="M148.273 0.0292969C147.565 0.841493 145.484 2.96408 142.387 3.8675V7.27591C144.508 6.67948 146.417 5.73748 148.063 4.4762L148.278 4.31131L148.491 4.47971C149.576 5.34103 151.426 6.51634 154.127 7.27591V3.8675C151.032 2.96408 148.973 0.843248 148.273 0.0292969Z" fill="#3A3A3A"/>
<path d="M143.382 18.7122L144.135 21.9487C145.324 21.8136 149.974 21.1453 153.361 18.7297L152.354 15.6143C149.048 17.8474 144.836 18.5333 143.382 18.7104V18.7122Z" fill="#3A3A3A"/>
<path d="M143.569 25.6062L144.439 28.8445C145.746 28.7164 151.038 28.0621 155 25.6115L153.829 22.4697C149.941 24.7818 144.913 25.4624 143.569 25.608V25.6062Z" fill="#3A3A3A"/>
<path d="M143.271 11.636L144.055 14.9988C145.034 14.8778 148.691 14.2954 151.784 12.1395L150.777 8.91699C147.99 10.787 144.504 11.4518 143.271 11.6378V11.636Z" fill="#3A3A3A"/>
<path d="M34.4905 21.9609C34.4201 23.6292 33.9447 24.9291 33.6172 25.643L35.9642 26.1272C36.2547 25.5395 36.8181 24.1309 36.885 21.9627H34.4905V21.9609Z" fill="#3A3A3A"/>
<path d="M40.7131 24.1699V20.0142H43.3577V17.7969H35.0859V20.0142H38.0826V24.1699C38.0826 25.8943 37.3819 26.8486 35.998 27.01V29.2729C39.3433 29.1589 40.7113 27.6713 40.7113 24.1699H40.7131Z" fill="#3A3A3A"/>
<path d="M43.8867 25.8313C44.2951 25.712 44.7512 25.6085 45.1121 25.5331C44.9255 25.2103 44.7071 24.7613 44.568 24.2438C44.3286 23.3614 44.2634 22.7088 44.2476 21.9756H41.8936C41.9622 24.121 42.5186 25.5191 42.8056 26.105C43.0486 26.0524 43.4447 25.9594 43.8884 25.8313H43.8867Z" fill="#3A3A3A"/>
<path d="M61.9473 26.9747L62.405 30.0218C63.9034 29.7797 70.5394 28.3132 71.823 21.2314H68.659C67.5199 25.8503 63.3224 26.7905 61.9473 26.9747Z" fill="#3A3A3A"/>
<path d="M131.272 1.46745V4.30224C132.373 4.10402 133.383 4.02683 134.299 4.02683C135.991 4.02683 137.361 4.28996 138.387 4.54608V1.74286C136.494 1.19555 134.29 1.11134 131.271 1.46745H131.272Z" fill="#3A3A3A"/>
<path d="M48.2262 28.0749C48.4357 27.9047 48.6576 27.71 48.8847 27.4925L48.9904 27.3925L49.0854 27.5013C49.9764 28.5205 50.9852 29.4642 52.0857 30.308L54.2901 27.9468C52.9431 26.996 51.8832 26.0751 50.9676 25.0541L50.899 24.9787L50.9518 24.891C52.1156 22.9351 52.8146 20.5897 53.0259 17.918L50.3954 17.7286C50.2563 19.4547 49.8883 21.0107 49.3002 22.3562L49.1876 22.6158L49.052 22.3685C47.9991 20.4599 47.3776 18.2584 47.205 15.8253L47.1716 15.3622H53.2354V12.6537L52.5769 12.6467L52.1702 10.6135H53.6685V7.66472H43.3315V4.87027H49.3707V2.3372H43.3315V0.00585938H40.3612V7.66121H37.4385V2.58454H34.6055V7.66121H30.6668V10.61H44.0463L44.0358 10.7574C44.0129 11.0977 44.0111 11.4135 44.0129 11.859V12.6502H30.5806C31.2162 22.0369 29.6668 27.5504 29.084 29.2362L31.8835 29.7063C32.2515 28.5503 33.6248 23.6596 33.3994 15.8025L33.3871 15.3569H44.0816L44.1221 15.7446C44.483 19.2407 45.5641 22.4123 47.3371 25.1734L47.3969 25.2664L47.3195 25.3453C45.7225 26.9855 43.9935 27.5135 43.5023 27.6381L43.9777 30.2255C44.5094 30.1098 46.3212 29.6221 48.2262 28.0731V28.0749ZM46.9902 10.61H49.1981L49.6048 12.6431L49.0062 12.6502H46.9885V10.61H46.9902Z" fill="#3A3A3A"/>
<path d="M10.6882 11.5687C9.80433 11.5687 8.968 11.6424 8.20738 11.7862L7.77601 11.8686L8.40281 4.91147H18.1342V1.65918H5.12089L3.85671 16.2191L3.84791 16.3296L3.95179 16.2892C6.47662 15.3244 7.92391 14.821 10.69 14.821C13.7588 14.821 16.2555 17.426 16.2555 20.6274C16.2555 23.4815 14.1462 26.4338 10.6142 26.4338C8.06828 26.4338 5.94665 24.7463 4.93778 21.9185L4.91313 21.8501L1.90234 23.0868L1.92523 23.1482C3.38837 27.2179 6.64917 29.6475 10.6512 29.6475C15.1938 29.6475 19.8931 26.2724 19.8931 20.6256C19.8931 15.6314 15.7643 11.5669 10.69 11.5669L10.6882 11.5687Z" fill="#3A3A3A"/>
<path d="M3.21326 59.999C3.14283 63.7934 2.31883 66.1931 0 69.3735L2.93332 70.933C5.63422 67.5123 6.53569 64.8213 6.59555 59.999H3.21326Z" fill="#3A3A3A"/>
<path d="M25.7887 69.3735C23.4681 66.1931 22.6459 63.7934 22.5737 59.999H19.1914C19.253 64.8213 20.1545 67.5123 22.8536 70.933L25.7869 69.3735H25.7887Z" fill="#3A3A3A"/>
<path d="M14.6702 65.6504V54.9725H23.7835V51.5396H14.6702V44.2842H11.2897V51.5396H2.17456V54.9725H11.2897V65.0241C11.2897 68.6694 11.2897 70.0815 9.4603 70.2973V73.7127C14.4325 73.5829 14.6719 71.6445 14.6719 65.6504H14.6702Z" fill="#3A3A3A"/>
<path d="M49.0759 58.3379H32.7578V61.7937H49.0759V58.3379Z" fill="#3A3A3A"/>
<path d="M74.9903 58.5175V47.6186H64.2853L64.324 46.9678C64.361 46.3275 64.4209 45.3171 64.4438 44.6172H61.0087C60.9382 50.171 59.5332 55.0179 57.0471 58.3L59.8748 60.2191C61.757 57.8456 63.088 54.8231 63.8293 51.2288L63.9032 50.8692H71.4619V58.8841L65.766 57.2334L64.5741 60.3138L71.1027 62.2048L70.9953 62.6258C70.0234 66.4518 67.5373 68.855 62.9454 70.397L64.398 73.3598C68.4071 72.1547 74.9885 68.634 74.9885 58.514L74.9903 58.5175Z" fill="#3A3A3A"/>
<path d="M111.253 63.7815L108.233 61.6993C106.124 66.3286 103.333 67.4232 102.222 67.6793L101.669 67.8074V46.1465H97.8682V72.3368C106.001 72.0508 109.211 67.8741 111.255 63.7815H111.253Z" fill="#3A3A3A"/>
<path d="M88.6053 47.8945C88.6053 55.4464 88.5754 63.9771 83.9219 70.6466L87.07 72.5815C91.4524 66.2154 92.3802 58.1022 92.4067 47.8945H88.6053Z" fill="#3A3A3A"/>
<path d="M20.9489 43.3971C20.9049 43.3953 20.8591 43.3936 20.8151 43.3936C20.065 43.3936 19.3431 43.676 18.7815 44.19C18.1494 44.7671 17.7832 45.567 17.7462 46.4424C17.7092 47.2826 18.0103 48.0843 18.5896 48.7018C19.1565 49.3052 19.9154 49.6473 20.7253 49.6648C20.7499 49.6648 20.7746 49.6648 20.7993 49.6648C22.4878 49.6648 23.8681 48.3457 23.9403 46.6616C24.0125 44.9373 22.6709 43.4725 20.9507 43.3971H20.9489ZM21.8521 47.5826C21.5898 47.8299 21.2324 47.972 20.8714 47.972C20.845 47.972 20.8186 47.972 20.7922 47.9703C20.0017 47.9264 19.3942 47.2493 19.4365 46.4617C19.4594 46.0582 19.6302 45.6933 19.9207 45.4354C20.1901 45.1951 20.5439 45.0741 20.9049 45.0934C21.6814 45.1372 22.2906 45.788 22.2906 46.5757C22.2906 46.9599 22.1339 47.3177 21.8521 47.5826Z" fill="#3A3A3A"/>
</svg>
